<ttFont>
    <TTGlyph name=".notdef" xMin="205" yMin="0" xMax="1330" yMax="1409">
      <contour>
        <pt x="205" y="1409" on="1"/>
        <pt x="1330" y="1409" on="1"/>
        <pt x="1330" y="0" on="1"/>
        <pt x="205" y="0" on="1"/>
      </contour>
      <contour>
        <pt x="281" y="1333" on="1"/>
        <pt x="281" y="76" on="1"/>
        <pt x="1254" y="76" on="1"/>
        <pt x="1254" y="1333" on="1"/>
      </contour>
    </TTGlyph>
    <TTGlyph name="A" xMin="51" yMin="0" xMax="1425" yMax="1409">
      <contour>
        <pt x="1133" y="0" on="1"/>
        <pt x="1008" y="360" on="1"/>
        <pt x="471" y="360" on="1"/>
        <pt x="346" y="0" on="1"/>
        <pt x="51" y="0" on="1"/>
        <pt x="565" y="1409" on="1"/>
        <pt x="913" y="1409" on="1"/>
        <pt x="1425" y="0" on="1"/>
      </contour>
      <contour>
        <pt x="739" y="1192" on="1"/>
        <pt x="733" y="1170" on="1"/>
        <pt x="723" y="1134" on="0"/>
        <pt x="695" y="1042" on="0"/>
        <pt x="537" y="582" on="1"/>
        <pt x="942" y="582" on="1"/>
        <pt x="803" y="987" on="1"/>
        <pt x="760" y="1123" on="1"/>
      </contour>
    </TTGlyph>
    <TTGlyph name="AE" xMin="4" yMin="0" xMax="1968" yMax="1409">
      <contour>
        <pt x="931" y="0" on="1"/>
        <pt x="931" y="360" on="1"/>
        <pt x="481" y="360" on="1"/>
        <pt x="309" y="0" on="1"/>
        <pt x="4" y="0" on="1"/>
        <pt x="704" y="1409" on="1"/>
        <pt x="1927" y="1409" on="1"/>
        <pt x="1927" y="1182" on="1"/>
        <pt x="1226" y="1182" on="1"/>
        <pt x="1226" y="827" on="1"/>
        <pt x="1865" y="827" on="1"/>
        <pt x="1865" y="606" on="1"/>
        <pt x="1226" y="606" on="1"/>
        <pt x="1226" y="227" on="1"/>
        <pt x="1968" y="227" on="1"/>
        <pt x="1968" y="0" on="1"/>
      </contour>
      <contour>
        <pt x="931" y="1192" on="1"/>
        <pt x="870" y="1192" on="1"/>
        <pt x="821" y="1081" on="0"/>
        <pt x="583" y="582" on="1"/>
        <pt x="931" y="582" on="1"/>
      </contour>
    </TTGlyph>
    <TTGlyph name="AEacute" xMin="4" yMin="0" xMax="1968" yMax="1815">
      <component glyphName="AE" x="0" y="0" flags="0x204"/>
      <component glyphName="acute.uc" x="996" y="0" flags="0x4"/>
    </TTGlyph>
    <TTGlyph name="Aacute" xMin="51" yMin="0" xMax="1425" yMax="1815">
      <component glyphName="A" x="0" y="0" flags="0x204"/>
      <component glyphName="acute.uc" x="486" y="0" flags="0x4"/>
    </TTGlyph>
    <TTGlyph name="Abreve" xMin="51" yMin="0" xMax="1425" yMax="1808">
      <component glyphName="A" x="0" y="0" flags="0x204"/>
      <component glyphName="breve.uc" x="390" y="0" flags="0x4"/>
    </TTGlyph>
    <TTGlyph name="Abreveacute" xMin="51" yMin="0" xMax="1425" yMax="1835">
      <component glyphName="A" x="0" y="0" flags="0x204"/>
      <component glyphName="breveacute" x="739" y="0" flags="0x4"/>
    </TTGlyph>
    <TTGlyph name="Abrevedotbelow" xMin="51" yMin="-366" xMax="1425" yMax="1808">
      <component glyphName="A" x="0" y="0" flags="0x204"/>
      <component glyphName="dotbelow.alt1" x="950" y="0" flags="0x4"/>
      <component glyphName="breve.uc" x="390" y="0" flags="0x4"/>
    </TTGlyph>
    <TTGlyph name="Abrevegrave" xMin="51" yMin="0" xMax="1425" yMax="1835">
      <component glyphName="A" x="0" y="0" flags="0x204"/>
      <component glyphName="brevegrave" x="739" y="0" flags="0x4"/>
    </TTGlyph>
    <TTGlyph name="Abrevehookabove" xMin="51" yMin="0" xMax="1425" yMax="1835">
      <component glyphName="A" x="0" y="0" flags="0x204"/>
      <component glyphName="brevehook" x="739" y="0" flags="0x4"/>
    </TTGlyph>
    <TTGlyph name="Abrevetilde" xMin="51" yMin="0" xMax="1425" yMax="1835">
      <component glyphName="A" x="0" y="0" flags="0x204"/>
      <component glyphName="brevetilde" x="739" y="0" flags="0x4"/>
    </TTGlyph>
    <TTGlyph name="Acircumflex" xMin="51" yMin="0" xMax="1425" yMax="1835">
      <component glyphName="A" x="0" y="0" flags="0x204"/>
      <component glyphName="circumflex.uc" x="397" y="0" flags="0x4"/>
    </TTGlyph>
    <TTGlyph name="Acircumflexacute" xMin="51" yMin="0" xMax="1425" yMax="1835">
      <component glyphName="A" x="0" y="0" flags="0x204"/>
      <component glyphName="circumflexacute" x="735" y="0" flags="0x4"/>
    </TTGlyph>
    <TTGlyph name="Acircumflexdotbelow" xMin="51" yMin="-366" xMax="1425" yMax="1835">
      <component glyphName="A" x="0" y="0" flags="0x204"/>
      <component glyphName="circumflex.uc" x="398" y="0" flags="0x4"/>
      <component glyphName="dotbelow.alt1" x="950" y="0" flags="0x4"/>
    </TTGlyph>
    <TTGlyph name="Acircumflexgrave" xMin="51" yMin="0" xMax="1425" yMax="1835">
      <component glyphName="A" x="0" y="0" flags="0x204"/>
      <component glyphName="circumflexgrave" x="739" y="0" flags="0x4"/>
    </TTGlyph>
    <TTGlyph name="Acircumflexhookabove" xMin="51" yMin="0" xMax="1425" yMax="1835">
      <component glyphName="A" x="0" y="0" flags="0x204"/>
      <component glyphName="circumflexhook" x="739" y="0" flags="0x4"/>
    </TTGlyph>
    <TTGlyph name="Acircumflextilde" xMin="51" yMin="0" xMax="1425" yMax="1835">
      <component glyphName="A" x="0" y="0" flags="0x204"/>
      <component glyphName="circumflextilde" x="739" y="0" flags="0x4"/>
    </TTGlyph>
    <TTGlyph name="Adieresis" xMin="51" yMin="0" xMax="1425" yMax="1749">
      <component glyphName="A" x="0" y="0" flags="0x204"/>
      <component glyphName="dieresis.uc" x="399" y="0" flags="0x4"/>
    </TTGlyph>
    <TTGlyph name="Adotbelow" xMin="51" yMin="-366" xMax="1425" yMax="1409">
      <component glyphName="A" x="0" y="0" flags="0x204"/>
      <component glyphName="dotbelow.alt1" x="950" y="0" flags="0x4"/>
    </TTGlyph>
    <TTGlyph name="Agrave" xMin="51" yMin="0" xMax="1425" yMax="1815">
      <component glyphName="A" x="0" y="0" flags="0x204"/>
      <component glyphName="grave.uc" x="342" y="0" flags="0x4"/>
    </TTGlyph>
    <TTGlyph name="Ahookabove" xMin="51" yMin="0" xMax="1425" yMax="1835">
      <component glyphName="A" x="0" y="0" flags="0x204"/>
      <component glyphName="hookabovecomb" x="1027" y="0" flags="0x4"/>
    </TTGlyph>
    <TTGlyph name="Alpha" xMin="51" yMin="0" xMax="1425" yMax="1409">
      <component glyphName="A" x="0" y="0" flags="0x204"/>
    </TTGlyph>
    <TTGlyph name="Alphatonos" xMin="36" yMin="0" xMax="1425" yMax="1410">
      <component glyphName="A" x="0" y="0" flags="0x4"/>
      <component glyphName="tonos" x="-149" y="-98" flags="0x4"/>
    </TTGlyph>
    <TTGlyph name="Amacron" xMin="51" yMin="0" xMax="1425" yMax="1705">
      <component glyphName="A" x="0" y="0" flags="0x204"/>
      <component glyphName="macron" x="396" y="334" flags="0x4"/>
    </TTGlyph>
    <TTGlyph name="Aogonek" xMin="51" yMin="-414" xMax="1425" yMax="1409">
      <component glyphName="A" x="0" y="0" flags="0x204"/>
      <component glyphName="ogonek" x="949" y="11" flags="0x4"/>
    </TTGlyph>
    <TTGlyph name="Aring" xMin="51" yMin="0" xMax="1425" yMax="1806">
      <component glyphName="A" x="0" y="0" flags="0x204"/>
      <component glyphName="ring" x="446" y="162" flags="0x4"/>
    </TTGlyph>
    <TTGlyph name="Aringacute" xMin="51" yMin="0" xMax="1425" yMax="2116">
      <component glyphName="A" x="0" y="0" flags="0x204"/>
      <component glyphName="ring" x="446" y="147" flags="0x4"/>
      <component glyphName="acute.uc" x="499" y="301" flags="0x4"/>
    </TTGlyph>
    <TTGlyph name="Atilde" xMin="51" yMin="0" xMax="1425" yMax="1823">
      <component glyphName="A" x="0" y="0" flags="0x204"/>
      <component glyphName="tilde.uc" x="397" y="0" flags="0x4"/>
    </TTGlyph>
    <TTGlyph name="B" xMin="137" yMin="0" xMax="1386" yMax="1409">
      <contour>
        <pt x="1386" y="402" on="1"/>
        <pt x="1386" y="210" on="0"/>
        <pt x="1098" y="0" on="0"/>
        <pt x="842" y="0" on="1"/>
        <pt x="137" y="0" on="1"/>
        <pt x="137" y="1409" on="1"/>
        <pt x="782" y="1409" on="1"/>
        <pt x="1040" y="1409" on="0"/>
        <pt x="1305" y="1230" on="0"/>
        <pt x="1305" y="1055" on="1"/>
        <pt x="1305" y="935" on="0"/>
        <pt x="1172" y="770" on="0"/>
        <pt x="1036" y="741" on="1"/>
        <pt x="1207" y="721" on="0"/>
        <pt x="1386" y="546" on="0"/>
      </contour>
      <contour>
        <pt x="1008" y="1015" on="1"/>
        <pt x="1008" y="1110" on="0"/>
        <pt x="887" y="1190" on="0"/>
        <pt x="768" y="1190" on="1"/>
        <pt x="432" y="1190" on="1"/>
        <pt x="432" y="841" on="1"/>
        <pt x="770" y="841" on="1"/>
        <pt x="895" y="841" on="0"/>
        <pt x="1008" y="928" on="0"/>
      </contour>
      <contour>
        <pt x="1090" y="425" on="1"/>
        <pt x="1090" y="623" on="0"/>
        <pt x="806" y="623" on="1"/>
        <pt x="432" y="623" on="1"/>
        <pt x="432" y="219" on="1"/>
        <pt x="817" y="219" on="1"/>
        <pt x="959" y="219" on="0"/>
        <pt x="1090" y="322" on="0"/>
      </contour>
    </TTGlyph>
    <TTGlyph name="Beta" xMin="137" yMin="0" xMax="1386" yMax="1409">
      <component glyphName="B" x="0" y="0" flags="0x204"/>
    </TTGlyph>
    <TTGlyph name="C" xMin="84" yMin="-20" xMax="1423" yMax="1430">
      <contour>
        <pt x="795" y="212" on="1"/>
        <pt x="1062" y="212" on="0"/>
        <pt x="1166" y="480" on="1"/>
        <pt x="1423" y="383" on="1"/>
        <pt x="1340" y="179" on="0"/>
        <pt x="1019" y="-20" on="0"/>
        <pt x="795" y="-20" on="1"/>
        <pt x="455" y="-20" on="0"/>
        <pt x="84" y="365" on="0"/>
        <pt x="84" y="711" on="1"/>
        <pt x="84" y="1058" on="0"/>
        <pt x="442" y="1430" on="0"/>
        <pt x="782" y="1430" on="1"/>
        <pt x="1030" y="1430" on="0"/>
        <pt x="1342" y="1231" on="0"/>
        <pt x="1405" y="1038" on="1"/>
        <pt x="1145" y="967" on="1"/>
        <pt x="1112" y="1073" on="0"/>
        <pt x="919" y="1198" on="0"/>
        <pt x="788" y="1198" on="1"/>
        <pt x="588" y="1198" on="0"/>
        <pt x="381" y="950" on="0"/>
        <pt x="381" y="711" on="1"/>
        <pt x="381" y="468" on="0"/>
        <pt x="594" y="212" on="0"/>
      </contour>
    </TTGlyph>
    <TTGlyph name="Cacute" xMin="84" yMin="-20" xMax="1423" yMax="1815">
      <component glyphName="C" x="0" y="0" flags="0x204"/>
      <component glyphName="acute.uc" x="565" y="0" flags="0x4"/>
    </TTGlyph>
    <TTGlyph name="Ccaron" xMin="84" yMin="-20" xMax="1423" yMax="1835">
      <component glyphName="C" x="0" y="0" flags="0x204"/>
      <component glyphName="caron.uc" x="440" y="0" flags="0x4"/>
    </TTGlyph>
    <TTGlyph name="Ccedilla" xMin="84" yMin="-425" xMax="1423" yMax="1430">
      <component glyphName="C" x="0" y="0" flags="0x204"/>
      <component glyphName="cedilla" x="489" y="0" flags="0x4"/>
    </TTGlyph>
    <TTGlyph name="Ccircumflex" xMin="84" yMin="-20" xMax="1423" yMax="1835">
      <component glyphName="C" x="0" y="0" flags="0x204"/>
      <component glyphName="circumflex.uc" x="460" y="0" flags="0x4"/>
    </TTGlyph>
    <TTGlyph name="Cdotaccent" xMin="84" yMin="-20" xMax="1423" yMax="1754">
      <component glyphName="C" x="0" y="0" flags="0x204"/>
      <component glyphName="dotaccent" x="446" y="270" flags="0x4"/>
    </TTGlyph>
    <TTGlyph name="Chi" xMin="18" yMin="0" xMax="1348" yMax="1409">
      <component glyphName="X" x="0" y="0" flags="0x204"/>
    </TTGlyph>
    <TTGlyph name="D" xMin="137" yMin="0" xMax="1393" yMax="1409">
      <contour>
        <pt x="1393" y="715" on="1"/>
        <pt x="1393" y="497" on="0"/>
        <pt x="1222" y="172" on="0"/>
        <pt x="909" y="0" on="0"/>
        <pt x="707" y="0" on="1"/>
        <pt x="137" y="0" on="1"/>
        <pt x="137" y="1409" on="1"/>
        <pt x="647" y="1409" on="1"/>
        <pt x="1003" y="1409" on="0"/>
        <pt x="1393" y="1050" on="0"/>
      </contour>
      <contour>
        <pt x="1096" y="715" on="1"/>
        <pt x="1096" y="942" on="0"/>
        <pt x="860" y="1181" on="0"/>
        <pt x="641" y="1181" on="1"/>
        <pt x="432" y="1181" on="1"/>
        <pt x="432" y="228" on="1"/>
        <pt x="682" y="228" on="1"/>
        <pt x="872" y="228" on="0"/>
        <pt x="1096" y="490" on="0"/>
      </contour>
    </TTGlyph>
    <TTGlyph name="Dcaron" xMin="137" yMin="0" xMax="1393" yMax="1835">
      <component glyphName="D" x="0" y="0" flags="0x204"/>
      <component glyphName="caron.uc" x="358" y="0" flags="0x4"/>
    </TTGlyph>
    <TTGlyph name="Dcroat" xMin="8" yMin="0" xMax="1393" yMax="1409">
      <component glyphName="Eth" x="0" y="0" flags="0x4"/>
    </TTGlyph>
    <TTGlyph name="Delta" xMin="83" yMin="0" xMax="1388" yMax="1409">
      <contour>
        <pt x="567" y="1409" on="1"/>
        <pt x="912" y="1408" on="1"/>
        <pt x="1388" y="226" on="1"/>
        <pt x="1388" y="0" on="1"/>
        <pt x="83" y="0" on="1"/>
        <pt x="84" y="226" on="1"/>
      </contour>
      <contour>
        <pt x="1086" y="244" on="1"/>
        <pt x="820" y="942" on="1"/>
        <pt x="763" y="1097" on="0"/>
        <pt x="737" y="1189" on="1"/>
        <pt x="736" y="1183" on="0"/>
        <pt x="725" y="1146" on="0"/>
        <pt x="689" y="1036" on="0"/>
        <pt x="631" y="877" on="0"/>
        <pt x="391" y="244" on="1"/>
      </contour>
    </TTGlyph>
    <TTGlyph name="E" xMin="137" yMin="0" xMax="1286" yMax="1409">
      <contour>
        <pt x="137" y="0" on="1"/>
        <pt x="137" y="1409" on="1"/>
        <pt x="1245" y="1409" on="1"/>
        <pt x="1245" y="1181" on="1"/>
        <pt x="432" y="1181" on="1"/>
        <pt x="432" y="827" on="1"/>
        <pt x="1184" y="827" on="1"/>
        <pt x="1184" y="599" on="1"/>
        <pt x="432" y="599" on="1"/>
        <pt x="432" y="228" on="1"/>
        <pt x="1286" y="228" on="1"/>
        <pt x="1286" y="0" on="1"/>
      </contour>
    </TTGlyph>
    <TTGlyph name="Eacute" xMin="137" yMin="0" xMax="1286" yMax="1815">
      <component glyphName="E" x="0" y="0" flags="0x204"/>
      <component glyphName="acute.uc" x="430" y="0" flags="0x4"/>
    </TTGlyph>
    <TTGlyph name="Ebreve" xMin="137" yMin="0" xMax="1286" yMax="1808">
      <component glyphName="E" x="0" y="0" flags="0x204"/>
      <component glyphName="breve.uc" x="353" y="0" flags="0x4"/>
    </TTGlyph>
    <TTGlyph name="Ecaron" xMin="137" yMin="0" xMax="1286" yMax="1835">
      <component glyphName="E" x="0" y="0" flags="0x204"/>
      <component glyphName="caron.uc" x="367" y="0" flags="0x4"/>
    </TTGlyph>
    <TTGlyph name="Ecircumflex" xMin="137" yMin="0" xMax="1286" yMax="1835">
      <component glyphName="E" x="0" y="0" flags="0x204"/>
      <component glyphName="circumflex.uc" x="371" y="0" flags="0x4"/>
    </TTGlyph>
    <TTGlyph name="Ecircumflexacute" xMin="137" yMin="0" xMax="1286" yMax="1835">
      <component glyphName="E" x="0" y="0" flags="0x204"/>
      <component glyphName="circumflexacute" x="722" y="0" flags="0x4"/>
    </TTGlyph>
    <TTGlyph name="Ecircumflexdotbelow" xMin="137" yMin="-366" xMax="1286" yMax="1835">
      <component glyphName="E" x="0" y="0" flags="0x204"/>
      <component glyphName="circumflex.uc" x="380" y="0" flags="0x4"/>
      <component glyphName="dotbelow.alt1" x="940" y="0" flags="0x4"/>
    </TTGlyph>
    <TTGlyph name="Ecircumflexgrave" xMin="137" yMin="0" xMax="1286" yMax="1835">
      <component glyphName="E" x="0" y="0" flags="0x204"/>
      <component glyphName="circumflexgrave" x="713" y="0" flags="0x4"/>
    </TTGlyph>
    <TTGlyph name="Ecircumflexhookabove" xMin="137" yMin="0" xMax="1286" yMax="1835">
      <component glyphName="E" x="0" y="0" flags="0x204"/>
      <component glyphName="circumflexhook" x="714" y="0" flags="0x4"/>
    </TTGlyph>
    <TTGlyph name="Ecircumflextilde" xMin="137" yMin="0" xMax="1286" yMax="1835">
      <component glyphName="E" x="0" y="0" flags="0x204"/>
      <component glyphName="circumflextilde" x="718" y="0" flags="0x4"/>
    </TTGlyph>
    <TTGlyph name="Edieresis" xMin="137" yMin="0" xMax="1286" yMax="1749">
      <component glyphName="E" x="0" y="0" flags="0x204"/>
      <component glyphName="dieresis.uc" x="371" y="0" flags="0x4"/>
    </TTGlyph>
    <TTGlyph name="Edotaccent" xMin="137" yMin="0" xMax="1286" yMax="1754">
      <component glyphName="E" x="0" y="0" flags="0x204"/>
      <component glyphName="dotaccent" x="365" y="270" flags="0x4"/>
    </TTGlyph>
    <TTGlyph name="Edotbelow" xMin="137" yMin="-366" xMax="1286" yMax="1409">
      <component glyphName="E" x="0" y="0" flags="0x204"/>
      <component glyphName="dotbelow.alt1" x="940" y="0" flags="0x4"/>
    </TTGlyph>
    <TTGlyph name="Egrave" xMin="137" yMin="0" xMax="1286" yMax="1815">
      <component glyphName="E" x="0" y="0" flags="0x204"/>
      <component glyphName="grave.uc" x="309" y="0" flags="0x4"/>
    </TTGlyph>
    <TTGlyph name="Ehookabove" xMin="137" yMin="0" xMax="1286" yMax="1835">
      <component glyphName="E" x="0" y="0" flags="0x204"/>
      <component glyphName="hookabovecomb" x="992" y="0" flags="0x4"/>
    </TTGlyph>
    <TTGlyph name="Emacron" xMin="137" yMin="0" xMax="1286" yMax="1705">
      <component glyphName="E" x="0" y="0" flags="0x204"/>
      <component glyphName="macron" x="350" y="334" flags="0x4"/>
    </TTGlyph>
    <TTGlyph name="Eng" xMin="133" yMin="-20" xMax="1355" yMax="1429">
      <contour>
        <pt x="904" y="-20" on="1"/>
        <pt x="772" y="-20" on="0"/>
        <pt x="593" y="59" on="0"/>
        <pt x="519" y="158" on="1"/>
        <pt x="721" y="329" on="1"/>
        <pt x="773" y="261" on="0"/>
        <pt x="855" y="212" on="0"/>
        <pt x="902" y="212" on="1"/>
        <pt x="965" y="212" on="0"/>
        <pt x="1039" y="277" on="0"/>
        <pt x="1071" y="413" on="0"/>
        <pt x="1071" y="553" on="1"/>
        <pt x="1071" y="848" on="1"/>
        <pt x="1071" y="1034" on="0"/>
        <pt x="943" y="1200" on="0"/>
        <pt x="798" y="1200" on="1"/>
        <pt x="701" y="1200" on="0"/>
        <pt x="531" y="1102" on="0"/>
        <pt x="432" y="934" on="0"/>
        <pt x="432" y="839" on="1"/>
        <pt x="432" y="0" on="1"/>
        <pt x="137" y="0" on="1"/>
        <pt x="137" y="1092" on="1"/>
        <pt x="133" y="1409" on="1"/>
        <pt x="421" y="1409" on="1"/>
        <pt x="432" y="1288" on="0"/>
        <pt x="432" y="1158" on="1"/>
        <pt x="436" y="1158" on="1"/>
        <pt x="502" y="1285" on="0"/>
        <pt x="758" y="1429" on="0"/>
        <pt x="914" y="1429" on="1"/>
        <pt x="1147" y="1429" on="0"/>
        <pt x="1355" y="1171" on="0"/>
        <pt x="1355" y="889" on="1"/>
        <pt x="1355" y="542" on="1"/>
        <pt x="1355" y="242" on="0"/>
        <pt x="1138" y="-20" on="0"/>
      </contour>
    </TTGlyph>
    <TTGlyph name="Eng.alt1" xMin="157" yMin="-425" xMax="1384" yMax="1430">
      <contour>
        <pt x="1384" y="-18" on="1"/>
        <pt x="1384" y="-425" on="0"/>
        <pt x="983" y="-425" on="1"/>
        <pt x="895" y="-425" on="0"/>
        <pt x="787" y="-406" on="1"/>
        <pt x="787" y="-196" on="1"/>
        <pt x="866" y="-207" on="0"/>
        <pt x="914" y="-207" on="1"/>
        <pt x="1014" y="-207" on="0"/>
        <pt x="1093" y="-95" on="0"/>
        <pt x="1093" y="32" on="1"/>
        <pt x="1093" y="893" on="1"/>
        <pt x="1093" y="1056" on="0"/>
        <pt x="948" y="1198" on="0"/>
        <pt x="779" y="1198" on="1"/>
        <pt x="628" y="1198" on="0"/>
        <pt x="448" y="1041" on="0"/>
        <pt x="448" y="912" on="1"/>
        <pt x="448" y="0" on="1"/>
        <pt x="157" y="0" on="1"/>
        <pt x="157" y="1409" on="1"/>
        <pt x="429" y="1409" on="1"/>
        <pt x="429" y="1243" on="1"/>
        <pt x="495" y="1334" on="0"/>
        <pt x="717" y="1430" on="0"/>
        <pt x="858" y="1430" on="1"/>
        <pt x="1100" y="1430" on="0"/>
        <pt x="1384" y="1158" on="0"/>
        <pt x="1384" y="925" on="1"/>
      </contour>
    </TTGlyph>
    <TTGlyph name="Eng.alt2" xMin="137" yMin="-425" xMax="1341" yMax="1409">
      <contour>
        <pt x="1054" y="-425" on="1"/>
        <pt x="954" y="-425" on="0"/>
        <pt x="884" y="-416" on="1"/>
        <pt x="884" y="-218" on="1"/>
        <pt x="935" y="-222" on="1"/>
        <pt x="1007" y="-222" on="0"/>
        <pt x="1060" y="-159" on="0"/>
        <pt x="1060" y="-60" on="1"/>
        <pt x="1060" y="-10" on="1"/>
        <pt x="381" y="1085" on="1"/>
        <pt x="399" y="927" on="0"/>
        <pt x="399" y="831" on="1"/>
        <pt x="399" y="0" on="1"/>
        <pt x="137" y="0" on="1"/>
        <pt x="137" y="1409" on="1"/>
        <pt x="474" y="1409" on="1"/>
        <pt x="1097" y="394" on="1"/>
        <pt x="1079" y="545" on="0"/>
        <pt x="1079" y="669" on="1"/>
        <pt x="1079" y="1409" on="1"/>
        <pt x="1341" y="1409" on="1"/>
        <pt x="1341" y="-128" on="1"/>
        <pt x="1341" y="-271" on="0"/>
        <pt x="1196" y="-425" on="0"/>
      </contour>
    </TTGlyph>
    <TTGlyph name="Eng.alt3" xMin="157" yMin="-13" xMax="1384" yMax="1430">
      <contour>
        <pt x="448" y="485" on="1"/>
        <pt x="459" y="346" on="0"/>
        <pt x="609" y="218" on="0"/>
        <pt x="768" y="218" on="1"/>
        <pt x="925" y="218" on="0"/>
        <pt x="1093" y="468" on="0"/>
        <pt x="1093" y="705" on="1"/>
        <pt x="1093" y="823" on="1"/>
        <pt x="1093" y="1031" on="0"/>
        <pt x="949" y="1198" on="0"/>
        <pt x="779" y="1198" on="1"/>
        <pt x="628" y="1198" on="0"/>
        <pt x="448" y="1041" on="0"/>
        <pt x="448" y="912" on="1"/>
        <pt x="448" y="700" on="1"/>
        <pt x="157" y="700" on="1"/>
        <pt x="157" y="1409" on="1"/>
        <pt x="429" y="1409" on="1"/>
        <pt x="429" y="1243" on="1"/>
        <pt x="495" y="1334" on="0"/>
        <pt x="717" y="1430" on="0"/>
        <pt x="858" y="1430" on="1"/>
        <pt x="1384" y="1430" on="0"/>
        <pt x="1384" y="817" on="1"/>
        <pt x="1384" y="705" on="1"/>
        <pt x="1384" y="350" on="0"/>
        <pt x="1073" y="-13" on="0"/>
        <pt x="768" y="-13" on="1"/>
        <pt x="479" y="-13" on="0"/>
        <pt x="167" y="239" on="0"/>
        <pt x="157" y="485" on="1"/>
      </contour>
    </TTGlyph>
    <TTGlyph name="Eogonek" xMin="137" yMin="-425" xMax="1286" yMax="1409">
      <component glyphName="E" x="0" y="0" flags="0x204"/>
      <component glyphName="ogonek" x="749" y="0" flags="0x4"/>
    </TTGlyph>
    <TTGlyph name="Epsilon" xMin="137" yMin="0" xMax="1286" yMax="1409">
      <component glyphName="E" x="0" y="0" flags="0x204"/>
    </TTGlyph>
    <TTGlyph name="Epsilontonos" xMin="46" yMin="0" xMax="1667" yMax="1410">
      <component glyphName="E" x="381" y="0" flags="0x4"/>
      <component glyphName="tonos" x="-139" y="-98" flags="0x4"/>
    </TTGlyph>
    <TTGlyph name="Eta" xMin="137" yMin="0" xMax="1341" yMax="1409">
      <component glyphName="H" x="0" y="0" flags="0x204"/>
    </TTGlyph>
    <TTGlyph name="Etatonos" xMin="36" yMin="0" xMax="1717" yMax="1410">
      <component glyphName="H" x="376" y="0" flags="0x4"/>
      <component glyphName="tonos" x="-149" y="-98" flags="0x4"/>
    </TTGlyph>
    <TTGlyph name="Eth" xMin="8" yMin="0" xMax="1393" yMax="1409">
      <contour>
        <pt x="1393" y="715" on="1"/>
        <pt x="1393" y="497" on="0"/>
        <pt x="1222" y="172" on="0"/>
        <pt x="909" y="0" on="0"/>
        <pt x="707" y="0" on="1"/>
        <pt x="137" y="0" on="1"/>
        <pt x="137" y="594" on="1"/>
        <pt x="8" y="594" on="1"/>
        <pt x="8" y="813" on="1"/>
        <pt x="137" y="813" on="1"/>
        <pt x="137" y="1409" on="1"/>
        <pt x="647" y="1409" on="1"/>
        <pt x="1003" y="1409" on="0"/>
        <pt x="1393" y="1050" on="0"/>
      </contour>
      <contour>
        <pt x="1096" y="715" on="1"/>
        <pt x="1096" y="940" on="0"/>
        <pt x="862" y="1178" on="0"/>
        <pt x="641" y="1178" on="1"/>
        <pt x="432" y="1178" on="1"/>
        <pt x="432" y="813" on="1"/>
        <pt x="788" y="813" on="1"/>
        <pt x="788" y="594" on="1"/>
        <pt x="432" y="594" on="1"/>
        <pt x="432" y="231" on="1"/>
        <pt x="682" y="231" on="1"/>
        <pt x="873" y="231" on="0"/>
        <pt x="1096" y="490" on="0"/>
      </contour>
    </TTGlyph>
    <TTGlyph name="Etilde" xMin="137" yMin="0" xMax="1286" yMax="1818">
      <component glyphName="E" x="0" y="0" flags="0x204"/>
      <component glyphName="tilde" x="340" y="342" flags="0x4"/>
    </TTGlyph>
    <TTGlyph name="Euro" xMin="10" yMin="-20" xMax="1103" yMax="1430">
      <contour>
        <pt x="658" y="199" on="1"/>
        <pt x="730" y="199" on="0"/>
        <pt x="816" y="291" on="0"/>
        <pt x="826" y="373" on="1"/>
        <pt x="1103" y="357" on="1"/>
        <pt x="1072" y="169" on="0"/>
        <pt x="843" y="-20" on="0"/>
        <pt x="654" y="-20" on="1"/>
        <pt x="428" y="-20" on="0"/>
        <pt x="168" y="246" on="0"/>
        <pt x="139" y="510" on="1"/>
        <pt x="10" y="510" on="1"/>
        <pt x="50" y="659" on="1"/>
        <pt x="127" y="659" on="1"/>
        <pt x="125" y="710" on="1"/>
        <pt x="127" y="766" on="1"/>
        <pt x="10" y="766" on="1"/>
        <pt x="50" y="915" on="1"/>
        <pt x="137" y="915" on="1"/>
        <pt x="200" y="1430" on="0"/>
        <pt x="654" y="1430" on="1"/>
        <pt x="836" y="1430" on="0"/>
        <pt x="1064" y="1242" on="0"/>
        <pt x="1093" y="1071" on="1"/>
        <pt x="813" y="1055" on="1"/>
        <pt x="803" y="1129" on="0"/>
        <pt x="719" y="1211" on="0"/>
        <pt x="645" y="1211" on="1"/>
        <pt x="546" y="1211" on="0"/>
        <pt x="441" y="1069" on="0"/>
        <pt x="426" y="915" on="1"/>
        <pt x="753" y="915" on="1"/>
        <pt x="724" y="766" on="1"/>
        <pt x="421" y="766" on="1"/>
        <pt x="419" y="710" on="1"/>
        <pt x="422" y="659" on="1"/>
        <pt x="762" y="659" on="1"/>
        <pt x="732" y="510" on="1"/>
        <pt x="428" y="510" on="1"/>
        <pt x="456" y="199" on="0"/>
      </contour>
    </TTGlyph>
    <TTGlyph name="F" xMin="137" yMin="0" xMax="1176" yMax="1409">
      <contour>
        <pt x="432" y="1181" on="1"/>
        <pt x="432" y="745" on="1"/>
        <pt x="1153" y="745" on="1"/>
        <pt x="1153" y="517" on="1"/>
        <pt x="432" y="517" on="1"/>
        <pt x="432" y="0" on="1"/>
        <pt x="137" y="0" on="1"/>
        <pt x="137" y="1409" on="1"/>
        <pt x="1176" y="1409" on="1"/>
        <pt x="1176" y="1181" on="1"/>
      </contour>
    </TTGlyph>
    <TTGlyph name="G" xMin="84" yMin="-20" xMax="1466" yMax="1430">
      <contour>
        <pt x="806" y="211" on="1"/>
        <pt x="921" y="211" on="0"/>
        <pt x="1137" y="278" on="0"/>
        <pt x="1196" y="330" on="1"/>
        <pt x="1196" y="525" on="1"/>
        <pt x="852" y="525" on="1"/>
        <pt x="852" y="743" on="1"/>
        <pt x="1466" y="743" on="1"/>
        <pt x="1466" y="225" on="1"/>
        <pt x="1354" y="110" on="0"/>
        <pt x="995" y="-20" on="0"/>
        <pt x="798" y="-20" on="1"/>
        <pt x="454" y="-20" on="0"/>
        <pt x="84" y="361" on="0"/>
        <pt x="84" y="711" on="1"/>
        <pt x="84" y="1059" on="0"/>
        <pt x="456" y="1430" on="0"/>
        <pt x="805" y="1430" on="1"/>
        <pt x="1301" y="1430" on="0"/>
        <pt x="1436" y="1063" on="1"/>
        <pt x="1164" y="981" on="1"/>
        <pt x="1120" y="1088" on="0"/>
        <pt x="932" y="1198" on="0"/>
        <pt x="805" y="1198" on="1"/>
        <pt x="597" y="1198" on="0"/>
        <pt x="381" y="946" on="0"/>
        <pt x="381" y="711" on="1"/>
        <pt x="381" y="472" on="0"/>
        <pt x="604" y="211" on="0"/>
      </contour>
    </TTGlyph>
    <TTGlyph name="Gamma" xMin="137" yMin="1" xMax="1198" yMax="1409">
      <contour>
        <pt x="1198" y="1409" on="1"/>
        <pt x="1198" y="1181" on="1"/>
        <pt x="432" y="1181" on="1"/>
        <pt x="432" y="1" on="1"/>
        <pt x="137" y="1" on="1"/>
        <pt x="137" y="1409" on="1"/>
      </contour>
    </TTGlyph>
    <TTGlyph name="Gbreve" xMin="84" yMin="-20" xMax="1466" yMax="1808">
      <component glyphName="G" x="0" y="0" flags="0x204"/>
      <component glyphName="breve.uc" x="461" y="0" flags="0x4"/>
    </TTGlyph>
    <TTGlyph name="Gcircumflex" xMin="84" yMin="-20" xMax="1466" yMax="1835">
      <component glyphName="G" x="0" y="0" flags="0x204"/>
      <component glyphName="circumflex.uc" x="455" y="0" flags="0x4"/>
    </TTGlyph>
    <TTGlyph name="Gcommaaccent" xMin="84" yMin="-455" xMax="1466" yMax="1430">
      <component glyphName="G" x="0" y="0" flags="0x204"/>
      <component glyphName="commaaccent" x="590" y="0" flags="0x4"/>
    </TTGlyph>
    <TTGlyph name="Gdotaccent" xMin="84" yMin="-20" xMax="1466" yMax="1754">
      <component glyphName="G" x="0" y="0" flags="0x204"/>
      <component glyphName="dotaccent" x="467" y="270" flags="0x4"/>
    </TTGlyph>
    <TTGlyph name="H" xMin="137" yMin="0" xMax="1341" yMax="1409">
      <contour>
        <pt x="1046" y="0" on="1"/>
        <pt x="1046" y="604" on="1"/>
        <pt x="432" y="604" on="1"/>
        <pt x="432" y="0" on="1"/>
        <pt x="137" y="0" on="1"/>
        <pt x="137" y="1409" on="1"/>
        <pt x="432" y="1409" on="1"/>
        <pt x="432" y="848" on="1"/>
        <pt x="1046" y="848" on="1"/>
        <pt x="1046" y="1409" on="1"/>
        <pt x="1341" y="1409" on="1"/>
        <pt x="1341" y="0" on="1"/>
      </contour>
    </TTGlyph>
    <TTGlyph name="Hbar" xMin="14" yMin="0" xMax="1465" yMax="1409">
      <contour>
        <pt x="1057" y="0" on="1"/>
        <pt x="1057" y="604" on="1"/>
        <pt x="432" y="604" on="1"/>
        <pt x="432" y="0" on="1"/>
        <pt x="137" y="0" on="1"/>
        <pt x="137" y="1045" on="1"/>
        <pt x="14" y="1045" on="1"/>
        <pt x="14" y="1215" on="1"/>
        <pt x="137" y="1215" on="1"/>
        <pt x="137" y="1409" on="1"/>
        <pt x="432" y="1409" on="1"/>
        <pt x="432" y="1215" on="1"/>
        <pt x="1057" y="1215" on="1"/>
        <pt x="1057" y="1409" on="1"/>
        <pt x="1341" y="1409" on="1"/>
        <pt x="1341" y="1215" on="1"/>
        <pt x="1465" y="1215" on="1"/>
        <pt x="1465" y="1045" on="1"/>
        <pt x="1341" y="1045" on="1"/>
        <pt x="1341" y="0" on="1"/>
      </contour>
      <contour>
        <pt x="1057" y="848" on="1"/>
        <pt x="1057" y="1045" on="1"/>
        <pt x="432" y="1045" on="1"/>
        <pt x="432" y="848" on="1"/>
      </contour>
    </TTGlyph>
    <TTGlyph name="Hcircumflex" xMin="137" yMin="0" xMax="1341" yMax="1835">
      <component glyphName="H" x="0" y="0" flags="0x204"/>
      <component glyphName="circumflex.uc" x="403" y="0" flags="0x4"/>
    </TTGlyph>
    <TTGlyph name="I" xMin="137" yMin="0" xMax="432" yMax="1409">
      <contour>
        <pt x="137" y="0" on="1"/>
        <pt x="137" y="1409" on="1"/>
        <pt x="432" y="1409" on="1"/>
        <pt x="432" y="0" on="1"/>
      </contour>
    </TTGlyph>
    <TTGlyph name="IJ" xMin="137" yMin="-20" xMax="1467" yMax="1409">
      <component glyphName="I" x="0" y="0" flags="0x4"/>
      <component glyphName="J" x="468" y="0" flags="0x4"/>
    </TTGlyph>
    <TTGlyph name="Iacute" xMin="104" yMin="0" xMax="614" yMax="1815">
      <component glyphName="I" x="0" y="0" flags="0x204"/>
      <component glyphName="acute.uc" x="17" y="0" flags="0x4"/>
    </TTGlyph>
    <TTGlyph name="Ibreve" xMin="-68" yMin="0" xMax="640" yMax="1808">
      <component glyphName="I" x="0" y="0" flags="0x204"/>
      <component glyphName="breve.uc" x="-63" y="0" flags="0x4"/>
    </TTGlyph>
    <TTGlyph name="Icircumflex" xMin="-85" yMin="0" xMax="652" yMax="1835">
      <component glyphName="I" x="0" y="0" flags="0x204"/>
      <component glyphName="circumflex.uc" x="-58" y="0" flags="0x4"/>
    </TTGlyph>
    <TTGlyph name="Idieresis" xMin="-41" yMin="0" xMax="610" yMax="1749">
      <component glyphName="I" x="0" y="0" flags="0x204"/>
      <component glyphName="dieresis.uc" x="-56" y="0" flags="0x4"/>
    </TTGlyph>
    <TTGlyph name="Idotaccent" xMin="137" yMin="0" xMax="432" yMax="1754">
      <component glyphName="I" x="0" y="0" flags="0x204"/>
      <component glyphName="dotaccent" x="-54" y="270" flags="0x4"/>
    </TTGlyph>
    <TTGlyph name="Idotbelow" xMin="137" yMin="-366" xMax="432" yMax="1409">
      <component glyphName="I" x="0" y="0" flags="0x204"/>
      <component glyphName="dotbelow.alt1" x="495" y="0" flags="0x4"/>
    </TTGlyph>
    <TTGlyph name="Igrave" xMin="-40" yMin="0" xMax="469" yMax="1815">
      <component glyphName="I" x="0" y="0" flags="0x204"/>
      <component glyphName="grave.uc" x="-127" y="0" flags="0x4"/>
    </TTGlyph>
    <TTGlyph name="Ihookabove" xMin="81" yMin="0" xMax="537" yMax="1835">
      <component glyphName="I" x="0" y="0" flags="0x204"/>
      <component glyphName="hookabovecomb" x="578" y="0" flags="0x4"/>
    </TTGlyph>
    <TTGlyph name="Imacron" xMin="-20" yMin="0" xMax="592" yMax="1705">
      <component glyphName="I" x="0" y="0" flags="0x204"/>
      <component glyphName="macron" x="-56" y="334" flags="0x4"/>
    </TTGlyph>
    <TTGlyph name="Iogonek" xMin="88" yMin="-425" xMax="476" yMax="1409">
      <component glyphName="I" x="0" y="0" flags="0x204"/>
      <component glyphName="ogonek" x="12" y="0" flags="0x4"/>
    </TTGlyph>
    <TTGlyph name="Iota" xMin="137" yMin="0" xMax="432" yMax="1409">
      <component glyphName="I" x="0" y="0" flags="0x204"/>
    </TTGlyph>
    <TTGlyph name="Iotadieresis" xMin="-41" yMin="0" xMax="610" yMax="1749">
      <component glyphName="I" x="0" y="0" flags="0x204"/>
      <component glyphName="dieresis.uc" x="-56" y="0" flags="0x4"/>
    </TTGlyph>
    <TTGlyph name="Iotatonos" xMin="36" yMin="0" xMax="833" yMax="1410">
      <component glyphName="I" x="401" y="0" flags="0x4"/>
      <component glyphName="tonos" x="-149" y="-98" flags="0x4"/>
    </TTGlyph>
    <TTGlyph name="Itilde" xMin="-103" yMin="0" xMax="677" yMax="1823">
      <component glyphName="I" x="0" y="0" flags="0x204"/>
      <component glyphName="tilde.uc" x="-54" y="0" flags="0x4"/>
    </TTGlyph>
    <TTGlyph name="J" xMin="31" yMin="-20" xMax="999" yMax="1409">
      <contour>
        <pt x="524" y="-20" on="1"/>
        <pt x="305" y="-20" on="0"/>
        <pt x="70" y="170" on="0"/>
        <pt x="31" y="382" on="1"/>
        <pt x="324" y="425" on="1"/>
        <pt x="342" y="316" on="0"/>
        <pt x="440" y="211" on="0"/>
        <pt x="526" y="211" on="1"/>
        <pt x="614" y="211" on="0"/>
        <pt x="705" y="329" on="0"/>
        <pt x="705" y="439" on="1"/>
        <pt x="705" y="1178" on="1"/>
        <pt x="424" y="1178" on="1"/>
        <pt x="424" y="1409" on="1"/>
        <pt x="999" y="1409" on="1"/>
        <pt x="999" y="446" on="1"/>
        <pt x="999" y="226" on="0"/>
        <pt x="749" y="-20" on="0"/>
      </contour>
    </TTGlyph>
    <TTGlyph name="Jcircumflex" xMin="31" yMin="-20" xMax="1058" yMax="1835">
      <component glyphName="J" x="0" y="0" flags="0x204"/>
      <component glyphName="circumflex.uc" x="348" y="0" flags="0x4"/>
    </TTGlyph>
    <TTGlyph name="K" xMin="137" yMin="0" xMax="1460" yMax="1409">
      <contour>
        <pt x="1112" y="0" on="1"/>
        <pt x="606" y="647" on="1"/>
        <pt x="432" y="514" on="1"/>
        <pt x="432" y="0" on="1"/>
        <pt x="137" y="0" on="1"/>
        <pt x="137" y="1409" on="1"/>
        <pt x="432" y="1409" on="1"/>
        <pt x="432" y="770" on="1"/>
        <pt x="1067" y="1409" on="1"/>
        <pt x="1411" y="1409" on="1"/>
        <pt x="809" y="813" on="1"/>
        <pt x="1460" y="0" on="1"/>
      </contour>
    </TTGlyph>
    <TTGlyph name="Kappa" xMin="137" yMin="0" xMax="1460" yMax="1409">
      <component glyphName="K" x="0" y="0" flags="0x204"/>
    </TTGlyph>
    <TTGlyph name="Kcommaaccent" xMin="137" yMin="-455" xMax="1460" yMax="1409">
      <component glyphName="K" x="0" y="0" flags="0x204"/>
      <component glyphName="commaaccent" x="527" y="0" flags="0x4"/>
    </TTGlyph>
    <TTGlyph name="L" xMin="137" yMin="0" xMax="1188" yMax="1409">
      <contour>
        <pt x="137" y="0" on="1"/>
        <pt x="137" y="1409" on="1"/>
        <pt x="432" y="1409" on="1"/>
        <pt x="432" y="228" on="1"/>
        <pt x="1188" y="228" on="1"/>
        <pt x="1188" y="0" on="1"/>
      </contour>
    </TTGlyph>
    <TTGlyph name="Lacute" xMin="137" yMin="0" xMax="1188" yMax="1815">
      <component glyphName="L" x="0" y="0" flags="0x204"/>
      <component glyphName="acute.uc" x="173" y="0" flags="0x4"/>
    </TTGlyph>
    <TTGlyph name="Lambda" xMin="14" yMin="1" xMax="1352" yMax="1410">
      <contour>
        <pt x="1352" y="1" on="1"/>
        <pt x="1047" y="1" on="1"/>
        <pt x="758" y="886" on="1"/>
        <pt x="715" y="1035" on="0"/>
        <pt x="686" y="1152" on="1"/>
        <pt x="660" y="1052" on="0"/>
        <pt x="611" y="880" on="0"/>
        <pt x="322" y="1" on="1"/>
        <pt x="14" y="1" on="1"/>
        <pt x="535" y="1410" on="1"/>
        <pt x="834" y="1410" on="1"/>
      </contour>
    </TTGlyph>
    <TTGlyph name="Lcaron" xMin="137" yMin="0" xMax="1188" yMax="1409">
      <component glyphName="L" x="0" y="0" flags="0x4"/>
      <component glyphName="caroncommaaccent" x="626" y="0" flags="0x4"/>
    </TTGlyph>
    <TTGlyph name="Lcommaaccent" xMin="137" yMin="-455" xMax="1188" yMax="1409">
      <component glyphName="L" x="0" y="0" flags="0x204"/>
      <component glyphName="commaaccent" x="409" y="0" flags="0x4"/>
    </TTGlyph>
    <TTGlyph name="Ldot" xMin="137" yMin="0" xMax="1188" yMax="1409">
      <component glyphName="L" x="0" y="0" flags="0x204"/>
      <component glyphName="dotaccent" x="469" y="-626" flags="0x4"/>
    </TTGlyph>
    <TTGlyph name="Lslash" xMin="0" yMin="0" xMax="1188" yMax="1409">
      <contour>
        <pt x="137" y="0" on="1"/>
        <pt x="137" y="483" on="1"/>
        <pt x="0" y="418" on="1"/>
        <pt x="0" y="643" on="1"/>
        <pt x="137" y="709" on="1"/>
        <pt x="137" y="1409" on="1"/>
        <pt x="432" y="1409" on="1"/>
        <pt x="432" y="850" on="1"/>
        <pt x="739" y="997" on="1"/>
        <pt x="739" y="774" on="1"/>
        <pt x="432" y="627" on="1"/>
        <pt x="432" y="231" on="1"/>
        <pt x="1188" y="231" on="1"/>
        <pt x="1188" y="0" on="1"/>
      </contour>
    </TTGlyph>
    <TTGlyph name="M" xMin="137" yMin="0" xMax="1569" yMax="1409">
      <contour>
        <pt x="1307" y="0" on="1"/>
        <pt x="1307" y="854" on="1"/>
        <pt x="1307" y="883" on="0"/>
        <pt x="1308" y="941" on="0"/>
        <pt x="1317" y="1161" on="1"/>
        <pt x="1246" y="892" on="0"/>
        <pt x="1212" y="786" on="1"/>
        <pt x="958" y="0" on="1"/>
        <pt x="748" y="0" on="1"/>
        <pt x="494" y="786" on="1"/>
        <pt x="387" y="1161" on="1"/>
        <pt x="399" y="929" on="0"/>
        <pt x="399" y="854" on="1"/>
        <pt x="399" y="0" on="1"/>
        <pt x="137" y="0" on="1"/>
        <pt x="137" y="1409" on="1"/>
        <pt x="532" y="1409" on="1"/>
        <pt x="784" y="621" on="1"/>
        <pt x="806" y="545" on="1"/>
        <pt x="854" y="356" on="1"/>
        <pt x="917" y="582" on="1"/>
        <pt x="1176" y="1409" on="1"/>
        <pt x="1569" y="1409" on="1"/>
        <pt x="1569" y="0" on="1"/>
      </contour>
    </TTGlyph>
    <TTGlyph name="Mu" xMin="137" yMin="0" xMax="1569" yMax="1409">
      <component glyphName="M" x="0" y="0" flags="0x204"/>
    </TTGlyph>
    <TTGlyph name="N" xMin="137" yMin="0" xMax="1341" yMax="1409">
      <contour>
        <pt x="995" y="0" on="1"/>
        <pt x="381" y="1085" on="1"/>
        <pt x="399" y="927" on="0"/>
        <pt x="399" y="831" on="1"/>
        <pt x="399" y="0" on="1"/>
        <pt x="137" y="0" on="1"/>
        <pt x="137" y="1409" on="1"/>
        <pt x="474" y="1409" on="1"/>
        <pt x="1097" y="315" on="1"/>
        <pt x="1079" y="466" on="0"/>
        <pt x="1079" y="590" on="1"/>
        <pt x="1079" y="1409" on="1"/>
        <pt x="1341" y="1409" on="1"/>
        <pt x="1341" y="0" on="1"/>
      </contour>
    </TTGlyph>
    <TTGlyph name="Nacute" xMin="137" yMin="0" xMax="1341" yMax="1815">
      <component glyphName="N" x="0" y="0" flags="0x204"/>
      <component glyphName="acute.uc" x="487" y="0" flags="0x4"/>
    </TTGlyph>
    <TTGlyph name="Ncaron" xMin="137" yMin="0" xMax="1341" yMax="1835">
      <component glyphName="N" x="0" y="0" flags="0x204"/>
      <component glyphName="caron.uc" x="392" y="0" flags="0x4"/>
    </TTGlyph>
    <TTGlyph name="Ncommaaccent" xMin="137" yMin="-455" xMax="1341" yMax="1409">
      <component glyphName="N" x="0" y="0" flags="0x204"/>
      <component glyphName="commaaccent" x="508" y="0" flags="0x4"/>
    </TTGlyph>
    <TTGlyph name="Ntilde" xMin="137" yMin="0" xMax="1341" yMax="1823">
      <component glyphName="N" x="0" y="0" flags="0x204"/>
      <component glyphName="tilde.uc" x="398" y="0" flags="0x4"/>
    </TTGlyph>
    <TTGlyph name="Nu" xMin="137" yMin="0" xMax="1341" yMax="1409">
      <component glyphName="N" x="0" y="0" flags="0x204"/>
    </TTGlyph>
    <TTGlyph name="O" xMin="84" yMin="-20" xMax="1507" yMax="1430">
      <contour>
        <pt x="1507" y="711" on="1"/>
        <pt x="1507" y="491" on="0"/>
        <pt x="1333" y="157" on="0"/>
        <pt x="1009" y="-20" on="0"/>
        <pt x="793" y="-20" on="1"/>
        <pt x="461" y="-20" on="0"/>
        <pt x="84" y="371" on="0"/>
        <pt x="84" y="711" on="1"/>
        <pt x="84" y="1050" on="0"/>
        <pt x="460" y="1430" on="0"/>
        <pt x="795" y="1430" on="1"/>
        <pt x="1130" y="1430" on="0"/>
        <pt x="1507" y="1046" on="0"/>
      </contour>
      <contour>
        <pt x="1206" y="711" on="1"/>
        <pt x="1206" y="939" on="0"/>
        <pt x="990" y="1198" on="0"/>
        <pt x="795" y="1198" on="1"/>
        <pt x="597" y="1198" on="0"/>
        <pt x="381" y="941" on="0"/>
        <pt x="381" y="711" on="1"/>
        <pt x="381" y="479" on="0"/>
        <pt x="602" y="212" on="0"/>
        <pt x="793" y="212" on="1"/>
        <pt x="991" y="212" on="0"/>
        <pt x="1206" y="472" on="0"/>
      </contour>
    </TTGlyph>
    <TTGlyph name="OE" xMin="84" yMin="-10" xMax="1968" yMax="1420">
      <contour>
        <pt x="992" y="0" on="1"/>
        <pt x="954" y="-2" on="0"/>
        <pt x="847" y="-10" on="0"/>
        <pt x="793" y="-10" on="1"/>
        <pt x="459" y="-10" on="0"/>
        <pt x="84" y="373" on="0"/>
        <pt x="84" y="711" on="1"/>
        <pt x="84" y="1049" on="0"/>
        <pt x="459" y="1420" on="0"/>
        <pt x="795" y="1420" on="1"/>
        <pt x="866" y="1420" on="0"/>
        <pt x="998" y="1409" on="1"/>
        <pt x="1927" y="1409" on="1"/>
        <pt x="1927" y="1182" on="1"/>
        <pt x="1260" y="1182" on="1"/>
        <pt x="1260" y="827" on="1"/>
        <pt x="1866" y="827" on="1"/>
        <pt x="1866" y="606" on="1"/>
        <pt x="1260" y="606" on="1"/>
        <pt x="1260" y="227" on="1"/>
        <pt x="1968" y="227" on="1"/>
        <pt x="1968" y="0" on="1"/>
      </contour>
      <contour>
        <pt x="963" y="1169" on="1"/>
        <pt x="892" y="1188" on="0"/>
        <pt x="795" y="1188" on="1"/>
        <pt x="595" y="1188" on="0"/>
        <pt x="381" y="939" on="0"/>
        <pt x="381" y="711" on="1"/>
        <pt x="381" y="482" on="0"/>
        <pt x="600" y="222" on="0"/>
        <pt x="793" y="222" on="1"/>
        <pt x="909" y="222" on="0"/>
        <pt x="963" y="242" on="1"/>
      </contour>
    </TTGlyph>
    <TTGlyph name="Oacute" xMin="84" yMin="-20" xMax="1507" yMax="1815">
      <component glyphName="O" x="0" y="0" flags="0x204"/>
      <component glyphName="acute.uc" x="538" y="0" flags="0x4"/>
    </TTGlyph>
    <TTGlyph name="Obreve" xMin="84" yMin="-20" xMax="1507" yMax="1808">
      <component glyphName="O" x="0" y="0" flags="0x204"/>
      <component glyphName="breve.uc" x="437" y="0" flags="0x4"/>
    </TTGlyph>
    <TTGlyph name="Ocircumflex" xMin="84" yMin="-20" xMax="1507" yMax="1835">
      <component glyphName="O" x="0" y="0" flags="0x204"/>
      <component glyphName="circumflex.uc" x="453" y="0" flags="0x4"/>
    </TTGlyph>
    <TTGlyph name="Ocircumflexacute" xMin="84" yMin="-20" xMax="1507" yMax="1835">
      <component glyphName="O" x="0" y="0" flags="0x204"/>
      <component glyphName="circumflexacute" x="796" y="0" flags="0x4"/>
    </TTGlyph>
    <TTGlyph name="Ocircumflexdotbelow" xMin="84" yMin="-366" xMax="1507" yMax="1835">
      <component glyphName="O" x="0" y="0" flags="0x204"/>
      <component glyphName="dotbelow.alt1" x="1007" y="0" flags="0x4"/>
      <component glyphName="circumflex.uc" x="455" y="0" flags="0x4"/>
    </TTGlyph>
    <TTGlyph name="Ocircumflexgrave" xMin="84" yMin="-20" xMax="1507" yMax="1835">
      <component glyphName="O" x="0" y="0" flags="0x204"/>
      <component glyphName="circumflexgrave" x="796" y="0" flags="0x4"/>
    </TTGlyph>
    <TTGlyph name="Ocircumflexhookabove" xMin="84" yMin="-20" xMax="1507" yMax="1835">
      <component glyphName="O" x="0" y="0" flags="0x204"/>
      <component glyphName="circumflexhook" x="796" y="0" flags="0x4"/>
    </TTGlyph>
    <TTGlyph name="Ocircumflextilde" xMin="84" yMin="-20" xMax="1507" yMax="1835">
      <component glyphName="O" x="0" y="0" flags="0x204"/>
      <component glyphName="circumflextilde" x="796" y="0" flags="0x4"/>
    </TTGlyph>
    <TTGlyph name="Odieresis" xMin="84" yMin="-20" xMax="1507" yMax="1749">
      <component glyphName="O" x="0" y="0" flags="0x204"/>
      <component glyphName="dieresis.uc" x="454" y="0" flags="0x4"/>
    </TTGlyph>
    <TTGlyph name="Odotbelow" xMin="84" yMin="-366" xMax="1507" yMax="1430">
      <component glyphName="O" x="0" y="0" flags="0x204"/>
      <component glyphName="dotbelow.alt1" x="1007" y="0" flags="0x4"/>
    </TTGlyph>
    <TTGlyph name="Ograve" xMin="84" yMin="-20" xMax="1507" yMax="1815">
      <component glyphName="O" x="0" y="0" flags="0x204"/>
      <component glyphName="grave.uc" x="460" y="0" flags="0x4"/>
    </TTGlyph>
    <TTGlyph name="Ohm" xMin="85" yMin="0" xMax="1488" yMax="1430">
      <contour>
        <pt x="787" y="1430" on="1"/>
        <pt x="1102" y="1430" on="0"/>
        <pt x="1460" y="1108" on="0"/>
        <pt x="1460" y="828" on="1"/>
        <pt x="1460" y="615" on="0"/>
        <pt x="1255" y="314" on="0"/>
        <pt x="1049" y="217" on="1"/>
        <pt x="1159" y="228" on="0"/>
        <pt x="1220" y="228" on="1"/>
        <pt x="1488" y="228" on="1"/>
        <pt x="1488" y="0" on="1"/>
        <pt x="859" y="0" on="1"/>
        <pt x="859" y="309" on="1"/>
        <pt x="1017" y="387" on="0"/>
        <pt x="1168" y="611" on="0"/>
        <pt x="1168" y="774" on="1"/>
        <pt x="1168" y="976" on="0"/>
        <pt x="969" y="1198" on="0"/>
        <pt x="788" y="1198" on="1"/>
        <pt x="608" y="1198" on="0"/>
        <pt x="408" y="977" on="0"/>
        <pt x="408" y="774" on="1"/>
        <pt x="408" y="608" on="0"/>
        <pt x="565" y="385" on="0"/>
        <pt x="721" y="309" on="1"/>
        <pt x="721" y="0" on="1"/>
        <pt x="85" y="0" on="1"/>
        <pt x="85" y="228" on="1"/>
        <pt x="355" y="228" on="1"/>
        <pt x="419" y="228" on="0"/>
        <pt x="529" y="217" on="1"/>
        <pt x="320" y="313" on="0"/>
        <pt x="113" y="614" on="0"/>
        <pt x="113" y="829" on="1"/>
        <pt x="113" y="1110" on="0"/>
        <pt x="472" y="1430" on="0"/>
      </contour>
    </TTGlyph>
    <TTGlyph name="Ohookabove" xMin="84" yMin="-20" xMax="1507" yMax="1835">
      <component glyphName="O" x="0" y="0" flags="0x204"/>
      <component glyphName="hookabovecomb" x="1096" y="0" flags="0x4"/>
    </TTGlyph>
    <TTGlyph name="Ohorn" xMin="84" yMin="-20" xMax="1744" yMax="1430">
      <contour>
        <pt x="1744" y="1199" on="1"/>
        <pt x="1744" y="880" on="0"/>
        <pt x="1503" y="791" on="1"/>
        <pt x="1507" y="711" on="1"/>
        <pt x="1507" y="491" on="0"/>
        <pt x="1333" y="157" on="0"/>
        <pt x="1009" y="-20" on="0"/>
        <pt x="793" y="-20" on="1"/>
        <pt x="461" y="-20" on="0"/>
        <pt x="84" y="371" on="0"/>
        <pt x="84" y="711" on="1"/>
        <pt x="84" y="1050" on="0"/>
        <pt x="460" y="1430" on="0"/>
        <pt x="795" y="1430" on="1"/>
        <pt x="1068" y="1430" on="0"/>
        <pt x="1428" y="1168" on="0"/>
        <pt x="1483" y="927" on="1"/>
        <pt x="1606" y="990" on="0"/>
        <pt x="1606" y="1149" on="1"/>
        <pt x="1481" y="1149" on="1"/>
        <pt x="1481" y="1409" on="1"/>
        <pt x="1744" y="1409" on="1"/>
      </contour>
      <contour>
        <pt x="1206" y="711" on="1"/>
        <pt x="1206" y="939" on="0"/>
        <pt x="990" y="1198" on="0"/>
        <pt x="795" y="1198" on="1"/>
        <pt x="597" y="1198" on="0"/>
        <pt x="381" y="941" on="0"/>
        <pt x="381" y="711" on="1"/>
        <pt x="381" y="479" on="0"/>
        <pt x="602" y="212" on="0"/>
        <pt x="793" y="212" on="1"/>
        <pt x="991" y="212" on="0"/>
        <pt x="1206" y="472" on="0"/>
      </contour>
    </TTGlyph>
    <TTGlyph name="Ohornacute" xMin="84" yMin="-20" xMax="1744" yMax="1815">
      <component glyphName="Ohorn" x="0" y="0" flags="0x204"/>
      <component glyphName="acute.uc" x="541" y="0" flags="0x4"/>
    </TTGlyph>
    <TTGlyph name="Ohorndotbelow" xMin="84" yMin="-366" xMax="1744" yMax="1430">
      <component glyphName="Ohorn" x="0" y="0" flags="0x204"/>
      <component glyphName="dotbelow.alt1" x="1007" y="0" flags="0x4"/>
    </TTGlyph>
    <TTGlyph name="Ohorngrave" xMin="84" yMin="-20" xMax="1744" yMax="1815">
      <component glyphName="Ohorn" x="0" y="0" flags="0x204"/>
      <component glyphName="grave.uc" x="380" y="0" flags="0x4"/>
    </TTGlyph>
    <TTGlyph name="Ohornhookabove" xMin="84" yMin="-20" xMax="1744" yMax="1835">
      <component glyphName="Ohorn" x="0" y="0" flags="0x204"/>
      <component glyphName="hookabovecomb" x="1097" y="0" flags="0x4"/>
    </TTGlyph>
    <TTGlyph name="Ohorntilde" xMin="84" yMin="-20" xMax="1744" yMax="1823">
      <component glyphName="Ohorn" x="0" y="0" flags="0x204"/>
      <component glyphName="tilde.uc" x="456" y="0" flags="0x4"/>
    </TTGlyph>
    <TTGlyph name="Ohungarumlaut" xMin="84" yMin="-20" xMax="1507" yMax="1816">
      <component glyphName="O" x="0" y="0" flags="0x204"/>
      <component glyphName="hungarumlaut.uc" x="561" y="0" flags="0x4"/>
    </TTGlyph>
    <TTGlyph name="Omacron" xMin="84" yMin="-20" xMax="1507" yMax="1705">
      <component glyphName="O" x="0" y="0" flags="0x204"/>
      <component glyphName="macron" x="454" y="334" flags="0x4"/>
    </TTGlyph>
    <TTGlyph name="Omega" xMin="83" yMin="0" xMax="1559" yMax="1430">
      <contour>
        <pt x="821" y="1430" on="1"/>
        <pt x="1153" y="1430" on="0"/>
        <pt x="1531" y="1108" on="0"/>
        <pt x="1531" y="828" on="1"/>
        <pt x="1531" y="614" on="0"/>
        <pt x="1319" y="314" on="0"/>
        <pt x="1105" y="217" on="1"/>
        <pt x="1219" y="228" on="0"/>
        <pt x="1283" y="228" on="1"/>
        <pt x="1559" y="228" on="1"/>
        <pt x="1559" y="0" on="1"/>
        <pt x="888" y="0" on="1"/>
        <pt x="888" y="309" on="1"/>
        <pt x="1069" y="395" on="0"/>
        <pt x="1231" y="626" on="0"/>
        <pt x="1231" y="774" on="1"/>
        <pt x="1231" y="977" on="0"/>
        <pt x="1015" y="1198" on="0"/>
        <pt x="819" y="1198" on="1"/>
        <pt x="624" y="1198" on="0"/>
        <pt x="406" y="978" on="0"/>
        <pt x="406" y="774" on="1"/>
        <pt x="406" y="626" on="0"/>
        <pt x="569" y="395" on="0"/>
        <pt x="750" y="309" on="1"/>
        <pt x="750" y="0" on="1"/>
        <pt x="83" y="0" on="1"/>
        <pt x="83" y="228" on="1"/>
        <pt x="357" y="228" on="1"/>
        <pt x="424" y="228" on="0"/>
        <pt x="534" y="217" on="1"/>
        <pt x="318" y="315" on="0"/>
        <pt x="111" y="616" on="0"/>
        <pt x="111" y="829" on="1"/>
        <pt x="111" y="1110" on="0"/>
        <pt x="489" y="1430" on="0"/>
      </contour>
    </TTGlyph>
    <TTGlyph name="Omegatonos" xMin="-48" yMin="0" xMax="1633" yMax="1430">
      <component glyphName="Omega" x="74" y="0" flags="0x4"/>
      <component glyphName="tonos" x="-233" y="-98" flags="0x4"/>
    </TTGlyph>
    <TTGlyph name="Omicron" xMin="84" yMin="-20" xMax="1507" yMax="1430">
      <component glyphName="O" x="0" y="0" flags="0x204"/>
    </TTGlyph>
    <TTGlyph name="Omicrontonos" xMin="-26" yMin="-20" xMax="1603" yMax="1430">
      <component glyphName="O" x="96" y="0" flags="0x4"/>
      <component glyphName="tonos" x="-211" y="-98" flags="0x4"/>
    </TTGlyph>
    <TTGlyph name="Oslash" xMin="84" yMin="-73" xMax="1508" yMax="1473">
      <contour>
        <pt x="147" y="-73" on="1"/>
        <pt x="301" y="145" on="1"/>
        <pt x="84" y="342" on="0"/>
        <pt x="84" y="711" on="1"/>
        <pt x="84" y="1050" on="0"/>
        <pt x="460" y="1430" on="0"/>
        <pt x="795" y="1430" on="1"/>
        <pt x="993" y="1430" on="0"/>
        <pt x="1149" y="1356" on="1"/>
        <pt x="1231" y="1473" on="1"/>
        <pt x="1424" y="1473" on="1"/>
        <pt x="1282" y="1270" on="1"/>
        <pt x="1394" y="1176" on="0"/>
        <pt x="1508" y="891" on="0"/>
        <pt x="1508" y="711" on="1"/>
        <pt x="1508" y="491" on="0"/>
        <pt x="1334" y="157" on="0"/>
        <pt x="1011" y="-20" on="0"/>
        <pt x="793" y="-20" on="1"/>
        <pt x="581" y="-20" on="0"/>
        <pt x="433" y="57" on="1"/>
        <pt x="342" y="-72" on="1"/>
      </contour>
      <contour>
        <pt x="1207" y="711" on="1"/>
        <pt x="1207" y="914" on="0"/>
        <pt x="1121" y="1038" on="1"/>
        <pt x="580" y="266" on="1"/>
        <pt x="671" y="211" on="0"/>
        <pt x="793" y="211" on="1"/>
        <pt x="992" y="211" on="0"/>
        <pt x="1207" y="472" on="0"/>
      </contour>
      <contour>
        <pt x="381" y="711" on="1"/>
        <pt x="381" y="506" on="0"/>
        <pt x="465" y="379" on="1"/>
        <pt x="1004" y="1147" on="1"/>
        <pt x="912" y="1198" on="0"/>
        <pt x="795" y="1198" on="1"/>
        <pt x="597" y="1198" on="0"/>
        <pt x="381" y="941" on="0"/>
      </contour>
    </TTGlyph>
    <TTGlyph name="Oslashacute" xMin="84" yMin="-73" xMax="1508" yMax="1815">
      <component glyphName="Oslash" x="0" y="0" flags="0x204"/>
      <component glyphName="acute.uc" x="538" y="0" flags="0x4"/>
    </TTGlyph>
    <TTGlyph name="Otilde" xMin="84" yMin="-20" xMax="1507" yMax="1823">
      <component glyphName="O" x="0" y="0" flags="0x204"/>
      <component glyphName="tilde.uc" x="446" y="0" flags="0x4"/>
    </TTGlyph>
    <TTGlyph name="P" xMin="137" yMin="0" xMax="1296" yMax="1409">
      <contour>
        <pt x="1296" y="963" on="1"/>
        <pt x="1296" y="827" on="0"/>
        <pt x="1172" y="613" on="0"/>
        <pt x="941" y="496" on="0"/>
        <pt x="782" y="496" on="1"/>
        <pt x="432" y="496" on="1"/>
        <pt x="432" y="0" on="1"/>
        <pt x="137" y="0" on="1"/>
        <pt x="137" y="1409" on="1"/>
        <pt x="770" y="1409" on="1"/>
        <pt x="1023" y="1409" on="0"/>
        <pt x="1296" y="1176" on="0"/>
      </contour>
      <contour>
        <pt x="999" y="958" on="1"/>
        <pt x="999" y="1180" on="0"/>
        <pt x="737" y="1180" on="1"/>
        <pt x="432" y="1180" on="1"/>
        <pt x="432" y="723" on="1"/>
        <pt x="745" y="723" on="1"/>
        <pt x="867" y="723" on="0"/>
        <pt x="999" y="844" on="0"/>
      </contour>
    </TTGlyph>
    <TTGlyph name="Phi" xMin="63" yMin="-11" xMax="1619" yMax="1419">
      <contour>
        <pt x="1322" y="730" on="1"/>
        <pt x="1322" y="882" on="0"/>
        <pt x="1164" y="1052" on="0"/>
        <pt x="999" y="1052" on="1"/>
        <pt x="980" y="1052" on="1"/>
        <pt x="980" y="397" on="1"/>
        <pt x="1006" y="397" on="1"/>
        <pt x="1158" y="397" on="0"/>
        <pt x="1322" y="569" on="0"/>
      </contour>
      <contour>
        <pt x="702" y="-11" on="1"/>
        <pt x="702" y="188" on="1"/>
        <pt x="648" y="188" on="1"/>
        <pt x="469" y="188" on="0"/>
        <pt x="203" y="325" on="0"/>
        <pt x="63" y="574" on="0"/>
        <pt x="63" y="734" on="1"/>
        <pt x="63" y="985" on="0"/>
        <pt x="373" y="1261" on="0"/>
        <pt x="660" y="1261" on="1"/>
        <pt x="702" y="1261" on="1"/>
        <pt x="702" y="1419" on="1"/>
        <pt x="980" y="1419" on="1"/>
        <pt x="980" y="1261" on="1"/>
        <pt x="1022" y="1261" on="1"/>
        <pt x="1308" y="1261" on="0"/>
        <pt x="1619" y="985" on="0"/>
        <pt x="1619" y="734" on="1"/>
        <pt x="1619" y="573" on="0"/>
        <pt x="1479" y="325" on="0"/>
        <pt x="1213" y="188" on="0"/>
        <pt x="1034" y="188" on="1"/>
        <pt x="980" y="188" on="1"/>
        <pt x="980" y="-11" on="1"/>
      </contour>
      <contour>
        <pt x="360" y="730" on="1"/>
        <pt x="360" y="570" on="0"/>
        <pt x="523" y="397" on="0"/>
        <pt x="676" y="397" on="1"/>
        <pt x="702" y="397" on="1"/>
        <pt x="702" y="1052" on="1"/>
        <pt x="683" y="1052" on="1"/>
        <pt x="518" y="1052" on="0"/>
        <pt x="360" y="882" on="0"/>
      </contour>
    </TTGlyph>
    <TTGlyph name="Pi" xMin="137" yMin="0" xMax="1341" yMax="1409">
      <contour>
        <pt x="1056" y="0" on="1"/>
        <pt x="1056" y="1165" on="1"/>
        <pt x="431" y="1165" on="1"/>
        <pt x="431" y="0" on="1"/>
        <pt x="137" y="0" on="1"/>
        <pt x="137" y="1409" on="1"/>
        <pt x="1341" y="1409" on="1"/>
        <pt x="1341" y="0" on="1"/>
      </contour>
    </TTGlyph>
    <TTGlyph name="Psi" xMin="96" yMin="0" xMax="1561" yMax="1409">
      <contour>
        <pt x="968" y="427" on="1"/>
        <pt x="968" y="0" on="1"/>
        <pt x="689" y="0" on="1"/>
        <pt x="689" y="427" on="1"/>
        <pt x="649" y="427" on="1"/>
        <pt x="369" y="427" on="0"/>
        <pt x="96" y="684" on="0"/>
        <pt x="96" y="946" on="1"/>
        <pt x="96" y="1409" on="1"/>
        <pt x="375" y="1409" on="1"/>
        <pt x="375" y="942" on="1"/>
        <pt x="375" y="785" on="0"/>
        <pt x="516" y="648" on="0"/>
        <pt x="680" y="648" on="1"/>
        <pt x="689" y="648" on="1"/>
        <pt x="689" y="1409" on="1"/>
        <pt x="968" y="1409" on="1"/>
        <pt x="968" y="648" on="1"/>
        <pt x="977" y="648" on="1"/>
        <pt x="1140" y="648" on="0"/>
        <pt x="1282" y="784" on="0"/>
        <pt x="1282" y="942" on="1"/>
        <pt x="1282" y="1409" on="1"/>
        <pt x="1561" y="1409" on="1"/>
        <pt x="1561" y="946" on="1"/>
        <pt x="1561" y="684" on="0"/>
        <pt x="1289" y="427" on="0"/>
        <pt x="1008" y="427" on="1"/>
      </contour>
    </TTGlyph>
    <TTGlyph name="Q" xMin="84" yMin="-403" xMax="1507" yMax="1430">
      <contour>
        <pt x="1507" y="711" on="1"/>
        <pt x="1507" y="429" on="0"/>
        <pt x="1230" y="54" on="0"/>
        <pt x="983" y="4" on="1"/>
        <pt x="1017" y="-95" on="0"/>
        <pt x="1140" y="-183" on="0"/>
        <pt x="1251" y="-183" on="1"/>
        <pt x="1310" y="-183" on="0"/>
        <pt x="1370" y="-173" on="1"/>
        <pt x="1368" y="-375" on="1"/>
        <pt x="1242" y="-403" on="0"/>
        <pt x="1126" y="-403" on="1"/>
        <pt x="963" y="-403" on="0"/>
        <pt x="749" y="-221" on="0"/>
        <pt x="684" y="-10" on="1"/>
        <pt x="399" y="17" on="0"/>
        <pt x="84" y="398" on="0"/>
        <pt x="84" y="711" on="1"/>
        <pt x="84" y="1050" on="0"/>
        <pt x="460" y="1430" on="0"/>
        <pt x="795" y="1430" on="1"/>
        <pt x="1130" y="1430" on="0"/>
        <pt x="1507" y="1046" on="0"/>
      </contour>
      <contour>
        <pt x="1206" y="711" on="1"/>
        <pt x="1206" y="939" on="0"/>
        <pt x="990" y="1198" on="0"/>
        <pt x="795" y="1198" on="1"/>
        <pt x="597" y="1198" on="0"/>
        <pt x="381" y="941" on="0"/>
        <pt x="381" y="711" on="1"/>
        <pt x="381" y="479" on="0"/>
        <pt x="601" y="211" on="0"/>
        <pt x="793" y="211" on="1"/>
        <pt x="991" y="211" on="0"/>
        <pt x="1206" y="471" on="0"/>
      </contour>
    </TTGlyph>
    <TTGlyph name="R" xMin="137" yMin="0" xMax="1437" yMax="1409">
      <contour>
        <pt x="1105" y="0" on="1"/>
        <pt x="778" y="535" on="1"/>
        <pt x="432" y="535" on="1"/>
        <pt x="432" y="0" on="1"/>
        <pt x="137" y="0" on="1"/>
        <pt x="137" y="1409" on="1"/>
        <pt x="841" y="1409" on="1"/>
        <pt x="1093" y="1409" on="0"/>
        <pt x="1367" y="1192" on="0"/>
        <pt x="1367" y="989" on="1"/>
        <pt x="1367" y="841" on="0"/>
        <pt x="1199" y="626" on="0"/>
        <pt x="1056" y="592" on="1"/>
        <pt x="1437" y="0" on="1"/>
      </contour>
      <contour>
        <pt x="1070" y="977" on="1"/>
        <pt x="1070" y="1180" on="0"/>
        <pt x="810" y="1180" on="1"/>
        <pt x="432" y="1180" on="1"/>
        <pt x="432" y="764" on="1"/>
        <pt x="818" y="764" on="1"/>
        <pt x="942" y="764" on="0"/>
        <pt x="1070" y="876" on="0"/>
      </contour>
    </TTGlyph>
    <TTGlyph name="Racute" xMin="137" yMin="0" xMax="1437" yMax="1815">
      <component glyphName="R" x="0" y="0" flags="0x204"/>
      <component glyphName="acute.uc" x="461" y="0" flags="0x4"/>
    </TTGlyph>
    <TTGlyph name="Rcaron" xMin="137" yMin="0" xMax="1437" yMax="1835">
      <component glyphName="R" x="0" y="0" flags="0x204"/>
      <component glyphName="caron.uc" x="358" y="0" flags="0x4"/>
    </TTGlyph>
    <TTGlyph name="Rcommaaccent" xMin="137" yMin="-455" xMax="1437" yMax="1409">
      <component glyphName="R" x="0" y="0" flags="0x204"/>
      <component glyphName="commaaccent" x="517" y="0" flags="0x4"/>
    </TTGlyph>
    <TTGlyph name="Rho" xMin="137" yMin="0" xMax="1296" yMax="1409">
      <component glyphName="P" x="0" y="0" flags="0x204"/>
    </TTGlyph>
    <TTGlyph name="S" xMin="59" yMin="-20" xMax="1286" yMax="1430">
      <contour>
        <pt x="1286" y="406" on="1"/>
        <pt x="1286" y="199" on="0"/>
        <pt x="979" y="-20" on="0"/>
        <pt x="682" y="-20" on="1"/>
        <pt x="411" y="-20" on="0"/>
        <pt x="103" y="172" on="0"/>
        <pt x="59" y="367" on="1"/>
        <pt x="344" y="414" on="1"/>
        <pt x="373" y="302" on="0"/>
        <pt x="541" y="201" on="0"/>
        <pt x="690" y="201" on="1"/>
        <pt x="999" y="201" on="0"/>
        <pt x="999" y="389" on="1"/>
        <pt x="999" y="449" on="0"/>
        <pt x="928" y="527" on="0"/>
        <pt x="799" y="579" on="0"/>
        <pt x="616" y="616" on="1"/>
        <pt x="458" y="653" on="0"/>
        <pt x="334" y="698" on="0"/>
        <pt x="234" y="759" on="0"/>
        <pt x="164" y="845" on="0"/>
        <pt x="125" y="961" on="0"/>
        <pt x="125" y="1036" on="1"/>
        <pt x="125" y="1227" on="0"/>
        <pt x="412" y="1430" on="0"/>
        <pt x="686" y="1430" on="1"/>
        <pt x="948" y="1430" on="0"/>
        <pt x="1211" y="1266" on="0"/>
        <pt x="1249" y="1077" on="1"/>
        <pt x="963" y="1038" on="1"/>
        <pt x="941" y="1129" on="0"/>
        <pt x="806" y="1221" on="0"/>
        <pt x="680" y="1221" on="1"/>
        <pt x="412" y="1221" on="0"/>
        <pt x="412" y="1053" on="1"/>
        <pt x="412" y="998" on="0"/>
        <pt x="469" y="928" on="0"/>
        <pt x="581" y="879" on="0"/>
        <pt x="752" y="842" on="1"/>
        <pt x="955" y="799" on="0"/>
        <pt x="1130" y="726" on="0"/>
        <pt x="1232" y="629" on="0"/>
        <pt x="1286" y="494" on="0"/>
      </contour>
    </TTGlyph>
    <TTGlyph name="Sacute" xMin="59" yMin="-20" xMax="1286" yMax="1815">
      <component glyphName="S" x="0" y="0" flags="0x204"/>
      <component glyphName="acute.uc" x="468" y="0" flags="0x4"/>
    </TTGlyph>
    <TTGlyph name="Scaron" xMin="59" yMin="-20" xMax="1286" yMax="1835">
      <component glyphName="S" x="0" y="0" flags="0x204"/>
      <component glyphName="caron.uc" x="346" y="0" flags="0x4"/>
    </TTGlyph>
    <TTGlyph name="Scedilla" xMin="59" yMin="-425" xMax="1286" yMax="1430">
      <component glyphName="S" x="0" y="0" flags="0x204"/>
      <component glyphName="cedilla" x="422" y="0" flags="0x4"/>
    </TTGlyph>
    <TTGlyph name="Scircumflex" xMin="59" yMin="-20" xMax="1286" yMax="1835">
      <component glyphName="S" x="0" y="0" flags="0x204"/>
      <component glyphName="circumflex.uc" x="369" y="0" flags="0x4"/>
    </TTGlyph>
    <TTGlyph name="Scommaaccent" xMin="59" yMin="-474" xMax="1286" yMax="1430">
      <component glyphName="S" x="0" y="0" flags="0x204"/>
      <component glyphName="commaaccent" x="490" y="-19" flags="0x4"/>
    </TTGlyph>
    <TTGlyph name="Sigma" xMin="90" yMin="0" xMax="1167" yMax="1409">
      <contour>
        <pt x="90" y="0" on="1"/>
        <pt x="90" y="234" on="1"/>
        <pt x="538" y="741" on="1"/>
        <pt x="107" y="1176" on="1"/>
        <pt x="107" y="1409" on="1"/>
        <pt x="1106" y="1409" on="1"/>
        <pt x="1106" y="1181" on="1"/>
        <pt x="409" y="1181" on="1"/>
        <pt x="780" y="808" on="1"/>
        <pt x="780" y="674" on="1"/>
        <pt x="386" y="228" on="1"/>
        <pt x="1167" y="228" on="1"/>
        <pt x="1167" y="0" on="1"/>
      </contour>
    </TTGlyph>
    <TTGlyph name="T" xMin="23" yMin="0" xMax="1229" yMax="1409">
      <contour>
        <pt x="773" y="1181" on="1"/>
        <pt x="773" y="0" on="1"/>
        <pt x="478" y="0" on="1"/>
        <pt x="478" y="1181" on="1"/>
        <pt x="23" y="1181" on="1"/>
        <pt x="23" y="1409" on="1"/>
        <pt x="1229" y="1409" on="1"/>
        <pt x="1229" y="1181" on="1"/>
      </contour>
    </TTGlyph>
    <TTGlyph name="Tau" xMin="23" yMin="0" xMax="1229" yMax="1409">
      <component glyphName="T" x="0" y="0" flags="0x204"/>
    </TTGlyph>
    <TTGlyph name="Tbar" xMin="23" yMin="0" xMax="1229" yMax="1409">
      <contour>
        <pt x="773" y="1181" on="1"/>
        <pt x="773" y="816" on="1"/>
        <pt x="1001" y="816" on="1"/>
        <pt x="1001" y="626" on="1"/>
        <pt x="773" y="626" on="1"/>
        <pt x="773" y="0" on="1"/>
        <pt x="478" y="0" on="1"/>
        <pt x="478" y="626" on="1"/>
        <pt x="251" y="626" on="1"/>
        <pt x="251" y="816" on="1"/>
        <pt x="478" y="816" on="1"/>
        <pt x="478" y="1181" on="1"/>
        <pt x="23" y="1181" on="1"/>
        <pt x="23" y="1409" on="1"/>
        <pt x="1229" y="1409" on="1"/>
        <pt x="1229" y="1181" on="1"/>
      </contour>
    </TTGlyph>
    <TTGlyph name="Tcaron" xMin="23" yMin="0" xMax="1229" yMax="1835">
      <component glyphName="T" x="0" y="0" flags="0x204"/>
      <component glyphName="caron.uc" x="289" y="0" flags="0x4"/>
    </TTGlyph>
    <TTGlyph name="Tcommaaccent" xMin="23" yMin="-425" xMax="1229" yMax="1409">
      <component glyphName="T" x="0" y="0" flags="0x204"/>
      <component glyphName="cedilla" x="350" y="0" flags="0x4"/>
    </TTGlyph>
    <TTGlyph name="Theta" xMin="84" yMin="-20" xMax="1507" yMax="1430">
      <contour>
        <pt x="502" y="827" on="1"/>
        <pt x="1089" y="827" on="1"/>
        <pt x="1089" y="599" on="1"/>
        <pt x="502" y="599" on="1"/>
      </contour>
      <contour>
        <pt x="1507" y="711" on="1"/>
        <pt x="1507" y="491" on="0"/>
        <pt x="1333" y="157" on="0"/>
        <pt x="1009" y="-20" on="0"/>
        <pt x="793" y="-20" on="1"/>
        <pt x="461" y="-20" on="0"/>
        <pt x="84" y="371" on="0"/>
        <pt x="84" y="711" on="1"/>
        <pt x="84" y="1050" on="0"/>
        <pt x="460" y="1430" on="0"/>
        <pt x="795" y="1430" on="1"/>
        <pt x="1130" y="1430" on="0"/>
        <pt x="1507" y="1046" on="0"/>
      </contour>
      <contour>
        <pt x="1206" y="711" on="1"/>
        <pt x="1206" y="939" on="0"/>
        <pt x="990" y="1198" on="0"/>
        <pt x="795" y="1198" on="1"/>
        <pt x="597" y="1198" on="0"/>
        <pt x="381" y="941" on="0"/>
        <pt x="381" y="711" on="1"/>
        <pt x="381" y="479" on="0"/>
        <pt x="602" y="212" on="0"/>
        <pt x="793" y="212" on="1"/>
        <pt x="991" y="212" on="0"/>
        <pt x="1206" y="472" on="0"/>
      </contour>
    </TTGlyph>
    <TTGlyph name="Thorn" xMin="137" yMin="0" xMax="1296" yMax="1409">
      <contour>
        <pt x="1296" y="737" on="1"/>
        <pt x="1296" y="603" on="0"/>
        <pt x="1175" y="397" on="0"/>
        <pt x="942" y="283" on="0"/>
        <pt x="782" y="283" on="1"/>
        <pt x="432" y="283" on="1"/>
        <pt x="432" y="0" on="1"/>
        <pt x="137" y="0" on="1"/>
        <pt x="137" y="1409" on="1"/>
        <pt x="432" y="1409" on="1"/>
        <pt x="432" y="1176" on="1"/>
        <pt x="770" y="1176" on="1"/>
        <pt x="1024" y="1176" on="0"/>
        <pt x="1296" y="949" on="0"/>
      </contour>
      <contour>
        <pt x="999" y="733" on="1"/>
        <pt x="999" y="843" on="0"/>
        <pt x="868" y="967" on="0"/>
        <pt x="737" y="967" on="1"/>
        <pt x="432" y="967" on="1"/>
        <pt x="432" y="492" on="1"/>
        <pt x="745" y="492" on="1"/>
        <pt x="866" y="492" on="0"/>
        <pt x="999" y="619" on="0"/>
      </contour>
    </TTGlyph>
    <TTGlyph name="U" xMin="123" yMin="-20" xMax="1354" yMax="1409">
      <contour>
        <pt x="723" y="-20" on="1"/>
        <pt x="432" y="-20" on="0"/>
        <pt x="123" y="264" on="0"/>
        <pt x="123" y="528" on="1"/>
        <pt x="123" y="1409" on="1"/>
        <pt x="418" y="1409" on="1"/>
        <pt x="418" y="551" on="1"/>
        <pt x="418" y="384" on="0"/>
        <pt x="577" y="211" on="0"/>
        <pt x="731" y="211" on="1"/>
        <pt x="889" y="211" on="0"/>
        <pt x="1059" y="392" on="0"/>
        <pt x="1059" y="561" on="1"/>
        <pt x="1059" y="1409" on="1"/>
        <pt x="1354" y="1409" on="1"/>
        <pt x="1354" y="543" on="1"/>
        <pt x="1354" y="275" on="0"/>
        <pt x="1023" y="-20" on="0"/>
      </contour>
    </TTGlyph>
    <TTGlyph name="Uacute" xMin="123" yMin="-20" xMax="1354" yMax="1815">
      <component glyphName="U" x="0" y="0" flags="0x204"/>
      <component glyphName="acute.uc" x="505" y="0" flags="0x4"/>
    </TTGlyph>
    <TTGlyph name="Ubreve" xMin="123" yMin="-20" xMax="1354" yMax="1808">
      <component glyphName="U" x="0" y="0" flags="0x204"/>
      <component glyphName="breve.uc" x="390" y="0" flags="0x4"/>
    </TTGlyph>
    <TTGlyph name="Ucircumflex" xMin="123" yMin="-20" xMax="1354" yMax="1835">
      <component glyphName="U" x="0" y="0" flags="0x204"/>
      <component glyphName="circumflex.uc" x="395" y="0" flags="0x4"/>
    </TTGlyph>
    <TTGlyph name="Udieresis" xMin="123" yMin="-20" xMax="1354" yMax="1749">
      <component glyphName="U" x="0" y="0" flags="0x204"/>
      <component glyphName="dieresis.uc" x="398" y="0" flags="0x4"/>
    </TTGlyph>
    <TTGlyph name="Udotbelow" xMin="123" yMin="-366" xMax="1354" yMax="1409">
      <component glyphName="U" x="0" y="0" flags="0x204"/>
      <component glyphName="dotbelow.alt1" x="950" y="0" flags="0x4"/>
    </TTGlyph>
    <TTGlyph name="Ugrave" xMin="123" yMin="-20" xMax="1354" yMax="1815">
      <component glyphName="U" x="0" y="0" flags="0x204"/>
      <component glyphName="grave.uc" x="329" y="0" flags="0x4"/>
    </TTGlyph>
    <TTGlyph name="Uhookabove" xMin="123" yMin="-20" xMax="1354" yMax="1835">
      <component glyphName="U" x="0" y="0" flags="0x204"/>
      <component glyphName="hookabovecomb" x="1010" y="0" flags="0x4"/>
    </TTGlyph>
    <TTGlyph name="Uhorn" xMin="123" yMin="-20" xMax="1699" yMax="1409">
      <contour>
        <pt x="715" y="-20" on="1"/>
        <pt x="427" y="-20" on="0"/>
        <pt x="123" y="260" on="0"/>
        <pt x="123" y="528" on="1"/>
        <pt x="123" y="1409" on="1"/>
        <pt x="418" y="1409" on="1"/>
        <pt x="418" y="551" on="1"/>
        <pt x="418" y="211" on="0"/>
        <pt x="723" y="211" on="1"/>
        <pt x="880" y="211" on="0"/>
        <pt x="1044" y="392" on="0"/>
        <pt x="1044" y="561" on="1"/>
        <pt x="1044" y="1409" on="1"/>
        <pt x="1339" y="1409" on="1"/>
        <pt x="1339" y="897" on="1"/>
        <pt x="1446" y="911" on="0"/>
        <pt x="1561" y="1042" on="0"/>
        <pt x="1561" y="1149" on="1"/>
        <pt x="1436" y="1149" on="1"/>
        <pt x="1436" y="1409" on="1"/>
        <pt x="1699" y="1409" on="1"/>
        <pt x="1699" y="1199" on="1"/>
        <pt x="1699" y="1011" on="0"/>
        <pt x="1527" y="790" on="0"/>
        <pt x="1339" y="761" on="1"/>
        <pt x="1339" y="543" on="1"/>
        <pt x="1339" y="274" on="0"/>
        <pt x="1013" y="-20" on="0"/>
      </contour>
    </TTGlyph>
    <TTGlyph name="Uhornacute" xMin="123" yMin="-20" xMax="1699" yMax="1815">
      <component glyphName="Uhorn" x="0" y="0" flags="0x204"/>
      <component glyphName="acute.uc" x="423" y="0" flags="0x4"/>
    </TTGlyph>
    <TTGlyph name="Uhorndotbelow" xMin="123" yMin="-366" xMax="1699" yMax="1409">
      <component glyphName="Uhorn" x="0" y="0" flags="0x204"/>
      <component glyphName="dotbelow.alt1" x="950" y="0" flags="0x4"/>
    </TTGlyph>
    <TTGlyph name="Uhorngrave" xMin="123" yMin="-20" xMax="1699" yMax="1815">
      <component glyphName="Uhorn" x="0" y="0" flags="0x204"/>
      <component glyphName="grave.uc" x="312" y="0" flags="0x4"/>
    </TTGlyph>
    <TTGlyph name="Uhornhookabove" xMin="123" yMin="-20" xMax="1699" yMax="1835">
      <component glyphName="Uhorn" x="0" y="0" flags="0x204"/>
      <component glyphName="hookabovecomb" x="1013" y="0" flags="0x4"/>
    </TTGlyph>
    <TTGlyph name="Uhorntilde" xMin="123" yMin="-20" xMax="1699" yMax="1823">
      <component glyphName="Uhorn" x="0" y="0" flags="0x204"/>
      <component glyphName="tilde.uc" x="400" y="0" flags="0x4"/>
    </TTGlyph>
    <TTGlyph name="Uhungarumlaut" xMin="123" yMin="-20" xMax="1354" yMax="1816">
      <component glyphName="U" x="0" y="0" flags="0x204"/>
      <component glyphName="hungarumlaut.uc" x="475" y="0" flags="0x4"/>
    </TTGlyph>
    <TTGlyph name="Umacron" xMin="123" yMin="-20" xMax="1354" yMax="1700">
      <component glyphName="U" x="0" y="0" flags="0x204"/>
      <component glyphName="macron" x="397" y="329" flags="0x4"/>
    </TTGlyph>
    <TTGlyph name="Uogonek" xMin="123" yMin="-425" xMax="1354" yMax="1409">
      <component glyphName="U" x="0" y="0" flags="0x204"/>
      <component glyphName="ogonek" x="544" y="0" flags="0x4"/>
    </TTGlyph>
    <TTGlyph name="Upsilon" xMin="35" yMin="0" xMax="1333" yMax="1409">
      <component glyphName="Y" x="0" y="0" flags="0x204"/>
    </TTGlyph>
    <TTGlyph name="Upsilondieresis" xMin="35" yMin="0" xMax="1333" yMax="1749">
      <component glyphName="Y" x="0" y="0" flags="0x204"/>
      <component glyphName="dieresis.uc" x="338" y="0" flags="0x4"/>
    </TTGlyph>
    <TTGlyph name="Upsilontonos" xMin="128" yMin="0" xMax="1865" yMax="1410">
      <component glyphName="Y" x="532" y="0" flags="0x4"/>
      <component glyphName="tonos" x="-57" y="-98" flags="0x4"/>
    </TTGlyph>
    <TTGlyph name="Uring" xMin="123" yMin="-20" xMax="1354" yMax="1978">
      <component glyphName="U" x="0" y="0" flags="0x204"/>
      <component glyphName="ring" x="447" y="334" flags="0x4"/>
    </TTGlyph>
    <TTGlyph name="Utilde" xMin="123" yMin="-20" xMax="1354" yMax="1823">
      <component glyphName="U" x="0" y="0" flags="0x204"/>
      <component glyphName="tilde.uc" x="397" y="0" flags="0x4"/>
    </TTGlyph>
    <TTGlyph name="V" xMin="14" yMin="0" xMax="1352" yMax="1409">
      <contour>
        <pt x="834" y="0" on="1"/>
        <pt x="535" y="0" on="1"/>
        <pt x="14" y="1409" on="1"/>
        <pt x="322" y="1409" on="1"/>
        <pt x="612" y="504" on="1"/>
        <pt x="639" y="416" on="0"/>
        <pt x="686" y="238" on="1"/>
        <pt x="707" y="324" on="1"/>
        <pt x="758" y="504" on="1"/>
        <pt x="1047" y="1409" on="1"/>
        <pt x="1352" y="1409" on="1"/>
      </contour>
    </TTGlyph>
    <TTGlyph name="W" xMin="2" yMin="0" xMax="1931" yMax="1409">
      <contour>
        <pt x="1567" y="0" on="1"/>
        <pt x="1217" y="0" on="1"/>
        <pt x="1026" y="815" on="1"/>
        <pt x="991" y="959" on="0"/>
        <pt x="967" y="1116" on="1"/>
        <pt x="943" y="985" on="0"/>
        <pt x="913" y="848" on="0"/>
        <pt x="715" y="0" on="1"/>
        <pt x="365" y="0" on="1"/>
        <pt x="2" y="1409" on="1"/>
        <pt x="301" y="1409" on="1"/>
        <pt x="505" y="499" on="1"/>
        <pt x="551" y="279" on="1"/>
        <pt x="579" y="418" on="0"/>
        <pt x="632" y="671" on="0"/>
        <pt x="805" y="1409" on="1"/>
        <pt x="1135" y="1409" on="1"/>
        <pt x="1313" y="659" on="1"/>
        <pt x="1334" y="575" on="0"/>
        <pt x="1384" y="279" on="1"/>
        <pt x="1409" y="395" on="1"/>
        <pt x="1462" y="625" on="1"/>
        <pt x="1632" y="1409" on="1"/>
        <pt x="1931" y="1409" on="1"/>
      </contour>
    </TTGlyph>
    <TTGlyph name="Wacute" xMin="2" yMin="0" xMax="1931" yMax="1815">
      <component glyphName="W" x="0" y="0" flags="0x204"/>
      <component glyphName="acute.uc" x="736" y="0" flags="0x4"/>
    </TTGlyph>
    <TTGlyph name="Wcircumflex" xMin="2" yMin="0" xMax="1931" yMax="1835">
      <component glyphName="W" x="0" y="0" flags="0x204"/>
      <component glyphName="circumflex.uc" x="627" y="0" flags="0x4"/>
    </TTGlyph>
    <TTGlyph name="Wdieresis" xMin="2" yMin="0" xMax="1931" yMax="1749">
      <component glyphName="W" x="0" y="0" flags="0x204"/>
      <component glyphName="dieresis.uc" x="629" y="0" flags="0x4"/>
    </TTGlyph>
    <TTGlyph name="Wgrave" xMin="2" yMin="0" xMax="1931" yMax="1815">
      <component glyphName="W" x="0" y="0" flags="0x204"/>
      <component glyphName="grave.uc" x="577" y="0" flags="0x4"/>
    </TTGlyph>
    <TTGlyph name="X" xMin="18" yMin="0" xMax="1348" yMax="1409">
      <contour>
        <pt x="1038" y="0" on="1"/>
        <pt x="684" y="561" on="1"/>
        <pt x="330" y="0" on="1"/>
        <pt x="18" y="0" on="1"/>
        <pt x="506" y="741" on="1"/>
        <pt x="59" y="1409" on="1"/>
        <pt x="371" y="1409" on="1"/>
        <pt x="684" y="911" on="1"/>
        <pt x="997" y="1409" on="1"/>
        <pt x="1307" y="1409" on="1"/>
        <pt x="879" y="741" on="1"/>
        <pt x="1348" y="0" on="1"/>
      </contour>
    </TTGlyph>
    <TTGlyph name="Xi" xMin="84" yMin="0" xMax="1235" yMax="1409">
      <contour>
        <pt x="119" y="1409" on="1"/>
        <pt x="1200" y="1409" on="1"/>
        <pt x="1200" y="1181" on="1"/>
        <pt x="119" y="1181" on="1"/>
      </contour>
      <contour>
        <pt x="1235" y="228" on="1"/>
        <pt x="1235" y="0" on="1"/>
        <pt x="84" y="0" on="1"/>
        <pt x="84" y="228" on="1"/>
      </contour>
      <contour>
        <pt x="1080" y="827" on="1"/>
        <pt x="1080" y="599" on="1"/>
        <pt x="239" y="599" on="1"/>
        <pt x="239" y="827" on="1"/>
      </contour>
    </TTGlyph>
    <TTGlyph name="Y" xMin="35" yMin="0" xMax="1333" yMax="1409">
      <contour>
        <pt x="831" y="578" on="1"/>
        <pt x="831" y="0" on="1"/>
        <pt x="537" y="0" on="1"/>
        <pt x="537" y="578" on="1"/>
        <pt x="35" y="1409" on="1"/>
        <pt x="344" y="1409" on="1"/>
        <pt x="682" y="813" on="1"/>
        <pt x="1024" y="1409" on="1"/>
        <pt x="1333" y="1409" on="1"/>
      </contour>
    </TTGlyph>
    <TTGlyph name="Yacute" xMin="35" yMin="0" xMax="1333" yMax="1815">
      <component glyphName="Y" x="0" y="0" flags="0x204"/>
      <component glyphName="acute.uc" x="437" y="0" flags="0x4"/>
    </TTGlyph>
    <TTGlyph name="Ycircumflex" xMin="35" yMin="0" xMax="1333" yMax="1835">
      <component glyphName="Y" x="0" y="0" flags="0x204"/>
      <component glyphName="circumflex.uc" x="343" y="0" flags="0x4"/>
    </TTGlyph>
    <TTGlyph name="Ydieresis" xMin="35" yMin="0" xMax="1333" yMax="1749">
      <component glyphName="Y" x="0" y="0" flags="0x204"/>
      <component glyphName="dieresis.uc" x="338" y="0" flags="0x4"/>
    </TTGlyph>
    <TTGlyph name="Ydotbelow" xMin="35" yMin="-366" xMax="1333" yMax="1409">
      <component glyphName="Y" x="0" y="0" flags="0x204"/>
      <component glyphName="dotbelow.alt1" x="894" y="0" flags="0x4"/>
    </TTGlyph>
    <TTGlyph name="Ygrave" xMin="35" yMin="0" xMax="1333" yMax="1815">
      <component glyphName="Y" x="0" y="0" flags="0x204"/>
      <component glyphName="grave.uc" x="290" y="0" flags="0x4"/>
    </TTGlyph>
    <TTGlyph name="Yhookabove" xMin="35" yMin="0" xMax="1333" yMax="1835">
      <component glyphName="Y" x="0" y="0" flags="0x204"/>
      <component glyphName="hookabovecomb" x="967" y="0" flags="0x4"/>
    </TTGlyph>
    <TTGlyph name="Ytilde" xMin="35" yMin="0" xMax="1333" yMax="1823">
      <component glyphName="Y" x="0" y="0" flags="0x204"/>
      <component glyphName="tilde.uc" x="342" y="0" flags="0x4"/>
    </TTGlyph>
    <TTGlyph name="Z" xMin="61" yMin="0" xMax="1192" yMax="1409">
      <contour>
        <pt x="1192" y="0" on="1"/>
        <pt x="61" y="0" on="1"/>
        <pt x="61" y="209" on="1"/>
        <pt x="823" y="1178" on="1"/>
        <pt x="137" y="1178" on="1"/>
        <pt x="137" y="1409" on="1"/>
        <pt x="1151" y="1409" on="1"/>
        <pt x="1151" y="1204" on="1"/>
        <pt x="389" y="231" on="1"/>
        <pt x="1192" y="231" on="1"/>
      </contour>
    </TTGlyph>
    <TTGlyph name="Zacute" xMin="61" yMin="0" xMax="1192" yMax="1815">
      <component glyphName="Z" x="0" y="0" flags="0x204"/>
      <component glyphName="acute.uc" x="386" y="0" flags="0x4"/>
    </TTGlyph>
    <TTGlyph name="Zcaron" xMin="61" yMin="0" xMax="1192" yMax="1835">
      <component glyphName="Z" x="0" y="0" flags="0x204"/>
      <component glyphName="caron.uc" x="301" y="0" flags="0x4"/>
    </TTGlyph>
    <TTGlyph name="Zdotaccent" xMin="61" yMin="0" xMax="1192" yMax="1754">
      <component glyphName="Z" x="0" y="0" flags="0x204"/>
      <component glyphName="dotaccent" x="296" y="270" flags="0x4"/>
    </TTGlyph>
    <TTGlyph name="Zeta" xMin="61" yMin="0" xMax="1192" yMax="1409">
      <component glyphName="Z" x="0" y="0" flags="0x204"/>
    </TTGlyph>
    <TTGlyph name="a" xMin="60" yMin="-20" xMax="1152" yMax="1102">
      <contour>
        <pt x="393" y="-20" on="1"/>
        <pt x="236" y="-20" on="0"/>
        <pt x="60" y="151" on="0"/>
        <pt x="60" y="306" on="1"/>
        <pt x="60" y="474" on="0"/>
        <pt x="279" y="650" on="0"/>
        <pt x="487" y="652" on="1"/>
        <pt x="720" y="656" on="1"/>
        <pt x="720" y="711" on="1"/>
        <pt x="720" y="817" on="0"/>
        <pt x="646" y="920" on="0"/>
        <pt x="562" y="920" on="1"/>
        <pt x="484" y="920" on="0"/>
        <pt x="411" y="849" on="0"/>
        <pt x="402" y="767" on="1"/>
        <pt x="109" y="781" on="1"/>
        <pt x="136" y="939" on="0"/>
        <pt x="371" y="1102" on="0"/>
        <pt x="574" y="1102" on="1"/>
        <pt x="779" y="1102" on="0"/>
        <pt x="1001" y="900" on="0"/>
        <pt x="1001" y="714" on="1"/>
        <pt x="1001" y="320" on="1"/>
        <pt x="1001" y="229" on="0"/>
        <pt x="1042" y="160" on="0"/>
        <pt x="1090" y="160" on="1"/>
        <pt x="1122" y="160" on="0"/>
        <pt x="1152" y="166" on="1"/>
        <pt x="1152" y="14" on="1"/>
        <pt x="1127" y="8" on="0"/>
        <pt x="1087" y="-2" on="0"/>
        <pt x="1047" y="-8" on="0"/>
        <pt x="1002" y="-12" on="0"/>
        <pt x="972" y="-12" on="1"/>
        <pt x="866" y="-12" on="0"/>
        <pt x="765" y="92" on="0"/>
        <pt x="755" y="193" on="1"/>
        <pt x="749" y="193" on="1"/>
        <pt x="631" y="-20" on="0"/>
      </contour>
      <contour>
        <pt x="720" y="501" on="1"/>
        <pt x="576" y="499" on="1"/>
        <pt x="478" y="495" on="0"/>
        <pt x="396" y="460" on="0"/>
        <pt x="353" y="388" on="0"/>
        <pt x="353" y="328" on="1"/>
        <pt x="353" y="251" on="0"/>
        <pt x="424" y="176" on="0"/>
        <pt x="483" y="176" on="1"/>
        <pt x="549" y="176" on="0"/>
        <pt x="658" y="248" on="0"/>
        <pt x="720" y="375" on="0"/>
        <pt x="720" y="446" on="1"/>
      </contour>
    </TTGlyph>
    <TTGlyph name="aacute" xMin="52" yMin="-20" xMax="1144" yMax="1502">
      <component glyphName="a" x="-8" y="0" flags="0x204"/>
      <component glyphName="acute" x="288" y="0" flags="0x4"/>
    </TTGlyph>
    <TTGlyph name="abreve" xMin="60" yMin="-20" xMax="1152" yMax="1506">
      <component glyphName="a" x="0" y="0" flags="0x204"/>
      <component glyphName="breve" x="283" y="0" flags="0x4"/>
    </TTGlyph>
    <TTGlyph name="abreveacute" xMin="60" yMin="-20" xMax="1152" yMax="1824">
      <component glyphName="a" x="0" y="0" flags="0x204"/>
      <component glyphName="breveacute.lc" x="572" y="0" flags="0x4"/>
    </TTGlyph>
    <TTGlyph name="abrevedotbelow" xMin="60" yMin="-366" xMax="1152" yMax="1506">
      <component glyphName="a" x="0" y="0" flags="0x204"/>
      <component glyphName="breve" x="275" y="0" flags="0x4"/>
      <component glyphName="dotbelow.alt1" x="801" y="0" flags="0x4"/>
    </TTGlyph>
    <TTGlyph name="abrevegrave" xMin="60" yMin="-20" xMax="1152" yMax="1824">
      <component glyphName="a" x="0" y="0" flags="0x204"/>
      <component glyphName="brevegrave.lc" x="572" y="0" flags="0x4"/>
    </TTGlyph>
    <TTGlyph name="abrevehookabove" xMin="60" yMin="-20" xMax="1152" yMax="1854">
      <component glyphName="a" x="0" y="0" flags="0x204"/>
      <component glyphName="brevehook.lc" x="572" y="0" flags="0x4"/>
    </TTGlyph>
    <TTGlyph name="abrevetilde" xMin="60" yMin="-20" xMax="1152" yMax="1835">
      <component glyphName="a" x="0" y="0" flags="0x204"/>
      <component glyphName="brevetilde.lc" x="572" y="0" flags="0x4"/>
    </TTGlyph>
    <TTGlyph name="acircumflex" xMin="52" yMin="-20" xMax="1144" yMax="1529">
      <component glyphName="a" x="-8" y="0" flags="0x204"/>
      <component glyphName="circumflex" x="199" y="0" flags="0x4"/>
    </TTGlyph>
    <TTGlyph name="acircumflexacute" xMin="60" yMin="-20" xMax="1152" yMax="1574">
      <component glyphName="a" x="0" y="0" flags="0x204"/>
      <component glyphName="circumflexacute.lc" x="572" y="0" flags="0x4"/>
    </TTGlyph>
    <TTGlyph name="acircumflexdotbelow" xMin="60" yMin="-366" xMax="1152" yMax="1529">
      <component glyphName="a" x="0" y="0" flags="0x204"/>
      <component glyphName="circumflex" x="190" y="0" flags="0x4"/>
      <component glyphName="dotbelow.alt1" x="800" y="0" flags="0x4"/>
    </TTGlyph>
    <TTGlyph name="acircumflexgrave" xMin="9" yMin="-20" xMax="1152" yMax="1574">
      <component glyphName="a" x="0" y="0" flags="0x204"/>
      <component glyphName="circumflexgrave.lc" x="572" y="0" flags="0x4"/>
    </TTGlyph>
    <TTGlyph name="acircumflexhookabove" xMin="60" yMin="-20" xMax="1152" yMax="1653">
      <component glyphName="a" x="0" y="0" flags="0x204"/>
      <component glyphName="circumflexhook.lc" x="572" y="0" flags="0x4"/>
    </TTGlyph>
    <TTGlyph name="acircumflextilde" xMin="60" yMin="-20" xMax="1152" yMax="1807">
      <component glyphName="a" x="0" y="0" flags="0x204"/>
      <component glyphName="circumflextilde.lc" x="572" y="0" flags="0x4"/>
    </TTGlyph>
    <TTGlyph name="acute" xMin="87" yMin="1183" xMax="597" yMax="1502">
      <contour>
        <pt x="87" y="1183" on="1"/>
        <pt x="87" y="1214" on="1"/>
        <pt x="339" y="1502" on="1"/>
        <pt x="597" y="1502" on="1"/>
        <pt x="597" y="1459" on="1"/>
        <pt x="257" y="1183" on="1"/>
      </contour>
    </TTGlyph>
    <TTGlyph name="acute.alt1" xMin="-232" yMin="1183" xMax="278" yMax="1502">
      <component glyphName="acute" x="-319" y="0" flags="0x4"/>
    </TTGlyph>
    <TTGlyph name="acute.alt2" xMin="-232" yMin="1183" xMax="278" yMax="1502">
      <component glyphName="acute" x="-319" y="0" flags="0x4"/>
    </TTGlyph>
    <TTGlyph name="acute.alt3" xMin="-232" yMin="1183" xMax="278" yMax="1502">
      <component glyphName="acute" x="-319" y="0" flags="0x4"/>
    </TTGlyph>
    <TTGlyph name="acute.alt4" xMin="-232" yMin="1183" xMax="278" yMax="1502">
      <component glyphName="acute" x="-319" y="0" flags="0x4"/>
    </TTGlyph>
    <TTGlyph name="acute.alt5" xMin="-232" yMin="1183" xMax="278" yMax="1502">
      <component glyphName="acute" x="-319" y="0" flags="0x4"/>
    </TTGlyph>
    <TTGlyph name="acute.uc" xMin="87" yMin="1530" xMax="597" yMax="1815">
      <contour>
        <pt x="87" y="1530" on="1"/>
        <pt x="87" y="1561" on="1"/>
        <pt x="339" y="1815" on="1"/>
        <pt x="597" y="1815" on="1"/>
        <pt x="597" y="1772" on="1"/>
        <pt x="257" y="1530" on="1"/>
      </contour>
    </TTGlyph>
    <TTGlyph name="acutecomb" xMin="-415" yMin="1572" xMax="15" yMax="1854">
      <contour>
        <pt x="-415" y="1572" on="1"/>
        <pt x="-415" y="1599" on="1"/>
        <pt x="-243" y="1854" on="1"/>
        <pt x="15" y="1854" on="1"/>
        <pt x="15" y="1816" on="1"/>
        <pt x="-266" y="1572" on="1"/>
      </contour>
    </TTGlyph>
    <TTGlyph name="adieresis" xMin="52" yMin="-20" xMax="1144" yMax="1418">
      <component glyphName="a" x="-8" y="0" flags="0x204"/>
      <component glyphName="dieresis" x="215" y="0" flags="0x4"/>
    </TTGlyph>
    <TTGlyph name="adotbelow" xMin="60" yMin="-366" xMax="1152" yMax="1102">
      <component glyphName="a" x="0" y="0" flags="0x204"/>
      <component glyphName="dotbelow.alt1" x="799" y="0" flags="0x4"/>
    </TTGlyph>
    <TTGlyph name="ae" xMin="66" yMin="-20" xMax="1736" yMax="1102">
      <contour>
        <pt x="1253" y="-20" on="1"/>
        <pt x="943" y="-20" on="0"/>
        <pt x="819" y="209" on="1"/>
        <pt x="686" y="-20" on="0"/>
        <pt x="406" y="-20" on="1"/>
        <pt x="245" y="-20" on="0"/>
        <pt x="66" y="152" on="0"/>
        <pt x="66" y="306" on="1"/>
        <pt x="66" y="472" on="0"/>
        <pt x="288" y="647" on="0"/>
        <pt x="506" y="652" on="1"/>
        <pt x="746" y="656" on="1"/>
        <pt x="746" y="711" on="1"/>
        <pt x="746" y="819" on="0"/>
        <pt x="666" y="920" on="0"/>
        <pt x="578" y="920" on="1"/>
        <pt x="493" y="920" on="0"/>
        <pt x="417" y="846" on="0"/>
        <pt x="408" y="767" on="1"/>
        <pt x="115" y="781" on="1"/>
        <pt x="141" y="938" on="0"/>
        <pt x="378" y="1102" on="0"/>
        <pt x="586" y="1102" on="1"/>
        <pt x="803" y="1102" on="0"/>
        <pt x="919" y="995" on="1"/>
        <pt x="1049" y="1102" on="0"/>
        <pt x="1257" y="1102" on="1"/>
        <pt x="1490" y="1102" on="0"/>
        <pt x="1736" y="793" on="0"/>
        <pt x="1736" y="495" on="1"/>
        <pt x="1736" y="476" on="1"/>
        <pt x="1042" y="476" on="1"/>
        <pt x="1042" y="330" on="0"/>
        <pt x="1160" y="168" on="0"/>
        <pt x="1267" y="168" on="1"/>
        <pt x="1416" y="168" on="0"/>
        <pt x="1455" y="297" on="1"/>
        <pt x="1720" y="274" on="1"/>
        <pt x="1605" y="-20" on="0"/>
      </contour>
      <contour>
        <pt x="496" y="176" on="1"/>
        <pt x="565" y="176" on="0"/>
        <pt x="681" y="254" on="0"/>
        <pt x="746" y="384" on="0"/>
        <pt x="746" y="456" on="1"/>
        <pt x="746" y="501" on="1"/>
        <pt x="594" y="499" on="1"/>
        <pt x="490" y="495" on="0"/>
        <pt x="404" y="460" on="0"/>
        <pt x="359" y="388" on="0"/>
        <pt x="359" y="328" on="1"/>
        <pt x="359" y="251" on="0"/>
        <pt x="434" y="176" on="0"/>
      </contour>
      <contour>
        <pt x="1253" y="925" on="1"/>
        <pt x="1154" y="925" on="0"/>
        <pt x="1047" y="787" on="0"/>
        <pt x="1044" y="663" on="1"/>
        <pt x="1464" y="663" on="1"/>
        <pt x="1456" y="794" on="0"/>
        <pt x="1346" y="925" on="0"/>
      </contour>
    </TTGlyph>
    <TTGlyph name="aeacute" xMin="66" yMin="-20" xMax="1736" yMax="1502">
      <component glyphName="ae" x="0" y="0" flags="0x204"/>
      <component glyphName="acute" x="687" y="0" flags="0x4"/>
    </TTGlyph>
    <TTGlyph name="agrave" xMin="52" yMin="-20" xMax="1144" yMax="1502">
      <component glyphName="a" x="-8" y="0" flags="0x204"/>
      <component glyphName="grave" x="174" y="0" flags="0x4"/>
    </TTGlyph>
    <TTGlyph name="ahookabove" xMin="60" yMin="-20" xMax="1152" yMax="1531">
      <component glyphName="a" x="0" y="0" flags="0x204"/>
      <component glyphName="hookabove.alt2" x="848" y="0" flags="0x4"/>
    </TTGlyph>
    <TTGlyph name="alef" xMin="66" yMin="0" xMax="1360" yMax="1241">
      <contour>
        <pt x="125" y="1241" on="1"/>
        <pt x="453" y="1241" on="1"/>
        <pt x="858" y="680" on="1"/>
        <pt x="921" y="737" on="0"/>
        <pt x="987" y="891" on="0"/>
        <pt x="1001" y="1022" on="1"/>
        <pt x="1022" y="1241" on="1"/>
        <pt x="1298" y="1241" on="1"/>
        <pt x="1274" y="1004" on="1"/>
        <pt x="1264" y="904" on="0"/>
        <pt x="1203" y="745" on="0"/>
        <pt x="1100" y="609" on="0"/>
        <pt x="987" y="508" on="1"/>
        <pt x="1360" y="0" on="1"/>
        <pt x="1034" y="0" on="1"/>
        <pt x="535" y="692" on="1"/>
        <pt x="481" y="661" on="0"/>
        <pt x="437" y="542" on="0"/>
        <pt x="408" y="362" on="1"/>
        <pt x="346" y="0" on="1"/>
        <pt x="66" y="0" on="1"/>
        <pt x="150" y="414" on="1"/>
        <pt x="186" y="585" on="0"/>
        <pt x="246" y="733" on="0"/>
        <pt x="335" y="820" on="0"/>
        <pt x="414" y="854" on="1"/>
      </contour>
    </TTGlyph>
    <TTGlyph name="alefdagesh" xMin="66" yMin="0" xMax="1360" yMax="1241">
      <component glyphName="alef" x="0" y="0" flags="0x204"/>
      <component glyphName="dagesh" x="592" y="-585" flags="0x4"/>
    </TTGlyph>
    <TTGlyph name="aleflamed" xMin="80" yMin="0" xMax="1331" yMax="1679">
      <contour>
        <pt x="229" y="1057" on="1"/>
        <pt x="80" y="1057" on="1"/>
        <pt x="80" y="1679" on="1"/>
        <pt x="350" y="1679" on="1"/>
        <pt x="350" y="1241" on="1"/>
        <pt x="424" y="1241" on="1"/>
        <pt x="829" y="678" on="1"/>
        <pt x="891" y="734" on="0"/>
        <pt x="957" y="891" on="0"/>
        <pt x="971" y="1022" on="1"/>
        <pt x="993" y="1241" on="1"/>
        <pt x="1270" y="1241" on="1"/>
        <pt x="1245" y="1001" on="1"/>
        <pt x="1235" y="901" on="0"/>
        <pt x="1175" y="745" on="0"/>
        <pt x="1070" y="606" on="0"/>
        <pt x="956" y="506" on="1"/>
        <pt x="1211" y="158" on="0"/>
        <pt x="1331" y="0" on="1"/>
        <pt x="1006" y="0" on="1"/>
      </contour>
    </TTGlyph>
    <TTGlyph name="aleflamedhatafsegol" xMin="80" yMin="-385" xMax="1331" yMax="1679">
      <component glyphName="aleflamed" x="0" y="0" flags="0x204"/>
      <component glyphName="hatafsegol" x="692" y="0" flags="0x4"/>
    </TTGlyph>
    <TTGlyph name="aleflamedsegol" xMin="80" yMin="-385" xMax="1331" yMax="1679">
      <component glyphName="aleflamed" x="0" y="0" flags="0x204"/>
      <component glyphName="segol" x="674" y="0" flags="0x4"/>
    </TTGlyph>
    <TTGlyph name="aleflamedtsere" xMin="80" yMin="-348" xMax="1331" yMax="1679">
      <component glyphName="aleflamed" x="0" y="0" flags="0x204"/>
      <component glyphName="tsere" x="680" y="0" flags="0x4"/>
    </TTGlyph>
    <TTGlyph name="alefmapiq" xMin="66" yMin="0" xMax="1360" yMax="1241">
      <component glyphName="alef" x="0" y="0" flags="0x204"/>
      <component glyphName="dagesh" x="592" y="-585" flags="0x4"/>
    </TTGlyph>
    <TTGlyph name="alefpatah" xMin="66" yMin="-231" xMax="1360" yMax="1241">
      <component glyphName="alef" x="0" y="0" flags="0x204"/>
      <component glyphName="patah" x="690" y="0" flags="0x4"/>
    </TTGlyph>
    <TTGlyph name="alefqamats" xMin="66" yMin="-348" xMax="1360" yMax="1241">
      <component glyphName="alef" x="0" y="0" flags="0x204"/>
      <component glyphName="qamats" x="690" y="0" flags="0x4"/>
    </TTGlyph>
    <TTGlyph name="alefwide" xMin="66" yMin="0" xMax="1360" yMax="1241">
      <component glyphName="alef" x="0" y="0" flags="0x204"/>
    </TTGlyph>
    <TTGlyph name="alpha" xMin="80" yMin="-20" xMax="1238" yMax="1102">
      <contour>
        <pt x="860" y="237" on="1"/>
        <pt x="798" y="102" on="0"/>
        <pt x="626" y="-20" on="0"/>
        <pt x="501" y="-20" on="1"/>
        <pt x="289" y="-20" on="0"/>
        <pt x="80" y="255" on="0"/>
        <pt x="80" y="536" on="1"/>
        <pt x="80" y="820" on="0"/>
        <pt x="307" y="1102" on="0"/>
        <pt x="527" y="1102" on="1"/>
        <pt x="658" y="1102" on="0"/>
        <pt x="847" y="969" on="0"/>
        <pt x="895" y="847" on="1"/>
        <pt x="898" y="847" on="1"/>
        <pt x="923" y="971" on="0"/>
        <pt x="973" y="1082" on="1"/>
        <pt x="1238" y="1082" on="1"/>
        <pt x="1188" y="991" on="0"/>
        <pt x="1081" y="671" on="0"/>
        <pt x="1069" y="556" on="1"/>
        <pt x="1101" y="247" on="0"/>
        <pt x="1205" y="0" on="1"/>
        <pt x="935" y="0" on="1"/>
        <pt x="886" y="120" on="0"/>
        <pt x="864" y="237" on="1"/>
      </contour>
      <contour>
        <pt x="375" y="539" on="1"/>
        <pt x="375" y="343" on="0"/>
        <pt x="460" y="173" on="0"/>
        <pt x="556" y="173" on="1"/>
        <pt x="645" y="173" on="0"/>
        <pt x="773" y="375" on="0"/>
        <pt x="791" y="542" on="1"/>
        <pt x="769" y="720" on="0"/>
        <pt x="652" y="908" on="0"/>
        <pt x="564" y="908" on="1"/>
        <pt x="462" y="908" on="0"/>
        <pt x="375" y="730" on="0"/>
      </contour>
    </TTGlyph>
    <TTGlyph name="alphatonos" xMin="80" yMin="-20" xMax="1238" yMax="1508">
      <component glyphName="alpha" x="0" y="0" flags="0x204"/>
      <component glyphName="tonos" x="334" y="0" flags="0x4"/>
    </TTGlyph>
    <TTGlyph name="alt_plussign" xMin="90" yMin="457" xMax="1149" yMax="1143">
      <contour>
        <pt x="1149" y="457" on="1"/>
        <pt x="90" y="457" on="1"/>
        <pt x="90" y="715" on="1"/>
        <pt x="481" y="715" on="1"/>
        <pt x="481" y="1143" on="1"/>
        <pt x="754" y="1143" on="1"/>
        <pt x="754" y="715" on="1"/>
        <pt x="1149" y="715" on="1"/>
      </contour>
    </TTGlyph>
    <TTGlyph name="alternativeayin" xMin="41" yMin="-47" xMax="1163" yMax="1241">
      <component glyphName="ayin" x="0" y="0" flags="0x204"/>
    </TTGlyph>
    <TTGlyph name="alternativelamed" xMin="70" yMin="-59" xMax="1073" yMax="1665">
      <component glyphName="lamed" x="0" y="0" flags="0x204"/>
    </TTGlyph>
    <TTGlyph name="amacron" xMin="60" yMin="-20" xMax="1152" yMax="1371">
      <component glyphName="a" x="0" y="0" flags="0x204"/>
      <component glyphName="macron" x="243" y="0" flags="0x4"/>
    </TTGlyph>
    <TTGlyph name="ampersand" xMin="90" yMin="-20" xMax="1415" yMax="1417">
      <contour>
        <pt x="90" y="385" on="1"/>
        <pt x="90" y="520" on="0"/>
        <pt x="252" y="731" on="0"/>
        <pt x="428" y="813" on="1"/>
        <pt x="354" y="963" on="0"/>
        <pt x="354" y="1092" on="1"/>
        <pt x="354" y="1248" on="0"/>
        <pt x="550" y="1417" on="0"/>
        <pt x="731" y="1417" on="1"/>
        <pt x="899" y="1417" on="0"/>
        <pt x="1094" y="1257" on="0"/>
        <pt x="1094" y="1120" on="1"/>
        <pt x="1094" y="1043" on="0"/>
        <pt x="1016" y="919" on="0"/>
        <pt x="873" y="813" on="0"/>
        <pt x="702" y="733" on="1"/>
        <pt x="801" y="558" on="0"/>
        <pt x="946" y="397" on="1"/>
        <pt x="1050" y="555" on="0"/>
        <pt x="1104" y="760" on="1"/>
        <pt x="1313" y="690" on="1"/>
        <pt x="1245" y="457" on="0"/>
        <pt x="1120" y="270" on="1"/>
        <pt x="1206" y="197" on="0"/>
        <pt x="1298" y="197" on="1"/>
        <pt x="1363" y="197" on="0"/>
        <pt x="1415" y="213" on="1"/>
        <pt x="1415" y="10" on="1"/>
        <pt x="1360" y="-12" on="0"/>
        <pt x="1284" y="-12" on="1"/>
        <pt x="1198" y="-12" on="0"/>
        <pt x="1025" y="50" on="0"/>
        <pt x="954" y="109" on="1"/>
        <pt x="784" y="-20" on="0"/>
        <pt x="575" y="-20" on="1"/>
        <pt x="344" y="-20" on="0"/>
        <pt x="90" y="193" on="0"/>
      </contour>
      <contour>
        <pt x="870" y="1118" on="1"/>
        <pt x="870" y="1175" on="0"/>
        <pt x="794" y="1247" on="0"/>
        <pt x="729" y="1247" on="1"/>
        <pt x="652" y="1247" on="0"/>
        <pt x="571" y="1161" on="0"/>
        <pt x="571" y="1090" on="1"/>
        <pt x="571" y="1003" on="0"/>
        <pt x="625" y="897" on="1"/>
        <pt x="730" y="942" on="0"/>
        <pt x="821" y="1004" on="0"/>
        <pt x="870" y="1074" on="0"/>
      </contour>
      <contour>
        <pt x="788" y="246" on="1"/>
        <pt x="622" y="431" on="0"/>
        <pt x="516" y="623" on="1"/>
        <pt x="344" y="542" on="0"/>
        <pt x="344" y="389" on="1"/>
        <pt x="344" y="290" on="0"/>
        <pt x="474" y="170" on="0"/>
        <pt x="586" y="170" on="1"/>
        <pt x="651" y="170" on="0"/>
        <pt x="756" y="218" on="0"/>
      </contour>
    </TTGlyph>
    <TTGlyph name="anoteleia" xMin="197" yMin="531" xMax="485" yMax="836">
      <component glyphName="middot" x="56" y="0" flags="0x204"/>
    </TTGlyph>
    <TTGlyph name="aogonek" xMin="60" yMin="-425" xMax="1152" yMax="1102">
      <component glyphName="a" x="0" y="0" flags="0x204"/>
      <component glyphName="ogonek" x="609" y="0" flags="0x4"/>
    </TTGlyph>
    <TTGlyph name="approxequal" xMin="43" yMin="274" xMax="1081" yMax="1079">
      <contour>
        <pt x="814" y="756" on="1"/>
        <pt x="739" y="756" on="0"/>
        <pt x="594" y="797" on="0"/>
        <pt x="519" y="823" on="1"/>
        <pt x="387" y="870" on="0"/>
        <pt x="298" y="870" on="1"/>
        <pt x="231" y="870" on="0"/>
        <pt x="113" y="831" on="0"/>
        <pt x="43" y="782" on="1"/>
        <pt x="43" y="995" on="1"/>
        <pt x="153" y="1079" on="0"/>
        <pt x="314" y="1079" on="1"/>
        <pt x="367" y="1079" on="0"/>
        <pt x="491" y="1054" on="0"/>
        <pt x="633" y="1006" on="1"/>
        <pt x="754" y="963" on="0"/>
        <pt x="833" y="963" on="1"/>
        <pt x="967" y="963" on="0"/>
        <pt x="1081" y="1055" on="1"/>
        <pt x="1081" y="836" on="1"/>
        <pt x="1018" y="791" on="0"/>
        <pt x="898" y="756" on="0"/>
      </contour>
      <contour>
        <pt x="814" y="274" on="1"/>
        <pt x="739" y="274" on="0"/>
        <pt x="594" y="318" on="0"/>
        <pt x="519" y="344" on="1"/>
        <pt x="390" y="389" on="0"/>
        <pt x="298" y="389" on="1"/>
        <pt x="227" y="389" on="0"/>
        <pt x="108" y="346" on="0"/>
        <pt x="43" y="301" on="1"/>
        <pt x="43" y="514" on="1"/>
        <pt x="156" y="598" on="0"/>
        <pt x="314" y="598" on="1"/>
        <pt x="397" y="598" on="0"/>
        <pt x="557" y="552" on="0"/>
        <pt x="633" y="526" on="1"/>
        <pt x="735" y="494" on="0"/>
        <pt x="805" y="481" on="0"/>
        <pt x="833" y="481" on="1"/>
        <pt x="967" y="481" on="0"/>
        <pt x="1081" y="573" on="1"/>
        <pt x="1081" y="354" on="1"/>
        <pt x="1017" y="310" on="0"/>
        <pt x="900" y="274" on="0"/>
      </contour>
    </TTGlyph>
    <TTGlyph name="aring" xMin="52" yMin="-20" xMax="1144" yMax="1685">
      <component glyphName="a" x="-8" y="0" flags="0x204"/>
      <component glyphName="ring" x="266" y="41" flags="0x4"/>
    </TTGlyph>
    <TTGlyph name="aringacute" xMin="60" yMin="-20" xMax="1152" yMax="2012">
      <component glyphName="a" x="0" y="0" flags="0x204"/>
      <component glyphName="ring" x="276" y="0" flags="0x4"/>
      <component glyphName="acute" x="355" y="510" flags="0x4"/>
    </TTGlyph>
    <TTGlyph name="arrowboth" xMin="418" yMin="100" xMax="1630" yMax="580">
      <contour>
        <pt x="641" y="297" on="1"/>
        <pt x="698" y="230" on="0"/>
        <pt x="760" y="100" on="1"/>
        <pt x="688" y="100" on="1"/>
        <pt x="561" y="249" on="0"/>
        <pt x="418" y="322" on="1"/>
        <pt x="418" y="358" on="1"/>
        <pt x="561" y="431" on="0"/>
        <pt x="688" y="580" on="1"/>
        <pt x="760" y="580" on="1"/>
        <pt x="698" y="450" on="0"/>
        <pt x="641" y="383" on="1"/>
        <pt x="1407" y="383" on="1"/>
        <pt x="1350" y="450" on="0"/>
        <pt x="1288" y="580" on="1"/>
        <pt x="1360" y="580" on="1"/>
        <pt x="1487" y="431" on="0"/>
        <pt x="1630" y="358" on="1"/>
        <pt x="1630" y="322" on="1"/>
        <pt x="1487" y="249" on="0"/>
        <pt x="1360" y="100" on="1"/>
        <pt x="1288" y="100" on="1"/>
        <pt x="1350" y="230" on="0"/>
        <pt x="1407" y="297" on="1"/>
      </contour>
    </TTGlyph>
    <TTGlyph name="arrowdown" xMin="272" yMin="-61" xMax="752" yMax="1151">
      <contour>
        <pt x="555" y="162" on="1"/>
        <pt x="622" y="219" on="0"/>
        <pt x="752" y="281" on="1"/>
        <pt x="752" y="209" on="1"/>
        <pt x="603" y="82" on="0"/>
        <pt x="530" y="-61" on="1"/>
        <pt x="494" y="-61" on="1"/>
        <pt x="421" y="82" on="0"/>
        <pt x="272" y="209" on="1"/>
        <pt x="272" y="281" on="1"/>
        <pt x="402" y="219" on="0"/>
        <pt x="469" y="162" on="1"/>
        <pt x="469" y="1151" on="1"/>
        <pt x="555" y="1151" on="1"/>
      </contour>
    </TTGlyph>
    <TTGlyph name="arrowleft" xMin="418" yMin="100" xMax="1630" yMax="580">
      <contour>
        <pt x="641" y="297" on="1"/>
        <pt x="698" y="230" on="0"/>
        <pt x="760" y="100" on="1"/>
        <pt x="688" y="100" on="1"/>
        <pt x="561" y="249" on="0"/>
        <pt x="418" y="322" on="1"/>
        <pt x="418" y="358" on="1"/>
        <pt x="561" y="431" on="0"/>
        <pt x="688" y="580" on="1"/>
        <pt x="760" y="580" on="1"/>
        <pt x="698" y="450" on="0"/>
        <pt x="641" y="383" on="1"/>
        <pt x="1630" y="383" on="1"/>
        <pt x="1630" y="297" on="1"/>
      </contour>
    </TTGlyph>
    <TTGlyph name="arrowright" xMin="418" yMin="100" xMax="1630" yMax="580">
      <contour>
        <pt x="1407" y="383" on="1"/>
        <pt x="1350" y="450" on="0"/>
        <pt x="1288" y="580" on="1"/>
        <pt x="1360" y="580" on="1"/>
        <pt x="1487" y="431" on="0"/>
        <pt x="1630" y="358" on="1"/>
        <pt x="1630" y="322" on="1"/>
        <pt x="1487" y="249" on="0"/>
        <pt x="1360" y="100" on="1"/>
        <pt x="1288" y="100" on="1"/>
        <pt x="1350" y="230" on="0"/>
        <pt x="1407" y="297" on="1"/>
        <pt x="418" y="297" on="1"/>
        <pt x="418" y="383" on="1"/>
      </contour>
    </TTGlyph>
    <TTGlyph name="arrowup" xMin="272" yMin="-61" xMax="752" yMax="1151">
      <contour>
        <pt x="469" y="928" on="1"/>
        <pt x="402" y="871" on="0"/>
        <pt x="272" y="809" on="1"/>
        <pt x="272" y="881" on="1"/>
        <pt x="421" y="1008" on="0"/>
        <pt x="494" y="1151" on="1"/>
        <pt x="530" y="1151" on="1"/>
        <pt x="603" y="1008" on="0"/>
        <pt x="752" y="881" on="1"/>
        <pt x="752" y="809" on="1"/>
        <pt x="622" y="871" on="0"/>
        <pt x="555" y="928" on="1"/>
        <pt x="555" y="-61" on="1"/>
        <pt x="469" y="-61" on="1"/>
      </contour>
    </TTGlyph>
    <TTGlyph name="arrowupdn" xMin="272" yMin="-61" xMax="752" yMax="1151">
      <contour>
        <pt x="469" y="928" on="1"/>
        <pt x="402" y="871" on="0"/>
        <pt x="272" y="809" on="1"/>
        <pt x="272" y="881" on="1"/>
        <pt x="421" y="1008" on="0"/>
        <pt x="494" y="1151" on="1"/>
        <pt x="530" y="1151" on="1"/>
        <pt x="603" y="1008" on="0"/>
        <pt x="752" y="881" on="1"/>
        <pt x="752" y="809" on="1"/>
        <pt x="622" y="871" on="0"/>
        <pt x="555" y="928" on="1"/>
        <pt x="555" y="162" on="1"/>
        <pt x="622" y="219" on="0"/>
        <pt x="752" y="281" on="1"/>
        <pt x="752" y="209" on="1"/>
        <pt x="603" y="82" on="0"/>
        <pt x="530" y="-61" on="1"/>
        <pt x="494" y="-61" on="1"/>
        <pt x="421" y="82" on="0"/>
        <pt x="272" y="209" on="1"/>
        <pt x="272" y="281" on="1"/>
        <pt x="402" y="219" on="0"/>
        <pt x="469" y="162" on="1"/>
      </contour>
    </TTGlyph>
    <TTGlyph name="arrowupdnbse" xMin="272" yMin="-184" xMax="752" yMax="1151">
      <contour>
        <pt x="272" y="-104" on="1"/>
        <pt x="752" y="-104" on="1"/>
        <pt x="752" y="-184" on="1"/>
        <pt x="272" y="-184" on="1"/>
      </contour>
      <contour>
        <pt x="469" y="928" on="1"/>
        <pt x="402" y="871" on="0"/>
        <pt x="272" y="809" on="1"/>
        <pt x="272" y="881" on="1"/>
        <pt x="421" y="1008" on="0"/>
        <pt x="494" y="1151" on="1"/>
        <pt x="530" y="1151" on="1"/>
        <pt x="603" y="1008" on="0"/>
        <pt x="752" y="881" on="1"/>
        <pt x="752" y="809" on="1"/>
        <pt x="622" y="871" on="0"/>
        <pt x="555" y="928" on="1"/>
        <pt x="555" y="162" on="1"/>
        <pt x="622" y="219" on="0"/>
        <pt x="752" y="281" on="1"/>
        <pt x="752" y="209" on="1"/>
        <pt x="603" y="82" on="0"/>
        <pt x="530" y="-61" on="1"/>
        <pt x="494" y="-61" on="1"/>
        <pt x="421" y="82" on="0"/>
        <pt x="272" y="209" on="1"/>
        <pt x="272" y="281" on="1"/>
        <pt x="402" y="219" on="0"/>
        <pt x="469" y="162" on="1"/>
      </contour>
    </TTGlyph>
    <TTGlyph name="asciicircum" xMin="45" yMin="514" xMax="1151" yMax="1409">
      <contour>
        <pt x="922" y="514" on="1"/>
        <pt x="596" y="1266" on="1"/>
        <pt x="272" y="514" on="1"/>
        <pt x="45" y="514" on="1"/>
        <pt x="436" y="1409" on="1"/>
        <pt x="758" y="1409" on="1"/>
        <pt x="1151" y="514" on="1"/>
      </contour>
    </TTGlyph>
    <TTGlyph name="asciitilde" xMin="81" yMin="516" xMax="1119" yMax="840">
      <contour>
        <pt x="852" y="516" on="1"/>
        <pt x="777" y="516" on="0"/>
        <pt x="632" y="558" on="0"/>
        <pt x="557" y="584" on="1"/>
        <pt x="422" y="631" on="0"/>
        <pt x="336" y="631" on="1"/>
        <pt x="265" y="631" on="0"/>
        <pt x="146" y="588" on="0"/>
        <pt x="81" y="543" on="1"/>
        <pt x="81" y="756" on="1"/>
        <pt x="194" y="840" on="0"/>
        <pt x="352" y="840" on="1"/>
        <pt x="457" y="840" on="0"/>
        <pt x="594" y="793" on="1"/>
        <pt x="726" y="747" on="0"/>
        <pt x="826" y="723" on="0"/>
        <pt x="871" y="723" on="1"/>
        <pt x="1005" y="723" on="0"/>
        <pt x="1119" y="815" on="1"/>
        <pt x="1119" y="596" on="1"/>
        <pt x="1055" y="552" on="0"/>
        <pt x="938" y="516" on="0"/>
      </contour>
    </TTGlyph>
    <TTGlyph name="asterisk" xMin="6" yMin="647" xMax="795" yMax="1409">
      <contour>
        <pt x="492" y="1135" on="1"/>
        <pt x="727" y="1239" on="1"/>
        <pt x="795" y="1042" on="1"/>
        <pt x="545" y="981" on="1"/>
        <pt x="731" y="768" on="1"/>
        <pt x="547" y="647" on="1"/>
        <pt x="401" y="899" on="1"/>
        <pt x="252" y="647" on="1"/>
        <pt x="66" y="770" on="1"/>
        <pt x="256" y="981" on="1"/>
        <pt x="6" y="1042" on="1"/>
        <pt x="74" y="1239" on="1"/>
        <pt x="313" y="1135" on="1"/>
        <pt x="295" y="1409" on="1"/>
        <pt x="510" y="1409" on="1"/>
      </contour>
    </TTGlyph>
    <TTGlyph name="at" xMin="117" yMin="-324" xMax="1878" yMax="1454">
      <contour>
        <pt x="1878" y="725" on="1"/>
        <pt x="1878" y="543" on="0"/>
        <pt x="1751" y="243" on="0"/>
        <pt x="1527" y="74" on="0"/>
        <pt x="1397" y="74" on="1"/>
        <pt x="1305" y="74" on="0"/>
        <pt x="1206" y="165" on="0"/>
        <pt x="1206" y="246" on="1"/>
        <pt x="1206" y="283" on="0"/>
        <pt x="1212" y="313" on="1"/>
        <pt x="1206" y="313" on="1"/>
        <pt x="1156" y="208" on="0"/>
        <pt x="959" y="74" on="0"/>
        <pt x="856" y="74" on="1"/>
        <pt x="699" y="74" on="0"/>
        <pt x="526" y="277" on="0"/>
        <pt x="526" y="459" on="1"/>
        <pt x="526" y="622" on="0"/>
        <pt x="655" y="908" on="0"/>
        <pt x="884" y="1071" on="0"/>
        <pt x="1026" y="1071" on="1"/>
        <pt x="1221" y="1071" on="0"/>
        <pt x="1290" y="897" on="1"/>
        <pt x="1296" y="897" on="1"/>
        <pt x="1335" y="1049" on="1"/>
        <pt x="1491" y="1049" on="1"/>
        <pt x="1374" y="543" on="1"/>
        <pt x="1337" y="371" on="0"/>
        <pt x="1337" y="303" on="1"/>
        <pt x="1337" y="253" on="0"/>
        <pt x="1384" y="211" on="0"/>
        <pt x="1415" y="211" on="1"/>
        <pt x="1495" y="211" on="0"/>
        <pt x="1641" y="350" on="0"/>
        <pt x="1726" y="583" on="0"/>
        <pt x="1726" y="723" on="1"/>
        <pt x="1726" y="898" on="0"/>
        <pt x="1573" y="1167" on="0"/>
        <pt x="1285" y="1313" on="0"/>
        <pt x="1094" y="1313" on="1"/>
        <pt x="854" y="1313" on="0"/>
        <pt x="488" y="1103" on="0"/>
        <pt x="279" y="707" on="0"/>
        <pt x="279" y="461" on="1"/>
        <pt x="279" y="266" on="0"/>
        <pt x="438" y="-29" on="0"/>
        <pt x="726" y="-180" on="0"/>
        <pt x="920" y="-180" on="1"/>
        <pt x="1214" y="-180" on="0"/>
        <pt x="1509" y="-25" on="1"/>
        <pt x="1571" y="-147" on="1"/>
        <pt x="1403" y="-242" on="0"/>
        <pt x="1082" y="-324" on="0"/>
        <pt x="913" y="-324" on="1"/>
        <pt x="677" y="-324" on="0"/>
        <pt x="318" y="-133" on="0"/>
        <pt x="117" y="228" on="0"/>
        <pt x="117" y="461" on="1"/>
        <pt x="117" y="744" on="0"/>
        <pt x="370" y="1202" on="0"/>
        <pt x="816" y="1454" on="0"/>
        <pt x="1092" y="1454" on="1"/>
        <pt x="1335" y="1454" on="0"/>
        <pt x="1691" y="1273" on="0"/>
        <pt x="1878" y="943" on="0"/>
      </contour>
      <contour>
        <pt x="1231" y="721" on="1"/>
        <pt x="1231" y="816" on="0"/>
        <pt x="1112" y="936" on="0"/>
        <pt x="1018" y="936" on="1"/>
        <pt x="924" y="936" on="0"/>
        <pt x="775" y="811" on="0"/>
        <pt x="692" y="582" on="0"/>
        <pt x="692" y="461" on="1"/>
        <pt x="692" y="347" on="0"/>
        <pt x="789" y="215" on="0"/>
        <pt x="889" y="215" on="1"/>
        <pt x="955" y="215" on="0"/>
        <pt x="1080" y="299" on="0"/>
        <pt x="1178" y="458" on="0"/>
        <pt x="1231" y="661" on="0"/>
      </contour>
    </TTGlyph>
    <TTGlyph name="atilde" xMin="52" yMin="-20" xMax="1144" yMax="1476">
      <component glyphName="a" x="-8" y="0" flags="0x204"/>
      <component glyphName="tilde" x="176" y="0" flags="0x4"/>
    </TTGlyph>
    <TTGlyph name="ayin" xMin="41" yMin="-47" xMax="1163" yMax="1241">
      <contour>
        <pt x="41" y="219" on="1"/>
        <pt x="299" y="223" on="0"/>
        <pt x="442" y="270" on="1"/>
        <pt x="88" y="1241" on="1"/>
        <pt x="381" y="1241" on="1"/>
        <pt x="676" y="391" on="1"/>
        <pt x="789" y="482" on="0"/>
        <pt x="885" y="876" on="0"/>
        <pt x="885" y="1241" on="1"/>
        <pt x="1163" y="1241" on="1"/>
        <pt x="1163" y="764" on="0"/>
        <pt x="950" y="225" on="0"/>
        <pt x="474" y="-28" on="0"/>
        <pt x="41" y="-47" on="1"/>
      </contour>
    </TTGlyph>
    <TTGlyph name="b" xMin="135" yMin="-20" xMax="1167" yMax="1484">
      <contour>
        <pt x="1167" y="545" on="1"/>
        <pt x="1167" y="277" on="0"/>
        <pt x="952" y="-20" on="0"/>
        <pt x="752" y="-20" on="1"/>
        <pt x="637" y="-20" on="0"/>
        <pt x="469" y="80" on="0"/>
        <pt x="424" y="174" on="1"/>
        <pt x="422" y="174" on="1"/>
        <pt x="422" y="139" on="0"/>
        <pt x="413" y="17" on="0"/>
        <pt x="408" y="0" on="1"/>
        <pt x="135" y="0" on="1"/>
        <pt x="143" y="93" on="0"/>
        <pt x="143" y="247" on="1"/>
        <pt x="143" y="1484" on="1"/>
        <pt x="424" y="1484" on="1"/>
        <pt x="424" y="1070" on="1"/>
        <pt x="420" y="894" on="1"/>
        <pt x="424" y="894" on="1"/>
        <pt x="519" y="1102" on="0"/>
        <pt x="770" y="1102" on="1"/>
        <pt x="962" y="1102" on="0"/>
        <pt x="1167" y="811" on="0"/>
      </contour>
      <contour>
        <pt x="874" y="545" on="1"/>
        <pt x="874" y="729" on="0"/>
        <pt x="766" y="907" on="0"/>
        <pt x="653" y="907" on="1"/>
        <pt x="539" y="907" on="0"/>
        <pt x="420" y="716" on="0"/>
        <pt x="420" y="536" on="1"/>
        <pt x="420" y="364" on="0"/>
        <pt x="537" y="172" on="0"/>
        <pt x="651" y="172" on="1"/>
        <pt x="874" y="172" on="0"/>
      </contour>
    </TTGlyph>
    <TTGlyph name="backslash" xMin="21" yMin="-41" xMax="550" yMax="1485">
      <contour>
        <pt x="307" y="-41" on="1"/>
        <pt x="21" y="1485" on="1"/>
        <pt x="259" y="1485" on="1"/>
        <pt x="550" y="-41" on="1"/>
      </contour>
    </TTGlyph>
    <TTGlyph name="bar" xMin="156" yMin="-455" xMax="418" yMax="1484">
      <contour>
        <pt x="156" y="-455" on="1"/>
        <pt x="156" y="1484" on="1"/>
        <pt x="418" y="1484" on="1"/>
        <pt x="418" y="-455" on="1"/>
      </contour>
    </TTGlyph>
    <TTGlyph name="bari.dotless" xMin="22" yMin="0" xMax="547" yMax="1082">
      <contour>
        <pt x="22" y="658" on="1"/>
        <pt x="143" y="658" on="1"/>
        <pt x="143" y="1082" on="1"/>
        <pt x="424" y="1082" on="1"/>
        <pt x="424" y="658" on="1"/>
        <pt x="547" y="658" on="1"/>
        <pt x="547" y="455" on="1"/>
        <pt x="424" y="455" on="1"/>
        <pt x="424" y="0" on="1"/>
        <pt x="143" y="0" on="1"/>
        <pt x="143" y="455" on="1"/>
        <pt x="22" y="455" on="1"/>
      </contour>
    </TTGlyph>
    <TTGlyph name="bet" xMin="82" yMin="0" xMax="1239" yMax="1241">
      <contour>
        <pt x="129" y="999" on="1"/>
        <pt x="129" y="1241" on="1"/>
        <pt x="551" y="1241" on="1"/>
        <pt x="843" y="1241" on="0"/>
        <pt x="1106" y="997" on="0"/>
        <pt x="1106" y="719" on="1"/>
        <pt x="1106" y="242" on="1"/>
        <pt x="1239" y="242" on="1"/>
        <pt x="1239" y="0" on="1"/>
        <pt x="82" y="0" on="1"/>
        <pt x="82" y="242" on="1"/>
        <pt x="836" y="242" on="1"/>
        <pt x="836" y="684" on="1"/>
        <pt x="836" y="859" on="0"/>
        <pt x="705" y="999" on="0"/>
        <pt x="547" y="999" on="1"/>
      </contour>
    </TTGlyph>
    <TTGlyph name="beta" xMin="142" yMin="-425" xMax="1181" yMax="1484">
      <contour>
        <pt x="1181" y="405" on="1"/>
        <pt x="1181" y="206" on="0"/>
        <pt x="944" y="-20" on="0"/>
        <pt x="728" y="-20" on="1"/>
        <pt x="558" y="-20" on="0"/>
        <pt x="425" y="74" on="1"/>
        <pt x="416" y="74" on="1"/>
        <pt x="424" y="-17" on="0"/>
        <pt x="424" y="-128" on="1"/>
        <pt x="424" y="-425" on="1"/>
        <pt x="142" y="-425" on="1"/>
        <pt x="142" y="1027" on="1"/>
        <pt x="142" y="1264" on="0"/>
        <pt x="391" y="1484" on="0"/>
        <pt x="638" y="1484" on="1"/>
        <pt x="851" y="1484" on="0"/>
        <pt x="1082" y="1303" on="0"/>
        <pt x="1082" y="1135" on="1"/>
        <pt x="1082" y="882" on="0"/>
        <pt x="859" y="795" on="1"/>
        <pt x="1009" y="766" on="0"/>
        <pt x="1181" y="559" on="0"/>
      </contour>
      <contour>
        <pt x="424" y="255" on="1"/>
        <pt x="471" y="219" on="0"/>
        <pt x="607" y="172" on="0"/>
        <pt x="672" y="172" on="1"/>
        <pt x="785" y="172" on="0"/>
        <pt x="907" y="304" on="0"/>
        <pt x="907" y="419" on="1"/>
        <pt x="907" y="546" on="0"/>
        <pt x="734" y="676" on="0"/>
        <pt x="576" y="676" on="1"/>
        <pt x="576" y="874" on="1"/>
        <pt x="703" y="896" on="0"/>
        <pt x="816" y="1010" on="0"/>
        <pt x="816" y="1109" on="1"/>
        <pt x="816" y="1189" on="0"/>
        <pt x="723" y="1281" on="0"/>
        <pt x="637" y="1281" on="1"/>
        <pt x="524" y="1281" on="0"/>
        <pt x="424" y="1143" on="0"/>
        <pt x="424" y="991" on="1"/>
      </contour>
    </TTGlyph>
    <TTGlyph name="betdagesh" xMin="82" yMin="0" xMax="1239" yMax="1241">
      <component glyphName="bet" x="0" y="0" flags="0x204"/>
      <component glyphName="dagesh" x="467" y="0" flags="0x4"/>
    </TTGlyph>
    <TTGlyph name="betrafe" xMin="82" yMin="0" xMax="1239" yMax="1579">
      <component glyphName="bet" x="0" y="0" flags="0x204"/>
      <component glyphName="rafe" x="559" y="0" flags="0x4"/>
    </TTGlyph>
    <TTGlyph name="block" xMin="0" yMin="-621" xMax="1451" yMax="1864">
      <contour>
        <pt x="1451" y="-621" on="1"/>
        <pt x="0" y="-621" on="1"/>
        <pt x="0" y="1864" on="1"/>
        <pt x="1451" y="1864" on="1"/>
      </contour>
    </TTGlyph>
    <TTGlyph name="braceleft" xMin="33" yMin="-425" xMax="754" yMax="1484">
      <contour>
        <pt x="557" y="-425" on="1"/>
        <pt x="423" y="-425" on="0"/>
        <pt x="262" y="-268" on="0"/>
        <pt x="262" y="-126" on="1"/>
        <pt x="262" y="202" on="1"/>
        <pt x="262" y="316" on="0"/>
        <pt x="152" y="429" on="0"/>
        <pt x="33" y="431" on="1"/>
        <pt x="33" y="626" on="1"/>
        <pt x="154" y="631" on="0"/>
        <pt x="262" y="744" on="0"/>
        <pt x="262" y="857" on="1"/>
        <pt x="262" y="1185" on="1"/>
        <pt x="262" y="1331" on="0"/>
        <pt x="419" y="1484" on="0"/>
        <pt x="557" y="1484" on="1"/>
        <pt x="754" y="1484" on="1"/>
        <pt x="754" y="1294" on="1"/>
        <pt x="696" y="1294" on="1"/>
        <pt x="605" y="1294" on="0"/>
        <pt x="524" y="1190" on="0"/>
        <pt x="524" y="1085" on="1"/>
        <pt x="524" y="784" on="1"/>
        <pt x="524" y="689" on="0"/>
        <pt x="409" y="551" on="0"/>
        <pt x="317" y="532" on="1"/>
        <pt x="317" y="528" on="1"/>
        <pt x="412" y="506" on="0"/>
        <pt x="524" y="369" on="0"/>
        <pt x="524" y="276" on="1"/>
        <pt x="524" y="-25" on="1"/>
        <pt x="524" y="-131" on="0"/>
        <pt x="605" y="-234" on="0"/>
        <pt x="696" y="-234" on="1"/>
        <pt x="754" y="-234" on="1"/>
        <pt x="754" y="-425" on="1"/>
      </contour>
    </TTGlyph>
    <TTGlyph name="braceright" xMin="43" yMin="-425" xMax="766" yMax="1484">
      <contour>
        <pt x="43" y="-234" on="1"/>
        <pt x="100" y="-234" on="1"/>
        <pt x="193" y="-234" on="0"/>
        <pt x="272" y="-131" on="0"/>
        <pt x="272" y="-25" on="1"/>
        <pt x="272" y="276" on="1"/>
        <pt x="272" y="368" on="0"/>
        <pt x="385" y="506" on="0"/>
        <pt x="479" y="528" on="1"/>
        <pt x="479" y="532" on="1"/>
        <pt x="388" y="551" on="0"/>
        <pt x="272" y="688" on="0"/>
        <pt x="272" y="784" on="1"/>
        <pt x="272" y="1085" on="1"/>
        <pt x="272" y="1190" on="0"/>
        <pt x="193" y="1294" on="0"/>
        <pt x="100" y="1294" on="1"/>
        <pt x="43" y="1294" on="1"/>
        <pt x="43" y="1484" on="1"/>
        <pt x="240" y="1484" on="1"/>
        <pt x="378" y="1484" on="0"/>
        <pt x="535" y="1331" on="0"/>
        <pt x="535" y="1185" on="1"/>
        <pt x="535" y="857" on="1"/>
        <pt x="535" y="745" on="0"/>
        <pt x="645" y="631" on="0"/>
        <pt x="766" y="626" on="1"/>
        <pt x="766" y="431" on="1"/>
        <pt x="645" y="429" on="0"/>
        <pt x="535" y="313" on="0"/>
        <pt x="535" y="202" on="1"/>
        <pt x="535" y="-126" on="1"/>
        <pt x="535" y="-267" on="0"/>
        <pt x="375" y="-425" on="0"/>
        <pt x="240" y="-425" on="1"/>
        <pt x="43" y="-425" on="1"/>
      </contour>
    </TTGlyph>
    <TTGlyph name="bracketleft" xMin="115" yMin="-425" xMax="657" yMax="1484">
      <contour>
        <pt x="115" y="-425" on="1"/>
        <pt x="115" y="1484" on="1"/>
        <pt x="657" y="1484" on="1"/>
        <pt x="657" y="1294" on="1"/>
        <pt x="381" y="1294" on="1"/>
        <pt x="381" y="-234" on="1"/>
        <pt x="657" y="-234" on="1"/>
        <pt x="657" y="-425" on="1"/>
      </contour>
    </TTGlyph>
    <TTGlyph name="bracketright" xMin="25" yMin="-425" xMax="567" yMax="1484">
      <contour>
        <pt x="25" y="-425" on="1"/>
        <pt x="25" y="-234" on="1"/>
        <pt x="303" y="-234" on="1"/>
        <pt x="303" y="1294" on="1"/>
        <pt x="25" y="1294" on="1"/>
        <pt x="25" y="1484" on="1"/>
        <pt x="567" y="1484" on="1"/>
        <pt x="567" y="-425" on="1"/>
      </contour>
    </TTGlyph>
    <TTGlyph name="breve" xMin="-57" yMin="1183" xMax="651" yMax="1506">
      <contour>
        <pt x="295" y="1183" on="1"/>
        <pt x="144" y="1183" on="0"/>
        <pt x="-46" y="1365" on="0"/>
        <pt x="-57" y="1506" on="1"/>
        <pt x="106" y="1506" on="1"/>
        <pt x="122" y="1429" on="0"/>
        <pt x="226" y="1340" on="0"/>
        <pt x="297" y="1340" on="1"/>
        <pt x="368" y="1340" on="0"/>
        <pt x="473" y="1427" on="0"/>
        <pt x="487" y="1506" on="1"/>
        <pt x="651" y="1506" on="1"/>
        <pt x="633" y="1358" on="0"/>
        <pt x="448" y="1183" on="0"/>
      </contour>
    </TTGlyph>
    <TTGlyph name="breve.alt1" xMin="-353" yMin="1183" xMax="355" yMax="1506">
      <component glyphName="breve" x="-296" y="0" flags="0x4"/>
    </TTGlyph>
    <TTGlyph name="breve.cyr" xMin="-67" yMin="1184" xMax="747" yMax="1524">
      <contour>
        <pt x="340" y="1184" on="1"/>
        <pt x="140" y="1184" on="0"/>
        <pt x="-59" y="1348" on="0"/>
        <pt x="-67" y="1524" on="1"/>
        <pt x="157" y="1524" on="1"/>
        <pt x="167" y="1325" on="0"/>
        <pt x="340" y="1325" on="1"/>
        <pt x="513" y="1325" on="0"/>
        <pt x="523" y="1524" on="1"/>
        <pt x="747" y="1524" on="1"/>
        <pt x="739" y="1347" on="0"/>
        <pt x="540" y="1184" on="0"/>
      </contour>
    </TTGlyph>
    <TTGlyph name="breve.uc" xMin="-5" yMin="1520" xMax="703" yMax="1808">
      <contour>
        <pt x="347" y="1520" on="1"/>
        <pt x="202" y="1520" on="0"/>
        <pt x="6" y="1682" on="0"/>
        <pt x="-5" y="1808" on="1"/>
        <pt x="158" y="1808" on="1"/>
        <pt x="173" y="1746" on="0"/>
        <pt x="279" y="1672" on="0"/>
        <pt x="349" y="1672" on="1"/>
        <pt x="421" y="1672" on="0"/>
        <pt x="525" y="1745" on="0"/>
        <pt x="539" y="1808" on="1"/>
        <pt x="703" y="1808" on="1"/>
        <pt x="684" y="1675" on="0"/>
        <pt x="493" y="1520" on="0"/>
      </contour>
    </TTGlyph>
    <TTGlyph name="breveacute" xMin="-313" yMin="1462" xMax="313" yMax="1835">
      <contour>
        <pt x="35" y="1835" on="1"/>
        <pt x="261" y="1835" on="1"/>
        <pt x="261" y="1823" on="1"/>
        <pt x="40" y="1677" on="1"/>
        <pt x="-90" y="1677" on="1"/>
        <pt x="-90" y="1687" on="1"/>
      </contour>
      <contour>
        <pt x="-1" y="1462" on="1"/>
        <pt x="-130" y="1462" on="0"/>
        <pt x="-295" y="1595" on="0"/>
        <pt x="-313" y="1711" on="1"/>
        <pt x="-206" y="1711" on="1"/>
        <pt x="-189" y="1643" on="0"/>
        <pt x="-83" y="1588" on="0"/>
        <pt x="1" y="1588" on="1"/>
        <pt x="85" y="1588" on="0"/>
        <pt x="189" y="1644" on="0"/>
        <pt x="206" y="1711" on="1"/>
        <pt x="313" y="1711" on="1"/>
        <pt x="291" y="1591" on="0"/>
        <pt x="128" y="1462" on="0"/>
      </contour>
    </TTGlyph>
    <TTGlyph name="breveacute.lc" xMin="-353" yMin="1183" xMax="355" yMax="1824">
      <contour>
        <pt x="-1" y="1183" on="1"/>
        <pt x="-152" y="1183" on="0"/>
        <pt x="-342" y="1365" on="0"/>
        <pt x="-353" y="1506" on="1"/>
        <pt x="-190" y="1506" on="1"/>
        <pt x="-174" y="1429" on="0"/>
        <pt x="-70" y="1340" on="0"/>
        <pt x="1" y="1340" on="1"/>
        <pt x="72" y="1340" on="0"/>
        <pt x="177" y="1427" on="0"/>
        <pt x="191" y="1506" on="1"/>
        <pt x="355" y="1506" on="1"/>
        <pt x="337" y="1358" on="0"/>
        <pt x="152" y="1183" on="0"/>
      </contour>
      <contour>
        <pt x="-104" y="1542" on="1"/>
        <pt x="-104" y="1569" on="1"/>
        <pt x="68" y="1824" on="1"/>
        <pt x="326" y="1824" on="1"/>
        <pt x="326" y="1786" on="1"/>
        <pt x="45" y="1542" on="1"/>
      </contour>
    </TTGlyph>
    <TTGlyph name="brevegrave" xMin="-313" yMin="1462" xMax="313" yMax="1835">
      <contour>
        <pt x="92" y="1687" on="1"/>
        <pt x="92" y="1677" on="1"/>
        <pt x="-38" y="1677" on="1"/>
        <pt x="-259" y="1823" on="1"/>
        <pt x="-259" y="1835" on="1"/>
        <pt x="-33" y="1835" on="1"/>
      </contour>
      <contour>
        <pt x="-1" y="1462" on="1"/>
        <pt x="-130" y="1462" on="0"/>
        <pt x="-295" y="1595" on="0"/>
        <pt x="-313" y="1711" on="1"/>
        <pt x="-206" y="1711" on="1"/>
        <pt x="-189" y="1643" on="0"/>
        <pt x="-83" y="1588" on="0"/>
        <pt x="1" y="1588" on="1"/>
        <pt x="85" y="1588" on="0"/>
        <pt x="189" y="1644" on="0"/>
        <pt x="206" y="1711" on="1"/>
        <pt x="313" y="1711" on="1"/>
        <pt x="291" y="1591" on="0"/>
        <pt x="128" y="1462" on="0"/>
      </contour>
    </TTGlyph>
    <TTGlyph name="brevegrave.lc" xMin="-353" yMin="1183" xMax="355" yMax="1824">
      <contour>
        <pt x="-1" y="1183" on="1"/>
        <pt x="-152" y="1183" on="0"/>
        <pt x="-342" y="1365" on="0"/>
        <pt x="-353" y="1506" on="1"/>
        <pt x="-190" y="1506" on="1"/>
        <pt x="-174" y="1429" on="0"/>
        <pt x="-70" y="1340" on="0"/>
        <pt x="1" y="1340" on="1"/>
        <pt x="72" y="1340" on="0"/>
        <pt x="177" y="1427" on="0"/>
        <pt x="191" y="1506" on="1"/>
        <pt x="355" y="1506" on="1"/>
        <pt x="337" y="1358" on="0"/>
        <pt x="152" y="1183" on="0"/>
      </contour>
      <contour>
        <pt x="-60" y="1542" on="1"/>
        <pt x="-341" y="1786" on="1"/>
        <pt x="-341" y="1824" on="1"/>
        <pt x="-83" y="1824" on="1"/>
        <pt x="89" y="1569" on="1"/>
        <pt x="89" y="1542" on="1"/>
      </contour>
    </TTGlyph>
    <TTGlyph name="brevehook" xMin="-313" yMin="1462" xMax="313" yMax="1835">
      <contour>
        <pt x="-1" y="1462" on="1"/>
        <pt x="-130" y="1462" on="0"/>
        <pt x="-295" y="1595" on="0"/>
        <pt x="-313" y="1711" on="1"/>
        <pt x="-206" y="1711" on="1"/>
        <pt x="-189" y="1643" on="0"/>
        <pt x="-83" y="1588" on="0"/>
        <pt x="1" y="1588" on="1"/>
        <pt x="85" y="1588" on="0"/>
        <pt x="189" y="1644" on="0"/>
        <pt x="206" y="1711" on="1"/>
        <pt x="313" y="1711" on="1"/>
        <pt x="291" y="1591" on="0"/>
        <pt x="128" y="1462" on="0"/>
      </contour>
      <contour>
        <pt x="29" y="1732" on="1"/>
        <pt x="29" y="1767" on="0"/>
        <pt x="-30" y="1767" on="1"/>
        <pt x="-81" y="1767" on="0"/>
        <pt x="-121" y="1751" on="1"/>
        <pt x="-141" y="1815" on="1"/>
        <pt x="-83" y="1835" on="0"/>
        <pt x="-16" y="1835" on="1"/>
        <pt x="136" y="1835" on="0"/>
        <pt x="136" y="1739" on="1"/>
        <pt x="136" y="1691" on="0"/>
        <pt x="62" y="1639" on="0"/>
        <pt x="-11" y="1639" on="1"/>
        <pt x="-46" y="1639" on="1"/>
        <pt x="-46" y="1694" on="1"/>
        <pt x="29" y="1694" on="0"/>
      </contour>
    </TTGlyph>
    <TTGlyph name="brevehook.lc" xMin="-354" yMin="1183" xMax="354" yMax="1854">
      <contour>
        <pt x="-2" y="1183" on="1"/>
        <pt x="-153" y="1183" on="0"/>
        <pt x="-343" y="1365" on="0"/>
        <pt x="-354" y="1506" on="1"/>
        <pt x="-191" y="1506" on="1"/>
        <pt x="-175" y="1429" on="0"/>
        <pt x="-71" y="1340" on="0"/>
        <pt x="0" y="1340" on="1"/>
        <pt x="71" y="1340" on="0"/>
        <pt x="176" y="1427" on="0"/>
        <pt x="190" y="1506" on="1"/>
        <pt x="354" y="1506" on="1"/>
        <pt x="336" y="1358" on="0"/>
        <pt x="151" y="1183" on="0"/>
      </contour>
      <contour>
        <pt x="71" y="1687" on="1"/>
        <pt x="71" y="1749" on="0"/>
        <pt x="-76" y="1749" on="1"/>
        <pt x="-128" y="1749" on="0"/>
        <pt x="-184" y="1741" on="1"/>
        <pt x="-195" y="1843" on="1"/>
        <pt x="-140" y="1854" on="0"/>
        <pt x="-28" y="1854" on="1"/>
        <pt x="113" y="1854" on="0"/>
        <pt x="261" y="1775" on="0"/>
        <pt x="261" y="1702" on="1"/>
        <pt x="261" y="1649" on="0"/>
        <pt x="173" y="1577" on="0"/>
        <pt x="79" y="1570" on="1"/>
        <pt x="79" y="1510" on="1"/>
        <pt x="-71" y="1510" on="1"/>
        <pt x="-71" y="1630" on="1"/>
        <pt x="71" y="1630" on="0"/>
      </contour>
    </TTGlyph>
    <TTGlyph name="brevetilde" xMin="-318" yMin="1462" xMax="319" yMax="1835">
      <contour>
        <pt x="1" y="1462" on="1"/>
        <pt x="-101" y="1462" on="0"/>
        <pt x="-234" y="1568" on="0"/>
        <pt x="-248" y="1661" on="1"/>
        <pt x="-163" y="1661" on="1"/>
        <pt x="-134" y="1578" on="0"/>
        <pt x="3" y="1578" on="1"/>
        <pt x="138" y="1578" on="0"/>
        <pt x="167" y="1661" on="1"/>
        <pt x="252" y="1661" on="1"/>
        <pt x="231" y="1561" on="0"/>
        <pt x="102" y="1462" on="0"/>
      </contour>
      <contour>
        <pt x="127" y="1681" on="1"/>
        <pt x="92" y="1681" on="0"/>
        <pt x="24" y="1700" on="0"/>
        <pt x="-41" y="1722" on="0"/>
        <pt x="-102" y="1741" on="0"/>
        <pt x="-129" y="1741" on="1"/>
        <pt x="-210" y="1741" on="0"/>
        <pt x="-227" y="1681" on="1"/>
        <pt x="-318" y="1681" on="1"/>
        <pt x="-306" y="1746" on="0"/>
        <pt x="-264" y="1803" on="0"/>
        <pt x="-189" y="1835" on="0"/>
        <pt x="-125" y="1835" on="1"/>
        <pt x="-89" y="1835" on="0"/>
        <pt x="-19" y="1816" on="0"/>
        <pt x="45" y="1794" on="0"/>
        <pt x="104" y="1775" on="0"/>
        <pt x="130" y="1775" on="1"/>
        <pt x="178" y="1775" on="0"/>
        <pt x="221" y="1806" on="0"/>
        <pt x="227" y="1835" on="1"/>
        <pt x="319" y="1835" on="1"/>
        <pt x="308" y="1771" on="0"/>
        <pt x="266" y="1712" on="0"/>
        <pt x="190" y="1681" on="0"/>
      </contour>
    </TTGlyph>
    <TTGlyph name="brevetilde.lc" xMin="-353" yMin="1183" xMax="359" yMax="1835">
      <contour>
        <pt x="-1" y="1183" on="1"/>
        <pt x="-154" y="1183" on="0"/>
        <pt x="-342" y="1357" on="0"/>
        <pt x="-353" y="1496" on="1"/>
        <pt x="-190" y="1496" on="1"/>
        <pt x="-174" y="1418" on="0"/>
        <pt x="-68" y="1340" on="0"/>
        <pt x="1" y="1340" on="1"/>
        <pt x="73" y="1340" on="0"/>
        <pt x="177" y="1418" on="0"/>
        <pt x="191" y="1496" on="1"/>
        <pt x="355" y="1496" on="1"/>
        <pt x="337" y="1351" on="0"/>
        <pt x="153" y="1183" on="0"/>
      </contour>
      <contour>
        <pt x="157" y="1571" on="1"/>
        <pt x="117" y="1571" on="0"/>
        <pt x="37" y="1606" on="0"/>
        <pt x="-39" y="1647" on="0"/>
        <pt x="-107" y="1682" on="0"/>
        <pt x="-134" y="1682" on="1"/>
        <pt x="-171" y="1682" on="0"/>
        <pt x="-212" y="1635" on="0"/>
        <pt x="-222" y="1571" on="1"/>
        <pt x="-346" y="1571" on="1"/>
        <pt x="-338" y="1673" on="0"/>
        <pt x="-295" y="1776" on="0"/>
        <pt x="-211" y="1835" on="0"/>
        <pt x="-143" y="1835" on="1"/>
        <pt x="-102" y="1835" on="0"/>
        <pt x="-20" y="1801" on="0"/>
        <pt x="55" y="1759" on="0"/>
        <pt x="122" y="1725" on="0"/>
        <pt x="148" y="1725" on="1"/>
        <pt x="192" y="1725" on="0"/>
        <pt x="228" y="1783" on="0"/>
        <pt x="237" y="1835" on="1"/>
        <pt x="359" y="1835" on="1"/>
        <pt x="354" y="1737" on="0"/>
        <pt x="310" y="1632" on="0"/>
        <pt x="226" y="1571" on="0"/>
      </contour>
    </TTGlyph>
    <TTGlyph name="brokenbar" xMin="156" yMin="-455" xMax="418" yMax="1454">
      <contour>
        <pt x="156" y="676" on="1"/>
        <pt x="156" y="1454" on="1"/>
        <pt x="418" y="1454" on="1"/>
        <pt x="418" y="676" on="1"/>
      </contour>
      <contour>
        <pt x="156" y="-455" on="1"/>
        <pt x="156" y="324" on="1"/>
        <pt x="418" y="324" on="1"/>
        <pt x="418" y="-455" on="1"/>
      </contour>
    </TTGlyph>
    <TTGlyph name="bullet" xMin="65" yMin="381" xMax="651" yMax="969">
      <contour>
        <pt x="651" y="676" on="1"/>
        <pt x="651" y="555" on="0"/>
        <pt x="477" y="381" on="0"/>
        <pt x="356" y="381" on="1"/>
        <pt x="237" y="381" on="0"/>
        <pt x="65" y="554" on="0"/>
        <pt x="65" y="676" on="1"/>
        <pt x="65" y="798" on="0"/>
        <pt x="236" y="969" on="0"/>
        <pt x="356" y="969" on="1"/>
        <pt x="478" y="969" on="0"/>
        <pt x="651" y="798" on="0"/>
      </contour>
    </TTGlyph>
    <TTGlyph name="c" xMin="80" yMin="-20" xMax="1079" yMax="1102">
      <contour>
        <pt x="594" y="-20" on="1"/>
        <pt x="348" y="-20" on="0"/>
        <pt x="80" y="273" on="0"/>
        <pt x="80" y="535" on="1"/>
        <pt x="80" y="803" on="0"/>
        <pt x="350" y="1102" on="0"/>
        <pt x="598" y="1102" on="1"/>
        <pt x="789" y="1102" on="0"/>
        <pt x="1039" y="910" on="0"/>
        <pt x="1071" y="741" on="1"/>
        <pt x="788" y="727" on="1"/>
        <pt x="776" y="810" on="0"/>
        <pt x="680" y="909" on="0"/>
        <pt x="592" y="909" on="1"/>
        <pt x="375" y="909" on="0"/>
        <pt x="375" y="546" on="1"/>
        <pt x="375" y="172" on="0"/>
        <pt x="596" y="172" on="1"/>
        <pt x="676" y="172" on="0"/>
        <pt x="784" y="273" on="0"/>
        <pt x="797" y="373" on="1"/>
        <pt x="1079" y="360" on="1"/>
        <pt x="1064" y="249" on="0"/>
        <pt x="935" y="75" on="0"/>
        <pt x="725" y="-20" on="0"/>
      </contour>
    </TTGlyph>
    <TTGlyph name="cacute" xMin="80" yMin="-20" xMax="1079" yMax="1502">
      <component glyphName="c" x="0" y="0" flags="0x204"/>
      <component glyphName="acute" x="359" y="0" flags="0x4"/>
    </TTGlyph>
    <TTGlyph name="caron" xMin="0" yMin="1183" xMax="737" yMax="1529">
      <contour>
        <pt x="487" y="1183" on="1"/>
        <pt x="258" y="1183" on="1"/>
        <pt x="0" y="1500" on="1"/>
        <pt x="0" y="1529" on="1"/>
        <pt x="160" y="1529" on="1"/>
        <pt x="371" y="1336" on="1"/>
        <pt x="375" y="1336" on="1"/>
        <pt x="578" y="1529" on="1"/>
        <pt x="737" y="1529" on="1"/>
        <pt x="737" y="1500" on="1"/>
      </contour>
    </TTGlyph>
    <TTGlyph name="caron.uc" xMin="-27" yMin="1530" xMax="710" yMax="1835">
      <contour>
        <pt x="460" y="1530" on="1"/>
        <pt x="231" y="1530" on="1"/>
        <pt x="-27" y="1806" on="1"/>
        <pt x="-27" y="1835" on="1"/>
        <pt x="133" y="1835" on="1"/>
        <pt x="344" y="1683" on="1"/>
        <pt x="348" y="1683" on="1"/>
        <pt x="551" y="1835" on="1"/>
        <pt x="710" y="1835" on="1"/>
        <pt x="710" y="1806" on="1"/>
      </contour>
    </TTGlyph>
    <TTGlyph name="caroncommaaccent" xMin="113" yMin="1012" xMax="358" yMax="1409">
      <contour>
        <pt x="358" y="1263" on="1"/>
        <pt x="358" y="1190" on="0"/>
        <pt x="315" y="1072" on="0"/>
        <pt x="264" y="1012" on="1"/>
        <pt x="127" y="1012" on="1"/>
        <pt x="221" y="1112" on="0"/>
        <pt x="221" y="1202" on="1"/>
        <pt x="113" y="1202" on="1"/>
        <pt x="113" y="1409" on="1"/>
        <pt x="358" y="1409" on="1"/>
      </contour>
    </TTGlyph>
    <TTGlyph name="ccaron" xMin="80" yMin="-20" xMax="1079" yMax="1529">
      <component glyphName="c" x="0" y="0" flags="0x204"/>
      <component glyphName="caron" x="214" y="0" flags="0x4"/>
    </TTGlyph>
    <TTGlyph name="ccedilla" xMin="80" yMin="-425" xMax="1079" yMax="1102">
      <component glyphName="c" x="0" y="0" flags="0x204"/>
      <component glyphName="cedilla" x="291" y="0" flags="0x4"/>
    </TTGlyph>
    <TTGlyph name="ccircumflex" xMin="80" yMin="-20" xMax="1079" yMax="1529">
      <component glyphName="c" x="0" y="0" flags="0x204"/>
      <component glyphName="circumflex" x="230" y="0" flags="0x4"/>
    </TTGlyph>
    <TTGlyph name="cdotaccent" xMin="80" yMin="-20" xMax="1079" yMax="1484">
      <component glyphName="c" x="0" y="0" flags="0x204"/>
      <component glyphName="dotaccent" x="260" y="0" flags="0x4"/>
    </TTGlyph>
    <TTGlyph name="cedilla" xMin="96" yMin="-425" xMax="500" yMax="0">
      <contour>
        <pt x="500" y="-235" on="1"/>
        <pt x="500" y="-329" on="0"/>
        <pt x="344" y="-425" on="0"/>
        <pt x="197" y="-425" on="1"/>
        <pt x="152" y="-425" on="0"/>
        <pt x="96" y="-419" on="1"/>
        <pt x="96" y="-301" on="1"/>
        <pt x="131" y="-308" on="0"/>
        <pt x="180" y="-308" on="1"/>
        <pt x="317" y="-308" on="0"/>
        <pt x="317" y="-239" on="1"/>
        <pt x="317" y="-204" on="0"/>
        <pt x="261" y="-170" on="0"/>
        <pt x="195" y="-170" on="1"/>
        <pt x="157" y="-170" on="0"/>
        <pt x="143" y="-172" on="1"/>
        <pt x="205" y="0" on="1"/>
        <pt x="348" y="0" on="1"/>
        <pt x="315" y="-82" on="1"/>
        <pt x="409" y="-87" on="0"/>
        <pt x="500" y="-169" on="0"/>
      </contour>
    </TTGlyph>
    <TTGlyph name="cent" xMin="51" yMin="-31" xMax="1092" yMax="1409">
      <contour>
        <pt x="588" y="340" on="1"/>
        <pt x="676" y="340" on="0"/>
        <pt x="795" y="449" on="0"/>
        <pt x="809" y="549" on="1"/>
        <pt x="1092" y="537" on="1"/>
        <pt x="1070" y="384" on="0"/>
        <pt x="846" y="181" on="0"/>
        <pt x="668" y="160" on="1"/>
        <pt x="668" y="-31" on="1"/>
        <pt x="506" y="-31" on="1"/>
        <pt x="506" y="158" on="1"/>
        <pt x="291" y="179" on="0"/>
        <pt x="51" y="451" on="0"/>
        <pt x="51" y="686" on="1"/>
        <pt x="51" y="918" on="0"/>
        <pt x="286" y="1200" on="0"/>
        <pt x="506" y="1225" on="1"/>
        <pt x="506" y="1409" on="1"/>
        <pt x="668" y="1409" on="1"/>
        <pt x="668" y="1225" on="1"/>
        <pt x="837" y="1206" on="0"/>
        <pt x="1055" y="1019" on="0"/>
        <pt x="1083" y="868" on="1"/>
        <pt x="801" y="854" on="1"/>
        <pt x="786" y="945" on="0"/>
        <pt x="674" y="1044" on="0"/>
        <pt x="586" y="1044" on="1"/>
        <pt x="462" y="1044" on="0"/>
        <pt x="334" y="860" on="0"/>
        <pt x="334" y="696" on="1"/>
        <pt x="334" y="522" on="0"/>
        <pt x="467" y="340" on="0"/>
      </contour>
    </TTGlyph>
    <TTGlyph name="chi" xMin="13" yMin="-424" xMax="1169" yMax="1104">
      <contour>
        <pt x="233" y="1104" on="1"/>
        <pt x="307" y="1104" on="0"/>
        <pt x="411" y="1039" on="0"/>
        <pt x="508" y="889" on="0"/>
        <pt x="606" y="664" on="1"/>
        <pt x="620" y="618" on="1"/>
        <pt x="646" y="692" on="0"/>
        <pt x="679" y="757" on="1"/>
        <pt x="834" y="1082" on="1"/>
        <pt x="1131" y="1082" on="1"/>
        <pt x="756" y="392" on="1"/>
        <pt x="1169" y="-424" on="1"/>
        <pt x="869" y="-424" on="1"/>
        <pt x="674" y="8" on="1"/>
        <pt x="627" y="110" on="0"/>
        <pt x="602" y="198" on="1"/>
        <pt x="593" y="169" on="0"/>
        <pt x="541" y="42" on="0"/>
        <pt x="527" y="13" on="1"/>
        <pt x="313" y="-424" on="1"/>
        <pt x="13" y="-424" on="1"/>
        <pt x="465" y="405" on="1"/>
        <pt x="346" y="648" on="1"/>
        <pt x="293" y="756" on="0"/>
        <pt x="229" y="858" on="0"/>
        <pt x="175" y="899" on="0"/>
        <pt x="138" y="899" on="1"/>
        <pt x="97" y="899" on="0"/>
        <pt x="57" y="883" on="1"/>
        <pt x="17" y="1074" on="1"/>
        <pt x="102" y="1104" on="0"/>
      </contour>
    </TTGlyph>
    <TTGlyph name="circle" xMin="167" yMin="162" xMax="1070" yMax="1065">
      <contour>
        <pt x="167" y="612" on="1"/>
        <pt x="167" y="734" on="0"/>
        <pt x="287" y="944" on="0"/>
        <pt x="496" y="1065" on="0"/>
        <pt x="617" y="1065" on="1"/>
        <pt x="739" y="1065" on="0"/>
        <pt x="949" y="944" on="0"/>
        <pt x="1070" y="733" on="0"/>
        <pt x="1070" y="612" on="1"/>
        <pt x="1070" y="491" on="0"/>
        <pt x="949" y="282" on="0"/>
        <pt x="740" y="162" on="0"/>
        <pt x="617" y="162" on="1"/>
        <pt x="495" y="162" on="0"/>
        <pt x="287" y="282" on="0"/>
        <pt x="167" y="490" on="0"/>
      </contour>
      <contour>
        <pt x="253" y="612" on="1"/>
        <pt x="253" y="514" on="0"/>
        <pt x="351" y="345" on="0"/>
        <pt x="518" y="248" on="0"/>
        <pt x="617" y="248" on="1"/>
        <pt x="715" y="248" on="0"/>
        <pt x="884" y="344" on="0"/>
        <pt x="984" y="514" on="0"/>
        <pt x="984" y="612" on="1"/>
        <pt x="984" y="710" on="0"/>
        <pt x="886" y="881" on="0"/>
        <pt x="715" y="979" on="0"/>
        <pt x="617" y="979" on="1"/>
        <pt x="520" y="979" on="0"/>
        <pt x="351" y="881" on="0"/>
        <pt x="253" y="712" on="0"/>
      </contour>
    </TTGlyph>
    <TTGlyph name="circumflex" xMin="0" yMin="1183" xMax="737" yMax="1529">
      <contour>
        <pt x="737" y="1211" on="1"/>
        <pt x="737" y="1183" on="1"/>
        <pt x="578" y="1183" on="1"/>
        <pt x="375" y="1375" on="1"/>
        <pt x="371" y="1375" on="1"/>
        <pt x="160" y="1183" on="1"/>
        <pt x="0" y="1183" on="1"/>
        <pt x="0" y="1211" on="1"/>
        <pt x="258" y="1529" on="1"/>
        <pt x="487" y="1529" on="1"/>
      </contour>
    </TTGlyph>
    <TTGlyph name="circumflex.alt1" xMin="-367" yMin="1183" xMax="370" yMax="1529">
      <component glyphName="circumflex" x="-367" y="0" flags="0x4"/>
    </TTGlyph>
    <TTGlyph name="circumflex.uc" xMin="-27" yMin="1530" xMax="710" yMax="1835">
      <contour>
        <pt x="710" y="1559" on="1"/>
        <pt x="710" y="1530" on="1"/>
        <pt x="551" y="1530" on="1"/>
        <pt x="348" y="1681" on="1"/>
        <pt x="344" y="1681" on="1"/>
        <pt x="133" y="1530" on="1"/>
        <pt x="-27" y="1530" on="1"/>
        <pt x="-27" y="1559" on="1"/>
        <pt x="231" y="1835" on="1"/>
        <pt x="460" y="1835" on="1"/>
      </contour>
    </TTGlyph>
    <TTGlyph name="circumflexacute" xMin="-329" yMin="1462" xMax="529" yMax="1835">
      <contour>
        <pt x="312" y="1835" on="1"/>
        <pt x="529" y="1835" on="1"/>
        <pt x="529" y="1823" on="1"/>
        <pt x="303" y="1647" on="1"/>
        <pt x="207" y="1647" on="1"/>
        <pt x="207" y="1657" on="1"/>
      </contour>
      <contour>
        <pt x="323" y="1482" on="1"/>
        <pt x="323" y="1462" on="1"/>
        <pt x="218" y="1462" on="1"/>
        <pt x="-1" y="1631" on="1"/>
        <pt x="-3" y="1631" on="1"/>
        <pt x="-225" y="1462" on="1"/>
        <pt x="-329" y="1462" on="1"/>
        <pt x="-329" y="1482" on="1"/>
        <pt x="-105" y="1752" on="1"/>
        <pt x="99" y="1752" on="1"/>
      </contour>
    </TTGlyph>
    <TTGlyph name="circumflexacute.lc" xMin="-368" yMin="1183" xMax="569" yMax="1574">
      <contour>
        <pt x="352" y="1574" on="1"/>
        <pt x="569" y="1574" on="1"/>
        <pt x="569" y="1562" on="1"/>
        <pt x="363" y="1386" on="1"/>
        <pt x="247" y="1386" on="1"/>
        <pt x="247" y="1396" on="1"/>
      </contour>
      <contour>
        <pt x="369" y="1211" on="1"/>
        <pt x="369" y="1183" on="1"/>
        <pt x="210" y="1183" on="1"/>
        <pt x="7" y="1375" on="1"/>
        <pt x="3" y="1375" on="1"/>
        <pt x="-208" y="1183" on="1"/>
        <pt x="-368" y="1183" on="1"/>
        <pt x="-368" y="1211" on="1"/>
        <pt x="-110" y="1529" on="1"/>
        <pt x="119" y="1529" on="1"/>
      </contour>
    </TTGlyph>
    <TTGlyph name="circumflexgrave" xMin="-530" yMin="1462" xMax="328" yMax="1835">
      <contour>
        <pt x="-208" y="1657" on="1"/>
        <pt x="-208" y="1647" on="1"/>
        <pt x="-304" y="1647" on="1"/>
        <pt x="-530" y="1823" on="1"/>
        <pt x="-530" y="1835" on="1"/>
        <pt x="-313" y="1835" on="1"/>
      </contour>
      <contour>
        <pt x="-100" y="1752" on="1"/>
        <pt x="104" y="1752" on="1"/>
        <pt x="328" y="1482" on="1"/>
        <pt x="328" y="1462" on="1"/>
        <pt x="224" y="1462" on="1"/>
        <pt x="2" y="1631" on="1"/>
        <pt x="0" y="1631" on="1"/>
        <pt x="-219" y="1462" on="1"/>
        <pt x="-324" y="1462" on="1"/>
        <pt x="-324" y="1482" on="1"/>
      </contour>
    </TTGlyph>
    <TTGlyph name="circumflexgrave.lc" xMin="-563" yMin="1183" xMax="374" yMax="1574">
      <contour>
        <pt x="-241" y="1396" on="1"/>
        <pt x="-241" y="1386" on="1"/>
        <pt x="-357" y="1386" on="1"/>
        <pt x="-563" y="1562" on="1"/>
        <pt x="-563" y="1574" on="1"/>
        <pt x="-346" y="1574" on="1"/>
      </contour>
      <contour>
        <pt x="-113" y="1529" on="1"/>
        <pt x="116" y="1529" on="1"/>
        <pt x="374" y="1211" on="1"/>
        <pt x="374" y="1183" on="1"/>
        <pt x="214" y="1183" on="1"/>
        <pt x="3" y="1375" on="1"/>
        <pt x="-1" y="1375" on="1"/>
        <pt x="-204" y="1183" on="1"/>
        <pt x="-363" y="1183" on="1"/>
        <pt x="-363" y="1211" on="1"/>
      </contour>
    </TTGlyph>
    <TTGlyph name="circumflexhook" xMin="-329" yMin="1462" xMax="447" yMax="1835">
      <contour>
        <pt x="340" y="1732" on="1"/>
        <pt x="340" y="1767" on="0"/>
        <pt x="281" y="1767" on="1"/>
        <pt x="230" y="1767" on="0"/>
        <pt x="190" y="1751" on="1"/>
        <pt x="170" y="1815" on="1"/>
        <pt x="228" y="1835" on="0"/>
        <pt x="295" y="1835" on="1"/>
        <pt x="447" y="1835" on="0"/>
        <pt x="447" y="1739" on="1"/>
        <pt x="447" y="1695" on="0"/>
        <pt x="380" y="1639" on="0"/>
        <pt x="326" y="1639" on="1"/>
        <pt x="326" y="1616" on="1"/>
        <pt x="265" y="1616" on="1"/>
        <pt x="265" y="1694" on="1"/>
        <pt x="340" y="1694" on="0"/>
      </contour>
      <contour>
        <pt x="323" y="1482" on="1"/>
        <pt x="323" y="1462" on="1"/>
        <pt x="218" y="1462" on="1"/>
        <pt x="-1" y="1631" on="1"/>
        <pt x="-3" y="1631" on="1"/>
        <pt x="-225" y="1462" on="1"/>
        <pt x="-329" y="1462" on="1"/>
        <pt x="-329" y="1482" on="1"/>
        <pt x="-105" y="1752" on="1"/>
        <pt x="99" y="1752" on="1"/>
      </contour>
    </TTGlyph>
    <TTGlyph name="circumflexhook.lc" xMin="-368" yMin="1183" xMax="510" yMax="1653">
      <contour>
        <pt x="375" y="1524" on="1"/>
        <pt x="375" y="1568" on="0"/>
        <pt x="299" y="1568" on="1"/>
        <pt x="238" y="1568" on="0"/>
        <pt x="185" y="1549" on="1"/>
        <pt x="159" y="1629" on="1"/>
        <pt x="229" y="1653" on="0"/>
        <pt x="318" y="1653" on="1"/>
        <pt x="510" y="1653" on="0"/>
        <pt x="510" y="1541" on="1"/>
        <pt x="510" y="1493" on="0"/>
        <pt x="444" y="1424" on="0"/>
        <pt x="371" y="1415" on="1"/>
        <pt x="371" y="1377" on="1"/>
        <pt x="280" y="1377" on="1"/>
        <pt x="280" y="1471" on="1"/>
        <pt x="322" y="1473" on="0"/>
        <pt x="375" y="1491" on="0"/>
      </contour>
      <contour>
        <pt x="369" y="1211" on="1"/>
        <pt x="369" y="1183" on="1"/>
        <pt x="210" y="1183" on="1"/>
        <pt x="7" y="1375" on="1"/>
        <pt x="3" y="1375" on="1"/>
        <pt x="-208" y="1183" on="1"/>
        <pt x="-368" y="1183" on="1"/>
        <pt x="-368" y="1211" on="1"/>
        <pt x="-110" y="1529" on="1"/>
        <pt x="119" y="1529" on="1"/>
      </contour>
    </TTGlyph>
    <TTGlyph name="circumflextilde" xMin="-318" yMin="1462" xMax="319" yMax="1835">
      <contour>
        <pt x="127" y="1641" on="1"/>
        <pt x="76" y="1641" on="0"/>
        <pt x="-8" y="1679" on="1"/>
        <pt x="-93" y="1716" on="0"/>
        <pt x="-129" y="1716" on="1"/>
        <pt x="-174" y="1716" on="0"/>
        <pt x="-219" y="1681" on="0"/>
        <pt x="-227" y="1641" on="1"/>
        <pt x="-318" y="1641" on="1"/>
        <pt x="-307" y="1723" on="0"/>
        <pt x="-264" y="1795" on="0"/>
        <pt x="-188" y="1835" on="0"/>
        <pt x="-125" y="1835" on="1"/>
        <pt x="-70" y="1835" on="0"/>
        <pt x="13" y="1798" on="1"/>
        <pt x="96" y="1760" on="0"/>
        <pt x="130" y="1760" on="1"/>
        <pt x="178" y="1760" on="0"/>
        <pt x="221" y="1798" on="0"/>
        <pt x="227" y="1835" on="1"/>
        <pt x="319" y="1835" on="1"/>
        <pt x="307" y="1754" on="0"/>
        <pt x="265" y="1680" on="0"/>
        <pt x="190" y="1641" on="0"/>
      </contour>
      <contour>
        <pt x="1" y="1529" on="1"/>
        <pt x="-150" y="1462" on="1"/>
        <pt x="-305" y="1462" on="1"/>
        <pt x="-305" y="1474" on="1"/>
        <pt x="-96" y="1615" on="1"/>
        <pt x="99" y="1615" on="1"/>
        <pt x="307" y="1472" on="1"/>
        <pt x="307" y="1462" on="1"/>
        <pt x="152" y="1462" on="1"/>
      </contour>
    </TTGlyph>
    <TTGlyph name="circumflextilde.lc" xMin="-373" yMin="1173" xMax="372" yMax="1807">
      <contour>
        <pt x="151" y="1543" on="1"/>
        <pt x="111" y="1543" on="0"/>
        <pt x="31" y="1578" on="0"/>
        <pt x="-45" y="1619" on="0"/>
        <pt x="-113" y="1654" on="0"/>
        <pt x="-140" y="1654" on="1"/>
        <pt x="-177" y="1654" on="0"/>
        <pt x="-218" y="1607" on="0"/>
        <pt x="-228" y="1543" on="1"/>
        <pt x="-352" y="1543" on="1"/>
        <pt x="-344" y="1645" on="0"/>
        <pt x="-301" y="1748" on="0"/>
        <pt x="-217" y="1807" on="0"/>
        <pt x="-149" y="1807" on="1"/>
        <pt x="-108" y="1807" on="0"/>
        <pt x="-26" y="1773" on="0"/>
        <pt x="49" y="1731" on="0"/>
        <pt x="116" y="1697" on="0"/>
        <pt x="142" y="1697" on="1"/>
        <pt x="186" y="1697" on="0"/>
        <pt x="222" y="1755" on="0"/>
        <pt x="231" y="1807" on="1"/>
        <pt x="353" y="1807" on="1"/>
        <pt x="348" y="1709" on="0"/>
        <pt x="304" y="1604" on="0"/>
        <pt x="220" y="1543" on="0"/>
      </contour>
      <contour>
        <pt x="-115" y="1489" on="1"/>
        <pt x="114" y="1489" on="1"/>
        <pt x="372" y="1201" on="1"/>
        <pt x="372" y="1173" on="1"/>
        <pt x="212" y="1173" on="1"/>
        <pt x="1" y="1335" on="1"/>
        <pt x="-3" y="1335" on="1"/>
        <pt x="-214" y="1173" on="1"/>
        <pt x="-373" y="1173" on="1"/>
        <pt x="-373" y="1201" on="1"/>
      </contour>
    </TTGlyph>
    <TTGlyph name="club" xMin="60" yMin="0" xMax="1284" yMax="1223">
      <contour>
        <pt x="1094" y="0" on="1"/>
        <pt x="252" y="0" on="1"/>
        <pt x="260" y="35" on="1"/>
        <pt x="395" y="62" on="0"/>
        <pt x="514" y="116" on="0"/>
        <pt x="609" y="236" on="0"/>
        <pt x="662" y="385" on="0"/>
        <pt x="662" y="461" on="1"/>
        <pt x="660" y="508" on="1"/>
        <pt x="603" y="388" on="0"/>
        <pt x="425" y="270" on="0"/>
        <pt x="336" y="270" on="1"/>
        <pt x="259" y="270" on="0"/>
        <pt x="130" y="346" on="0"/>
        <pt x="60" y="472" on="0"/>
        <pt x="60" y="549" on="1"/>
        <pt x="60" y="664" on="0"/>
        <pt x="206" y="822" on="0"/>
        <pt x="299" y="823" on="1"/>
        <pt x="361" y="823" on="0"/>
        <pt x="461" y="772" on="1"/>
        <pt x="423" y="837" on="0"/>
        <pt x="406" y="877" on="1"/>
        <pt x="395" y="914" on="0"/>
        <pt x="395" y="952" on="1"/>
        <pt x="395" y="1073" on="0"/>
        <pt x="557" y="1223" on="0"/>
        <pt x="670" y="1223" on="1"/>
        <pt x="786" y="1223" on="0"/>
        <pt x="946" y="1063" on="0"/>
        <pt x="946" y="956" on="1"/>
        <pt x="946" y="870" on="0"/>
        <pt x="877" y="772" on="1"/>
        <pt x="961" y="812" on="0"/>
        <pt x="977" y="815" on="1"/>
        <pt x="999" y="823" on="0"/>
        <pt x="1038" y="823" on="1"/>
        <pt x="1143" y="823" on="0"/>
        <pt x="1211" y="745" on="1"/>
        <pt x="1284" y="669" on="0"/>
        <pt x="1284" y="553" on="1"/>
        <pt x="1284" y="437" on="0"/>
        <pt x="1128" y="272" on="0"/>
        <pt x="1012" y="272" on="1"/>
        <pt x="956" y="272" on="0"/>
        <pt x="838" y="321" on="0"/>
        <pt x="743" y="403" on="0"/>
        <pt x="682" y="508" on="1"/>
        <pt x="687" y="382" on="0"/>
        <pt x="736" y="229" on="0"/>
        <pt x="845" y="109" on="0"/>
        <pt x="972" y="56" on="0"/>
        <pt x="1086" y="35" on="1"/>
      </contour>
    </TTGlyph>
    <TTGlyph name="colon" xMin="197" yMin="0" xMax="485" yMax="1034">
      <contour>
        <pt x="197" y="752" on="1"/>
        <pt x="197" y="1034" on="1"/>
        <pt x="485" y="1034" on="1"/>
        <pt x="485" y="752" on="1"/>
      </contour>
      <contour>
        <pt x="197" y="0" on="1"/>
        <pt x="197" y="281" on="1"/>
        <pt x="485" y="281" on="1"/>
        <pt x="485" y="0" on="1"/>
      </contour>
    </TTGlyph>
    <TTGlyph name="comma" xMin="139" yMin="-317" xMax="432" yMax="305">
      <contour>
        <pt x="432" y="66" on="1"/>
        <pt x="432" y="-54" on="0"/>
        <pt x="381" y="-238" on="0"/>
        <pt x="324" y="-317" on="1"/>
        <pt x="139" y="-317" on="1"/>
        <pt x="198" y="-246" on="0"/>
        <pt x="272" y="-76" on="0"/>
        <pt x="272" y="0" on="1"/>
        <pt x="143" y="0" on="1"/>
        <pt x="143" y="305" on="1"/>
        <pt x="432" y="305" on="1"/>
      </contour>
    </TTGlyph>
    <TTGlyph name="commaaccent" xMin="103" yMin="-455" xMax="348" yMax="-78">
      <contour>
        <pt x="348" y="-204" on="1"/>
        <pt x="348" y="-277" on="0"/>
        <pt x="305" y="-394" on="0"/>
        <pt x="254" y="-455" on="1"/>
        <pt x="117" y="-455" on="1"/>
        <pt x="211" y="-355" on="0"/>
        <pt x="211" y="-285" on="1"/>
        <pt x="103" y="-285" on="1"/>
        <pt x="103" y="-78" on="1"/>
        <pt x="348" y="-78" on="1"/>
      </contour>
    </TTGlyph>
    <TTGlyph name="commaaccentrotate" xMin="103" yMin="1212" xMax="348" yMax="1609">
      <contour>
        <pt x="103" y="1358" on="1"/>
        <pt x="103" y="1445" on="0"/>
        <pt x="147" y="1562" on="0"/>
        <pt x="187" y="1609" on="1"/>
        <pt x="334" y="1609" on="1"/>
        <pt x="240" y="1509" on="0"/>
        <pt x="240" y="1419" on="1"/>
        <pt x="348" y="1419" on="1"/>
        <pt x="348" y="1212" on="1"/>
        <pt x="103" y="1212" on="1"/>
      </contour>
    </TTGlyph>
    <TTGlyph name="copyright" xMin="32" yMin="-16" xMax="1478" yMax="1430">
      <contour>
        <pt x="1478" y="707" on="1"/>
        <pt x="1478" y="514" on="0"/>
        <pt x="1285" y="177" on="0"/>
        <pt x="948" y="-16" on="0"/>
        <pt x="755" y="-16" on="1"/>
        <pt x="558" y="-16" on="0"/>
        <pt x="219" y="185" on="0"/>
        <pt x="32" y="518" on="0"/>
        <pt x="32" y="707" on="1"/>
        <pt x="32" y="900" on="0"/>
        <pt x="226" y="1236" on="0"/>
        <pt x="562" y="1430" on="0"/>
        <pt x="755" y="1430" on="1"/>
        <pt x="949" y="1430" on="0"/>
        <pt x="1286" y="1235" on="0"/>
        <pt x="1478" y="901" on="0"/>
      </contour>
      <contour>
        <pt x="1366" y="707" on="1"/>
        <pt x="1366" y="870" on="0"/>
        <pt x="1202" y="1151" on="0"/>
        <pt x="918" y="1315" on="0"/>
        <pt x="755" y="1315" on="1"/>
        <pt x="598" y="1315" on="0"/>
        <pt x="318" y="1159" on="0"/>
        <pt x="147" y="876" on="0"/>
        <pt x="147" y="707" on="1"/>
        <pt x="147" y="544" on="0"/>
        <pt x="310" y="260" on="0"/>
        <pt x="591" y="96" on="0"/>
        <pt x="755" y="96" on="1"/>
        <pt x="919" y="96" on="0"/>
        <pt x="1203" y="260" on="0"/>
        <pt x="1366" y="544" on="0"/>
      </contour>
      <contour>
        <pt x="544" y="709" on="1"/>
        <pt x="544" y="574" on="0"/>
        <pt x="662" y="426" on="0"/>
        <pt x="768" y="426" on="1"/>
        <pt x="834" y="426" on="0"/>
        <pt x="936" y="500" on="0"/>
        <pt x="964" y="569" on="1"/>
        <pt x="1124" y="522" on="1"/>
        <pt x="1066" y="397" on="0"/>
        <pt x="892" y="285" on="0"/>
        <pt x="768" y="285" on="1"/>
        <pt x="575" y="285" on="0"/>
        <pt x="364" y="507" on="0"/>
        <pt x="364" y="709" on="1"/>
        <pt x="364" y="912" on="0"/>
        <pt x="568" y="1124" on="0"/>
        <pt x="759" y="1124" on="1"/>
        <pt x="889" y="1124" on="0"/>
        <pt x="1064" y="1012" on="0"/>
        <pt x="1112" y="895" on="1"/>
        <pt x="956" y="854" on="1"/>
        <pt x="930" y="915" on="0"/>
        <pt x="833" y="983" on="0"/>
        <pt x="764" y="983" on="1"/>
        <pt x="655" y="983" on="0"/>
        <pt x="544" y="843" on="0"/>
      </contour>
    </TTGlyph>
    <TTGlyph name="currency" xMin="57" yMin="170" xMax="1081" yMax="1196">
      <contour>
        <pt x="134" y="684" on="1"/>
        <pt x="134" y="804" on="0"/>
        <pt x="194" y="905" on="1"/>
        <pt x="61" y="1038" on="1"/>
        <pt x="218" y="1194" on="1"/>
        <pt x="349" y="1061" on="1"/>
        <pt x="450" y="1120" on="0"/>
        <pt x="569" y="1120" on="1"/>
        <pt x="690" y="1120" on="0"/>
        <pt x="788" y="1061" on="1"/>
        <pt x="923" y="1196" on="1"/>
        <pt x="1081" y="1038" on="1"/>
        <pt x="945" y="903" on="1"/>
        <pt x="1005" y="804" on="0"/>
        <pt x="1005" y="684" on="1"/>
        <pt x="1005" y="566" on="0"/>
        <pt x="947" y="467" on="1"/>
        <pt x="1081" y="334" on="1"/>
        <pt x="923" y="174" on="1"/>
        <pt x="790" y="309" on="1"/>
        <pt x="690" y="250" on="0"/>
        <pt x="569" y="250" on="1"/>
        <pt x="447" y="250" on="0"/>
        <pt x="349" y="307" on="1"/>
        <pt x="214" y="170" on="1"/>
        <pt x="57" y="328" on="1"/>
        <pt x="192" y="465" on="1"/>
        <pt x="134" y="564" on="0"/>
      </contour>
      <contour>
        <pt x="360" y="686" on="1"/>
        <pt x="360" y="600" on="0"/>
        <pt x="482" y="477" on="0"/>
        <pt x="569" y="477" on="1"/>
        <pt x="654" y="477" on="0"/>
        <pt x="777" y="601" on="0"/>
        <pt x="777" y="686" on="1"/>
        <pt x="777" y="772" on="0"/>
        <pt x="655" y="895" on="0"/>
        <pt x="569" y="895" on="1"/>
        <pt x="483" y="895" on="0"/>
        <pt x="360" y="773" on="0"/>
      </contour>
    </TTGlyph>
    <TTGlyph name="cyrillic_otmark" xMin="-457" yMin="1160" xMax="457" yMax="1375">
      <contour>
        <pt x="457" y="1375" on="1"/>
        <pt x="367" y="1160" on="1"/>
        <pt x="328" y="1160" on="1"/>
        <pt x="281" y="1271" on="1"/>
        <pt x="67" y="1271" on="1"/>
        <pt x="20" y="1160" on="1"/>
        <pt x="-20" y="1160" on="1"/>
        <pt x="-67" y="1271" on="1"/>
        <pt x="-281" y="1271" on="1"/>
        <pt x="-328" y="1160" on="1"/>
        <pt x="-367" y="1160" on="1"/>
        <pt x="-457" y="1375" on="1"/>
      </contour>
    </TTGlyph>
    <TTGlyph name="d" xMin="84" yMin="-20" xMax="1116" yMax="1484">
      <contour>
        <pt x="844" y="0" on="1"/>
        <pt x="840" y="15" on="0"/>
        <pt x="829" y="136" on="0"/>
        <pt x="829" y="176" on="1"/>
        <pt x="825" y="176" on="1"/>
        <pt x="734" y="-20" on="0"/>
        <pt x="479" y="-20" on="1"/>
        <pt x="290" y="-20" on="0"/>
        <pt x="84" y="275" on="0"/>
        <pt x="84" y="540" on="1"/>
        <pt x="84" y="809" on="0"/>
        <pt x="301" y="1102" on="0"/>
        <pt x="500" y="1102" on="1"/>
        <pt x="615" y="1102" on="0"/>
        <pt x="782" y="1006" on="0"/>
        <pt x="827" y="911" on="1"/>
        <pt x="829" y="911" on="1"/>
        <pt x="827" y="1089" on="1"/>
        <pt x="827" y="1484" on="1"/>
        <pt x="1108" y="1484" on="1"/>
        <pt x="1108" y="236" on="1"/>
        <pt x="1108" y="136" on="0"/>
        <pt x="1116" y="0" on="1"/>
      </contour>
      <contour>
        <pt x="831" y="547" on="1"/>
        <pt x="831" y="722" on="0"/>
        <pt x="714" y="911" on="0"/>
        <pt x="600" y="911" on="1"/>
        <pt x="487" y="911" on="0"/>
        <pt x="377" y="728" on="0"/>
        <pt x="377" y="540" on="1"/>
        <pt x="377" y="172" on="0"/>
        <pt x="598" y="172" on="1"/>
        <pt x="709" y="172" on="0"/>
        <pt x="831" y="367" on="0"/>
      </contour>
    </TTGlyph>
    <TTGlyph name="dagesh" xMin="-80" yMin="625" xMax="80" yMax="782">
      <contour>
        <pt x="-80" y="702" on="1"/>
        <pt x="-80" y="737" on="0"/>
        <pt x="-32" y="782" on="0"/>
        <pt x="0" y="782" on="1"/>
        <pt x="32" y="782" on="0"/>
        <pt x="80" y="737" on="0"/>
        <pt x="80" y="702" on="1"/>
        <pt x="80" y="670" on="0"/>
        <pt x="32" y="625" on="0"/>
        <pt x="0" y="625" on="1"/>
        <pt x="-32" y="625" on="0"/>
        <pt x="-80" y="670" on="0"/>
      </contour>
    </TTGlyph>
    <TTGlyph name="dagger" xMin="138" yMin="-138" xMax="1002" yMax="1484">
      <contour>
        <pt x="669" y="960" on="1"/>
        <pt x="647" y="-138" on="1"/>
        <pt x="492" y="-138" on="1"/>
        <pt x="470" y="960" on="1"/>
        <pt x="138" y="933" on="1"/>
        <pt x="138" y="1137" on="1"/>
        <pt x="470" y="1108" on="1"/>
        <pt x="442" y="1484" on="1"/>
        <pt x="697" y="1484" on="1"/>
        <pt x="669" y="1108" on="1"/>
        <pt x="1002" y="1137" on="1"/>
        <pt x="1002" y="933" on="1"/>
      </contour>
    </TTGlyph>
    <TTGlyph name="daggerdbl" xMin="136" yMin="-141" xMax="1002" yMax="1484">
      <contour>
        <pt x="478" y="980" on="1"/>
        <pt x="137" y="953" on="1"/>
        <pt x="137" y="1157" on="1"/>
        <pt x="478" y="1128" on="1"/>
        <pt x="462" y="1484" on="1"/>
        <pt x="677" y="1484" on="1"/>
        <pt x="661" y="1128" on="1"/>
        <pt x="1002" y="1157" on="1"/>
        <pt x="1002" y="953" on="1"/>
        <pt x="661" y="980" on="1"/>
        <pt x="635" y="670" on="1"/>
        <pt x="661" y="363" on="1"/>
        <pt x="1001" y="390" on="1"/>
        <pt x="1001" y="186" on="1"/>
        <pt x="661" y="215" on="1"/>
        <pt x="677" y="-141" on="1"/>
        <pt x="462" y="-141" on="1"/>
        <pt x="478" y="215" on="1"/>
        <pt x="136" y="186" on="1"/>
        <pt x="136" y="390" on="1"/>
        <pt x="478" y="363" on="1"/>
        <pt x="504" y="670" on="1"/>
      </contour>
    </TTGlyph>
    <TTGlyph name="dalet" xMin="41" yMin="0" xMax="1137" yMax="1241">
      <contour>
        <pt x="983" y="0" on="1"/>
        <pt x="713" y="0" on="1"/>
        <pt x="713" y="999" on="1"/>
        <pt x="41" y="999" on="1"/>
        <pt x="41" y="1241" on="1"/>
        <pt x="1137" y="1241" on="1"/>
        <pt x="1137" y="999" on="1"/>
        <pt x="983" y="999" on="1"/>
      </contour>
    </TTGlyph>
    <TTGlyph name="daletdagesh" xMin="41" yMin="0" xMax="1137" yMax="1241">
      <component glyphName="dalet" x="0" y="0" flags="0x204"/>
      <component glyphName="dagesh" x="412" y="0" flags="0x4"/>
    </TTGlyph>
    <TTGlyph name="daletwide" xMin="41" yMin="0" xMax="1137" yMax="1241">
      <component glyphName="dalet" x="0" y="0" flags="0x204"/>
    </TTGlyph>
    <TTGlyph name="dcaron" xMin="84" yMin="-20" xMax="1473" yMax="1484">
      <component glyphName="d" x="0" y="0" flags="0x4"/>
      <component glyphName="caroncommaaccent" x="1115" y="75" flags="0x4"/>
    </TTGlyph>
    <TTGlyph name="dcroat" xMin="84" yMin="-20" xMax="1241" yMax="1484">
      <contour>
        <pt x="827" y="1345" on="1"/>
        <pt x="827" y="1484" on="1"/>
        <pt x="1109" y="1484" on="1"/>
        <pt x="1109" y="1345" on="1"/>
        <pt x="1241" y="1345" on="1"/>
        <pt x="1241" y="1175" on="1"/>
        <pt x="1109" y="1175" on="1"/>
        <pt x="1109" y="236" on="1"/>
        <pt x="1109" y="136" on="0"/>
        <pt x="1117" y="0" on="1"/>
        <pt x="845" y="0" on="1"/>
        <pt x="841" y="15" on="0"/>
        <pt x="830" y="136" on="0"/>
        <pt x="830" y="176" on="1"/>
        <pt x="826" y="176" on="1"/>
        <pt x="735" y="-20" on="0"/>
        <pt x="479" y="-20" on="1"/>
        <pt x="291" y="-20" on="0"/>
        <pt x="84" y="263" on="0"/>
        <pt x="84" y="521" on="1"/>
        <pt x="84" y="781" on="0"/>
        <pt x="300" y="1062" on="0"/>
        <pt x="500" y="1062" on="1"/>
        <pt x="615" y="1062" on="0"/>
        <pt x="782" y="966" on="0"/>
        <pt x="827" y="871" on="1"/>
        <pt x="829" y="871" on="1"/>
        <pt x="827" y="1049" on="1"/>
        <pt x="827" y="1175" on="1"/>
        <pt x="541" y="1175" on="1"/>
        <pt x="541" y="1345" on="1"/>
      </contour>
      <contour>
        <pt x="831" y="529" on="1"/>
        <pt x="831" y="696" on="0"/>
        <pt x="715" y="874" on="0"/>
        <pt x="600" y="874" on="1"/>
        <pt x="487" y="874" on="0"/>
        <pt x="377" y="704" on="0"/>
        <pt x="377" y="522" on="1"/>
        <pt x="377" y="172" on="0"/>
        <pt x="598" y="172" on="1"/>
        <pt x="711" y="172" on="0"/>
        <pt x="831" y="359" on="0"/>
      </contour>
    </TTGlyph>
    <TTGlyph name="degree" xMin="90" yMin="795" xMax="731" yMax="1425">
      <contour>
        <pt x="731" y="1110" on="1"/>
        <pt x="731" y="980" on="0"/>
        <pt x="544" y="795" on="0"/>
        <pt x="410" y="795" on="1"/>
        <pt x="278" y="795" on="0"/>
        <pt x="90" y="977" on="0"/>
        <pt x="90" y="1110" on="1"/>
        <pt x="90" y="1196" on="0"/>
        <pt x="175" y="1342" on="0"/>
        <pt x="322" y="1425" on="0"/>
        <pt x="410" y="1425" on="1"/>
        <pt x="545" y="1425" on="0"/>
        <pt x="731" y="1240" on="0"/>
      </contour>
      <contour>
        <pt x="573" y="1110" on="1"/>
        <pt x="573" y="1180" on="0"/>
        <pt x="480" y="1276" on="0"/>
        <pt x="410" y="1276" on="1"/>
        <pt x="339" y="1276" on="0"/>
        <pt x="244" y="1179" on="0"/>
        <pt x="244" y="1110" on="1"/>
        <pt x="244" y="1041" on="0"/>
        <pt x="342" y="942" on="0"/>
        <pt x="410" y="942" on="1"/>
        <pt x="477" y="942" on="0"/>
        <pt x="573" y="1040" on="0"/>
      </contour>
    </TTGlyph>
    <TTGlyph name="delta" xMin="86" yMin="-20" xMax="1156" yMax="1484">
      <contour>
        <pt x="866" y="487" on="1"/>
        <pt x="866" y="597" on="0"/>
        <pt x="775" y="795" on="0"/>
        <pt x="667" y="903" on="1"/>
        <pt x="526" y="853" on="0"/>
        <pt x="376" y="638" on="0"/>
        <pt x="376" y="481" on="1"/>
        <pt x="376" y="336" on="0"/>
        <pt x="500" y="176" on="0"/>
        <pt x="612" y="176" on="1"/>
        <pt x="736" y="176" on="0"/>
        <pt x="866" y="332" on="0"/>
      </contour>
      <contour>
        <pt x="734" y="1294" on="1"/>
        <pt x="587" y="1301" on="1"/>
        <pt x="910" y="1008" on="1"/>
        <pt x="1041" y="889" on="0"/>
        <pt x="1156" y="636" on="0"/>
        <pt x="1156" y="483" on="1"/>
        <pt x="1156" y="335" on="0"/>
        <pt x="1027" y="106" on="0"/>
        <pt x="781" y="-20" on="0"/>
        <pt x="617" y="-20" on="1"/>
        <pt x="365" y="-20" on="0"/>
        <pt x="86" y="245" on="0"/>
        <pt x="86" y="481" on="1"/>
        <pt x="86" y="863" on="0"/>
        <pt x="551" y="1023" on="1"/>
        <pt x="239" y="1337" on="1"/>
        <pt x="239" y="1484" on="1"/>
        <pt x="1092" y="1484" on="1"/>
        <pt x="1092" y="1294" on="1"/>
      </contour>
    </TTGlyph>
    <TTGlyph name="diamond" xMin="66" yMin="-25" xMax="978" yMax="1223">
      <contour>
        <pt x="519" y="1223" on="1"/>
        <pt x="591" y="1098" on="0"/>
        <pt x="856" y="737" on="0"/>
        <pt x="978" y="600" on="1"/>
        <pt x="910" y="530" on="0"/>
        <pt x="604" y="123" on="0"/>
        <pt x="521" y="-25" on="1"/>
        <pt x="484" y="46" on="0"/>
        <pt x="299" y="307" on="0"/>
        <pt x="151" y="498" on="0"/>
        <pt x="66" y="600" on="1"/>
        <pt x="182" y="737" on="0"/>
        <pt x="441" y="1082" on="0"/>
      </contour>
    </TTGlyph>
    <TTGlyph name="dieresis" xMin="16" yMin="1199" xMax="667" yMax="1418">
      <contour>
        <pt x="450" y="1199" on="1"/>
        <pt x="450" y="1418" on="1"/>
        <pt x="667" y="1418" on="1"/>
        <pt x="667" y="1199" on="1"/>
      </contour>
      <contour>
        <pt x="16" y="1199" on="1"/>
        <pt x="16" y="1418" on="1"/>
        <pt x="230" y="1418" on="1"/>
        <pt x="230" y="1199" on="1"/>
      </contour>
    </TTGlyph>
    <TTGlyph name="dieresis.uc" xMin="15" yMin="1530" xMax="666" yMax="1749">
      <contour>
        <pt x="469" y="1530" on="1"/>
        <pt x="469" y="1749" on="1"/>
        <pt x="666" y="1749" on="1"/>
        <pt x="666" y="1530" on="1"/>
      </contour>
      <contour>
        <pt x="15" y="1530" on="1"/>
        <pt x="15" y="1749" on="1"/>
        <pt x="209" y="1749" on="1"/>
        <pt x="209" y="1530" on="1"/>
      </contour>
    </TTGlyph>
    <TTGlyph name="dieresistonos" xMin="110" yMin="1190" xMax="842" yMax="1621">
      <contour>
        <pt x="361" y="1190" on="1"/>
        <pt x="361" y="1223" on="1"/>
        <pt x="420" y="1621" on="1"/>
        <pt x="657" y="1621" on="1"/>
        <pt x="657" y="1584" on="1"/>
        <pt x="476" y="1190" on="1"/>
      </contour>
      <contour>
        <pt x="110" y="1231" on="1"/>
        <pt x="110" y="1453" on="1"/>
        <pt x="310" y="1453" on="1"/>
        <pt x="310" y="1231" on="1"/>
      </contour>
      <contour>
        <pt x="642" y="1231" on="1"/>
        <pt x="642" y="1453" on="1"/>
        <pt x="842" y="1453" on="1"/>
        <pt x="842" y="1231" on="1"/>
      </contour>
    </TTGlyph>
    <TTGlyph name="divide" xMin="49" yMin="170" xMax="1076" yMax="1194">
      <contour>
        <pt x="442" y="961" on="1"/>
        <pt x="442" y="1194" on="1"/>
        <pt x="680" y="1194" on="1"/>
        <pt x="680" y="961" on="1"/>
      </contour>
      <contour>
        <pt x="49" y="569" on="1"/>
        <pt x="49" y="793" on="1"/>
        <pt x="1076" y="793" on="1"/>
        <pt x="1076" y="569" on="1"/>
      </contour>
      <contour>
        <pt x="442" y="170" on="1"/>
        <pt x="442" y="403" on="1"/>
        <pt x="680" y="403" on="1"/>
        <pt x="680" y="170" on="1"/>
      </contour>
    </TTGlyph>
    <TTGlyph name="dkshade" xMin="0" yMin="-621" xMax="1493" yMax="1699">
      <contour>
        <pt x="1493" y="-621" on="1"/>
        <pt x="0" y="-621" on="1"/>
        <pt x="0" y="-331" on="1"/>
        <pt x="106" y="-331" on="1"/>
        <pt x="106" y="-234" on="1"/>
        <pt x="0" y="-234" on="1"/>
        <pt x="0" y="56" on="1"/>
        <pt x="106" y="56" on="1"/>
        <pt x="106" y="153" on="1"/>
        <pt x="0" y="153" on="1"/>
        <pt x="0" y="444" on="1"/>
        <pt x="106" y="444" on="1"/>
        <pt x="106" y="540" on="1"/>
        <pt x="0" y="540" on="1"/>
        <pt x="0" y="829" on="1"/>
        <pt x="106" y="829" on="1"/>
        <pt x="106" y="927" on="1"/>
        <pt x="0" y="927" on="1"/>
        <pt x="0" y="1216" on="1"/>
        <pt x="106" y="1216" on="1"/>
        <pt x="106" y="1314" on="1"/>
        <pt x="0" y="1314" on="1"/>
        <pt x="0" y="1603" on="1"/>
        <pt x="106" y="1603" on="1"/>
        <pt x="106" y="1699" on="1"/>
        <pt x="213" y="1699" on="1"/>
        <pt x="213" y="1603" on="1"/>
        <pt x="319" y="1603" on="1"/>
        <pt x="319" y="1699" on="1"/>
        <pt x="426" y="1699" on="1"/>
        <pt x="426" y="1603" on="1"/>
        <pt x="532" y="1603" on="1"/>
        <pt x="532" y="1699" on="1"/>
        <pt x="639" y="1699" on="1"/>
        <pt x="639" y="1603" on="1"/>
        <pt x="746" y="1603" on="1"/>
        <pt x="746" y="1699" on="1"/>
        <pt x="853" y="1699" on="1"/>
        <pt x="853" y="1603" on="1"/>
        <pt x="960" y="1603" on="1"/>
        <pt x="960" y="1699" on="1"/>
        <pt x="1067" y="1699" on="1"/>
        <pt x="1067" y="1603" on="1"/>
        <pt x="1173" y="1603" on="1"/>
        <pt x="1173" y="1699" on="1"/>
        <pt x="1280" y="1699" on="1"/>
        <pt x="1280" y="1603" on="1"/>
        <pt x="1386" y="1603" on="1"/>
        <pt x="1386" y="1699" on="1"/>
        <pt x="1493" y="1699" on="1"/>
        <pt x="1493" y="1506" on="1"/>
        <pt x="1386" y="1506" on="1"/>
        <pt x="1386" y="1408" on="1"/>
        <pt x="1493" y="1408" on="1"/>
        <pt x="1493" y="1119" on="1"/>
        <pt x="1386" y="1119" on="1"/>
        <pt x="1386" y="1023" on="1"/>
        <pt x="1493" y="1023" on="1"/>
        <pt x="1493" y="732" on="1"/>
        <pt x="1386" y="732" on="1"/>
        <pt x="1386" y="636" on="1"/>
        <pt x="1493" y="636" on="1"/>
        <pt x="1493" y="345" on="1"/>
        <pt x="1386" y="345" on="1"/>
        <pt x="1386" y="249" on="1"/>
        <pt x="1493" y="249" on="1"/>
        <pt x="1493" y="-42" on="1"/>
        <pt x="1386" y="-42" on="1"/>
        <pt x="1386" y="-136" on="1"/>
        <pt x="1493" y="-136" on="1"/>
        <pt x="1493" y="-427" on="1"/>
        <pt x="1386" y="-427" on="1"/>
        <pt x="1386" y="-523" on="1"/>
        <pt x="1493" y="-523" on="1"/>
      </contour>
      <contour>
        <pt x="106" y="1119" on="1"/>
        <pt x="106" y="1023" on="1"/>
        <pt x="213" y="1023" on="1"/>
        <pt x="213" y="1119" on="1"/>
      </contour>
      <contour>
        <pt x="319" y="1119" on="1"/>
        <pt x="319" y="1023" on="1"/>
        <pt x="426" y="1023" on="1"/>
        <pt x="426" y="1119" on="1"/>
      </contour>
      <contour>
        <pt x="532" y="1119" on="1"/>
        <pt x="532" y="1023" on="1"/>
        <pt x="639" y="1023" on="1"/>
        <pt x="639" y="1119" on="1"/>
      </contour>
      <contour>
        <pt x="746" y="1119" on="1"/>
        <pt x="746" y="1023" on="1"/>
        <pt x="853" y="1023" on="1"/>
        <pt x="853" y="1119" on="1"/>
      </contour>
      <contour>
        <pt x="960" y="927" on="1"/>
        <pt x="853" y="927" on="1"/>
        <pt x="853" y="829" on="1"/>
        <pt x="960" y="829" on="1"/>
      </contour>
      <contour>
        <pt x="746" y="927" on="1"/>
        <pt x="639" y="927" on="1"/>
        <pt x="639" y="829" on="1"/>
        <pt x="746" y="829" on="1"/>
      </contour>
      <contour>
        <pt x="532" y="927" on="1"/>
        <pt x="426" y="927" on="1"/>
        <pt x="426" y="829" on="1"/>
        <pt x="532" y="829" on="1"/>
      </contour>
      <contour>
        <pt x="319" y="927" on="1"/>
        <pt x="213" y="927" on="1"/>
        <pt x="213" y="829" on="1"/>
        <pt x="319" y="829" on="1"/>
      </contour>
      <contour>
        <pt x="106" y="732" on="1"/>
        <pt x="106" y="636" on="1"/>
        <pt x="213" y="636" on="1"/>
        <pt x="213" y="732" on="1"/>
      </contour>
      <contour>
        <pt x="319" y="732" on="1"/>
        <pt x="319" y="636" on="1"/>
        <pt x="426" y="636" on="1"/>
        <pt x="426" y="732" on="1"/>
      </contour>
      <contour>
        <pt x="532" y="732" on="1"/>
        <pt x="532" y="636" on="1"/>
        <pt x="639" y="636" on="1"/>
        <pt x="639" y="732" on="1"/>
      </contour>
      <contour>
        <pt x="746" y="732" on="1"/>
        <pt x="746" y="636" on="1"/>
        <pt x="853" y="636" on="1"/>
        <pt x="853" y="732" on="1"/>
      </contour>
      <contour>
        <pt x="319" y="540" on="1"/>
        <pt x="213" y="540" on="1"/>
        <pt x="213" y="444" on="1"/>
        <pt x="319" y="444" on="1"/>
      </contour>
      <contour>
        <pt x="426" y="540" on="1"/>
        <pt x="426" y="444" on="1"/>
        <pt x="532" y="444" on="1"/>
        <pt x="532" y="540" on="1"/>
      </contour>
      <contour>
        <pt x="639" y="540" on="1"/>
        <pt x="639" y="444" on="1"/>
        <pt x="746" y="444" on="1"/>
        <pt x="746" y="540" on="1"/>
      </contour>
      <contour>
        <pt x="853" y="540" on="1"/>
        <pt x="853" y="444" on="1"/>
        <pt x="960" y="444" on="1"/>
        <pt x="960" y="540" on="1"/>
      </contour>
      <contour>
        <pt x="106" y="345" on="1"/>
        <pt x="106" y="249" on="1"/>
        <pt x="213" y="249" on="1"/>
        <pt x="213" y="345" on="1"/>
      </contour>
      <contour>
        <pt x="532" y="345" on="1"/>
        <pt x="532" y="249" on="1"/>
        <pt x="639" y="249" on="1"/>
        <pt x="639" y="345" on="1"/>
      </contour>
      <contour>
        <pt x="426" y="249" on="1"/>
        <pt x="426" y="345" on="1"/>
        <pt x="319" y="345" on="1"/>
        <pt x="319" y="249" on="1"/>
      </contour>
      <contour>
        <pt x="746" y="345" on="1"/>
        <pt x="746" y="249" on="1"/>
        <pt x="853" y="249" on="1"/>
        <pt x="853" y="345" on="1"/>
      </contour>
      <contour>
        <pt x="960" y="56" on="1"/>
        <pt x="960" y="153" on="1"/>
        <pt x="853" y="153" on="1"/>
        <pt x="853" y="56" on="1"/>
      </contour>
      <contour>
        <pt x="746" y="56" on="1"/>
        <pt x="746" y="153" on="1"/>
        <pt x="639" y="153" on="1"/>
        <pt x="639" y="56" on="1"/>
      </contour>
      <contour>
        <pt x="532" y="56" on="1"/>
        <pt x="532" y="153" on="1"/>
        <pt x="426" y="153" on="1"/>
        <pt x="426" y="56" on="1"/>
      </contour>
      <contour>
        <pt x="319" y="56" on="1"/>
        <pt x="319" y="153" on="1"/>
        <pt x="213" y="153" on="1"/>
        <pt x="213" y="56" on="1"/>
      </contour>
      <contour>
        <pt x="106" y="-42" on="1"/>
        <pt x="106" y="-136" on="1"/>
        <pt x="213" y="-136" on="1"/>
        <pt x="213" y="-42" on="1"/>
      </contour>
      <contour>
        <pt x="319" y="-42" on="1"/>
        <pt x="319" y="-136" on="1"/>
        <pt x="426" y="-136" on="1"/>
        <pt x="426" y="-42" on="1"/>
      </contour>
      <contour>
        <pt x="532" y="-42" on="1"/>
        <pt x="532" y="-136" on="1"/>
        <pt x="639" y="-136" on="1"/>
        <pt x="639" y="-42" on="1"/>
      </contour>
      <contour>
        <pt x="746" y="-42" on="1"/>
        <pt x="746" y="-136" on="1"/>
        <pt x="853" y="-136" on="1"/>
        <pt x="853" y="-42" on="1"/>
      </contour>
      <contour>
        <pt x="960" y="-331" on="1"/>
        <pt x="960" y="-234" on="1"/>
        <pt x="853" y="-234" on="1"/>
        <pt x="853" y="-331" on="1"/>
      </contour>
      <contour>
        <pt x="746" y="-331" on="1"/>
        <pt x="746" y="-234" on="1"/>
        <pt x="639" y="-234" on="1"/>
        <pt x="639" y="-331" on="1"/>
      </contour>
      <contour>
        <pt x="532" y="-331" on="1"/>
        <pt x="532" y="-234" on="1"/>
        <pt x="426" y="-234" on="1"/>
        <pt x="426" y="-331" on="1"/>
      </contour>
      <contour>
        <pt x="319" y="-331" on="1"/>
        <pt x="319" y="-234" on="1"/>
        <pt x="213" y="-234" on="1"/>
        <pt x="213" y="-331" on="1"/>
      </contour>
      <contour>
        <pt x="106" y="-427" on="1"/>
        <pt x="106" y="-523" on="1"/>
        <pt x="213" y="-523" on="1"/>
        <pt x="213" y="-427" on="1"/>
      </contour>
      <contour>
        <pt x="319" y="-427" on="1"/>
        <pt x="319" y="-523" on="1"/>
        <pt x="426" y="-523" on="1"/>
        <pt x="426" y="-427" on="1"/>
      </contour>
      <contour>
        <pt x="532" y="-427" on="1"/>
        <pt x="532" y="-523" on="1"/>
        <pt x="639" y="-523" on="1"/>
        <pt x="639" y="-427" on="1"/>
      </contour>
      <contour>
        <pt x="746" y="-427" on="1"/>
        <pt x="746" y="-523" on="1"/>
        <pt x="853" y="-523" on="1"/>
        <pt x="853" y="-427" on="1"/>
      </contour>
      <contour>
        <pt x="960" y="1314" on="1"/>
        <pt x="853" y="1314" on="1"/>
        <pt x="853" y="1216" on="1"/>
        <pt x="960" y="1216" on="1"/>
      </contour>
      <contour>
        <pt x="746" y="1314" on="1"/>
        <pt x="639" y="1314" on="1"/>
        <pt x="639" y="1216" on="1"/>
        <pt x="746" y="1216" on="1"/>
      </contour>
      <contour>
        <pt x="532" y="1314" on="1"/>
        <pt x="426" y="1314" on="1"/>
        <pt x="426" y="1216" on="1"/>
        <pt x="532" y="1216" on="1"/>
      </contour>
      <contour>
        <pt x="319" y="1314" on="1"/>
        <pt x="213" y="1314" on="1"/>
        <pt x="213" y="1216" on="1"/>
        <pt x="319" y="1216" on="1"/>
      </contour>
      <contour>
        <pt x="853" y="1506" on="1"/>
        <pt x="746" y="1506" on="1"/>
        <pt x="746" y="1408" on="1"/>
        <pt x="853" y="1408" on="1"/>
      </contour>
      <contour>
        <pt x="639" y="1506" on="1"/>
        <pt x="532" y="1506" on="1"/>
        <pt x="532" y="1408" on="1"/>
        <pt x="639" y="1408" on="1"/>
      </contour>
      <contour>
        <pt x="426" y="1506" on="1"/>
        <pt x="319" y="1506" on="1"/>
        <pt x="319" y="1408" on="1"/>
        <pt x="426" y="1408" on="1"/>
      </contour>
      <contour>
        <pt x="213" y="1506" on="1"/>
        <pt x="106" y="1506" on="1"/>
        <pt x="106" y="1408" on="1"/>
        <pt x="213" y="1408" on="1"/>
      </contour>
      <contour>
        <pt x="960" y="1119" on="1"/>
        <pt x="960" y="1023" on="1"/>
        <pt x="1067" y="1023" on="1"/>
        <pt x="1067" y="1119" on="1"/>
      </contour>
      <contour>
        <pt x="1173" y="1119" on="1"/>
        <pt x="1173" y="1023" on="1"/>
        <pt x="1280" y="1023" on="1"/>
        <pt x="1280" y="1119" on="1"/>
      </contour>
      <contour>
        <pt x="1386" y="927" on="1"/>
        <pt x="1280" y="927" on="1"/>
        <pt x="1280" y="829" on="1"/>
        <pt x="1386" y="829" on="1"/>
      </contour>
      <contour>
        <pt x="1173" y="927" on="1"/>
        <pt x="1067" y="927" on="1"/>
        <pt x="1067" y="829" on="1"/>
        <pt x="1173" y="829" on="1"/>
      </contour>
      <contour>
        <pt x="960" y="732" on="1"/>
        <pt x="960" y="636" on="1"/>
        <pt x="1067" y="636" on="1"/>
        <pt x="1067" y="732" on="1"/>
      </contour>
      <contour>
        <pt x="1173" y="732" on="1"/>
        <pt x="1173" y="636" on="1"/>
        <pt x="1280" y="636" on="1"/>
        <pt x="1280" y="732" on="1"/>
      </contour>
      <contour>
        <pt x="1173" y="540" on="1"/>
        <pt x="1067" y="540" on="1"/>
        <pt x="1067" y="444" on="1"/>
        <pt x="1173" y="444" on="1"/>
      </contour>
      <contour>
        <pt x="1280" y="540" on="1"/>
        <pt x="1280" y="444" on="1"/>
        <pt x="1386" y="444" on="1"/>
        <pt x="1386" y="540" on="1"/>
      </contour>
      <contour>
        <pt x="960" y="345" on="1"/>
        <pt x="960" y="249" on="1"/>
        <pt x="1067" y="249" on="1"/>
        <pt x="1067" y="345" on="1"/>
      </contour>
      <contour>
        <pt x="1280" y="249" on="1"/>
        <pt x="1280" y="345" on="1"/>
        <pt x="1173" y="345" on="1"/>
        <pt x="1173" y="249" on="1"/>
      </contour>
      <contour>
        <pt x="1386" y="56" on="1"/>
        <pt x="1386" y="153" on="1"/>
        <pt x="1280" y="153" on="1"/>
        <pt x="1280" y="56" on="1"/>
      </contour>
      <contour>
        <pt x="1173" y="56" on="1"/>
        <pt x="1173" y="153" on="1"/>
        <pt x="1067" y="153" on="1"/>
        <pt x="1067" y="56" on="1"/>
      </contour>
      <contour>
        <pt x="960" y="-42" on="1"/>
        <pt x="960" y="-136" on="1"/>
        <pt x="1067" y="-136" on="1"/>
        <pt x="1067" y="-42" on="1"/>
      </contour>
      <contour>
        <pt x="1173" y="-42" on="1"/>
        <pt x="1173" y="-136" on="1"/>
        <pt x="1280" y="-136" on="1"/>
        <pt x="1280" y="-42" on="1"/>
      </contour>
      <contour>
        <pt x="1386" y="-331" on="1"/>
        <pt x="1386" y="-234" on="1"/>
        <pt x="1280" y="-234" on="1"/>
        <pt x="1280" y="-331" on="1"/>
      </contour>
      <contour>
        <pt x="1173" y="-331" on="1"/>
        <pt x="1173" y="-234" on="1"/>
        <pt x="1067" y="-234" on="1"/>
        <pt x="1067" y="-331" on="1"/>
      </contour>
      <contour>
        <pt x="960" y="-427" on="1"/>
        <pt x="960" y="-523" on="1"/>
        <pt x="1067" y="-523" on="1"/>
        <pt x="1067" y="-427" on="1"/>
      </contour>
      <contour>
        <pt x="1173" y="-427" on="1"/>
        <pt x="1173" y="-523" on="1"/>
        <pt x="1280" y="-523" on="1"/>
        <pt x="1280" y="-427" on="1"/>
      </contour>
      <contour>
        <pt x="1386" y="1314" on="1"/>
        <pt x="1280" y="1314" on="1"/>
        <pt x="1280" y="1216" on="1"/>
        <pt x="1386" y="1216" on="1"/>
      </contour>
      <contour>
        <pt x="1173" y="1314" on="1"/>
        <pt x="1067" y="1314" on="1"/>
        <pt x="1067" y="1216" on="1"/>
        <pt x="1173" y="1216" on="1"/>
      </contour>
      <contour>
        <pt x="1280" y="1506" on="1"/>
        <pt x="1173" y="1506" on="1"/>
        <pt x="1173" y="1408" on="1"/>
        <pt x="1280" y="1408" on="1"/>
      </contour>
      <contour>
        <pt x="1067" y="1506" on="1"/>
        <pt x="960" y="1506" on="1"/>
        <pt x="960" y="1408" on="1"/>
        <pt x="1067" y="1408" on="1"/>
      </contour>
    </TTGlyph>
    <TTGlyph name="dnblock" xMin="0" yMin="-621" xMax="1451" yMax="621">
      <contour>
        <pt x="1451" y="-621" on="1"/>
        <pt x="0" y="-621" on="1"/>
        <pt x="0" y="621" on="1"/>
        <pt x="1451" y="621" on="1"/>
      </contour>
    </TTGlyph>
    <TTGlyph name="dollar" xMin="27" yMin="-152" xMax="1110" yMax="1520">
      <contour>
        <pt x="1110" y="412" on="1"/>
        <pt x="1110" y="231" on="0"/>
        <pt x="867" y="32" on="0"/>
        <pt x="629" y="23" on="1"/>
        <pt x="629" y="-152" on="1"/>
        <pt x="520" y="-152" on="1"/>
        <pt x="520" y="20" on="1"/>
        <pt x="305" y="28" on="0"/>
        <pt x="65" y="215" on="0"/>
        <pt x="27" y="408" on="1"/>
        <pt x="283" y="455" on="1"/>
        <pt x="302" y="342" on="0"/>
        <pt x="415" y="237" on="0"/>
        <pt x="520" y="227" on="1"/>
        <pt x="520" y="618" on="1"/>
        <pt x="517" y="620" on="0"/>
        <pt x="493" y="625" on="0"/>
        <pt x="489" y="625" on="1"/>
        <pt x="327" y="662" on="0"/>
        <pt x="162" y="763" on="0"/>
        <pt x="72" y="918" on="0"/>
        <pt x="72" y="1030" on="1"/>
        <pt x="72" y="1196" on="0"/>
        <pt x="301" y="1378" on="0"/>
        <pt x="520" y="1386" on="1"/>
        <pt x="520" y="1520" on="1"/>
        <pt x="629" y="1520" on="1"/>
        <pt x="629" y="1386" on="1"/>
        <pt x="760" y="1381" on="0"/>
        <pt x="935" y="1308" on="0"/>
        <pt x="1042" y="1167" on="0"/>
        <pt x="1075" y="1036" on="1"/>
        <pt x="811" y="997" on="1"/>
        <pt x="796" y="1084" on="0"/>
        <pt x="709" y="1179" on="0"/>
        <pt x="629" y="1190" on="1"/>
        <pt x="629" y="838" on="1"/>
        <pt x="640" y="836" on="1"/>
        <pt x="669" y="836" on="0"/>
        <pt x="964" y="740" on="0"/>
        <pt x="1110" y="553" on="0"/>
      </contour>
      <contour>
        <pt x="520" y="1194" on="1"/>
        <pt x="334" y="1180" on="0"/>
        <pt x="334" y="1034" on="1"/>
        <pt x="334" y="990" on="0"/>
        <pt x="365" y="932" on="0"/>
        <pt x="424" y="894" on="0"/>
        <pt x="520" y="862" on="1"/>
      </contour>
      <contour>
        <pt x="850" y="408" on="1"/>
        <pt x="850" y="458" on="0"/>
        <pt x="814" y="521" on="0"/>
        <pt x="745" y="561" on="0"/>
        <pt x="629" y="594" on="1"/>
        <pt x="629" y="227" on="1"/>
        <pt x="850" y="242" on="0"/>
      </contour>
    </TTGlyph>
    <TTGlyph name="dong" xMin="126" yMin="188" xMax="955" yMax="1484">
      <contour>
        <pt x="659" y="1386" on="1"/>
        <pt x="659" y="1484" on="1"/>
        <pt x="860" y="1484" on="1"/>
        <pt x="860" y="1386" on="1"/>
        <pt x="955" y="1386" on="1"/>
        <pt x="955" y="1267" on="1"/>
        <pt x="860" y="1267" on="1"/>
        <pt x="860" y="606" on="1"/>
        <pt x="860" y="512" on="0"/>
        <pt x="866" y="440" on="1"/>
        <pt x="671" y="440" on="1"/>
        <pt x="668" y="447" on="0"/>
        <pt x="661" y="527" on="0"/>
        <pt x="661" y="555" on="1"/>
        <pt x="592" y="426" on="0"/>
        <pt x="409" y="426" on="1"/>
        <pt x="275" y="426" on="0"/>
        <pt x="126" y="625" on="0"/>
        <pt x="126" y="807" on="1"/>
        <pt x="126" y="990" on="0"/>
        <pt x="282" y="1187" on="0"/>
        <pt x="424" y="1187" on="1"/>
        <pt x="500" y="1187" on="0"/>
        <pt x="627" y="1128" on="0"/>
        <pt x="660" y="1063" on="1"/>
        <pt x="660" y="1084" on="1"/>
        <pt x="659" y="1151" on="1"/>
        <pt x="659" y="1267" on="1"/>
        <pt x="454" y="1267" on="1"/>
        <pt x="454" y="1386" on="1"/>
      </contour>
      <contour>
        <pt x="662" y="812" on="1"/>
        <pt x="662" y="929" on="0"/>
        <pt x="579" y="1055" on="0"/>
        <pt x="496" y="1055" on="1"/>
        <pt x="419" y="1055" on="0"/>
        <pt x="336" y="941" on="0"/>
        <pt x="336" y="807" on="1"/>
        <pt x="336" y="561" on="0"/>
        <pt x="495" y="561" on="1"/>
        <pt x="576" y="561" on="0"/>
        <pt x="662" y="693" on="0"/>
      </contour>
      <contour>
        <pt x="128" y="314" on="1"/>
        <pt x="943" y="314" on="1"/>
        <pt x="943" y="188" on="1"/>
        <pt x="128" y="188" on="1"/>
      </contour>
    </TTGlyph>
    <TTGlyph name="dotaccent" xMin="200" yMin="1277" xMax="481" yMax="1484">
      <contour>
        <pt x="200" y="1277" on="1"/>
        <pt x="200" y="1484" on="1"/>
        <pt x="481" y="1484" on="1"/>
        <pt x="481" y="1277" on="1"/>
      </contour>
    </TTGlyph>
    <TTGlyph name="dotbelow.alt1" xMin="-352" yMin="-366" xMax="-71" yMax="-159">
      <contour>
        <pt x="-352" y="-366" on="1"/>
        <pt x="-352" y="-159" on="1"/>
        <pt x="-71" y="-159" on="1"/>
        <pt x="-71" y="-366" on="1"/>
      </contour>
    </TTGlyph>
    <TTGlyph name="dotbelow.alt10" xMin="-141" yMin="-366" xMax="140" yMax="-159">
      <component glyphName="dotbelow.alt1" x="211" y="0" flags="0x204"/>
    </TTGlyph>
    <TTGlyph name="dotbelow.alt11" xMin="-141" yMin="-366" xMax="140" yMax="-159">
      <component glyphName="dotbelow.alt1" x="211" y="0" flags="0x204"/>
    </TTGlyph>
    <TTGlyph name="dotbelow.alt12" xMin="-141" yMin="-366" xMax="140" yMax="-159">
      <component glyphName="dotbelow.alt1" x="211" y="0" flags="0x204"/>
    </TTGlyph>
    <TTGlyph name="dotbelow.alt13" xMin="-141" yMin="-366" xMax="140" yMax="-159">
      <component glyphName="dotbelow.alt1" x="211" y="0" flags="0x204"/>
    </TTGlyph>
    <TTGlyph name="dotbelow.alt14" xMin="-141" yMin="-366" xMax="140" yMax="-159">
      <component glyphName="dotbelow.alt1" x="211" y="0" flags="0x204"/>
    </TTGlyph>
    <TTGlyph name="dotbelow.alt15" xMin="-141" yMin="-366" xMax="140" yMax="-159">
      <component glyphName="dotbelow.alt1" x="211" y="0" flags="0x204"/>
    </TTGlyph>
    <TTGlyph name="dotbelow.alt2" xMin="-141" yMin="-366" xMax="140" yMax="-159">
      <component glyphName="dotbelow.alt1" x="211" y="0" flags="0x204"/>
    </TTGlyph>
    <TTGlyph name="dotbelow.alt3" xMin="-141" yMin="-366" xMax="140" yMax="-159">
      <component glyphName="dotbelow.alt1" x="211" y="0" flags="0x204"/>
    </TTGlyph>
    <TTGlyph name="dotbelow.alt4" xMin="-141" yMin="-366" xMax="140" yMax="-159">
      <component glyphName="dotbelow.alt1" x="211" y="0" flags="0x204"/>
    </TTGlyph>
    <TTGlyph name="dotbelow.alt5" xMin="-141" yMin="-366" xMax="140" yMax="-159">
      <component glyphName="dotbelow.alt1" x="211" y="0" flags="0x204"/>
    </TTGlyph>
    <TTGlyph name="dotbelow.alt6" xMin="-141" yMin="-366" xMax="140" yMax="-159">
      <component glyphName="dotbelow.alt1" x="211" y="0" flags="0x204"/>
    </TTGlyph>
    <TTGlyph name="dotbelow.alt7" xMin="-141" yMin="-366" xMax="140" yMax="-159">
      <component glyphName="dotbelow.alt1" x="211" y="0" flags="0x204"/>
    </TTGlyph>
    <TTGlyph name="dotbelow.alt8" xMin="-141" yMin="-366" xMax="140" yMax="-159">
      <component glyphName="dotbelow.alt1" x="211" y="0" flags="0x204"/>
    </TTGlyph>
</ttFont>
